<svg width="18" height="18" viewBox="0 0 18 23" fill="none" xmlns="http://www.w3.org/2000/svg">
<path d="M2.7915 23V0.151999H8.8075C11.6022 0.151999 13.6715 0.717332 15.0155 1.848C16.3808 2.97867 17.0635 4.62133 17.0635 6.776C17.0635 8.22667 16.7328 9.47467 16.0715 10.52C15.4102 11.544 14.4288 12.3333 13.1275 12.888C11.8475 13.4427 10.2582 13.72 8.3595 13.72H5.6715V23H2.7915ZM0.00750002 18.648V16.568H10.9515V18.648H0.00750002ZM0.00750002 13.72V11.288H7.3355V13.72H0.00750002ZM7.9435 11.288C9.24483 11.288 10.3435 11.1493 11.2395 10.872C12.1568 10.5947 12.8608 10.136 13.3515 9.496C13.8422 8.856 14.0875 7.98133 14.0875 6.872C14.0875 5.42133 13.6395 4.344 12.7435 3.64C11.8475 2.936 10.4502 2.584 8.5515 2.584H5.6715V11.288H7.9435Z" fill="#57CD8C"/>
</svg>
