<svg width="116" height="122" viewBox="0 0 116 122" fill="none" xmlns="http://www.w3.org/2000/svg">
<path d="M98.2601 71.515C112.418 81.3532 115.143 73.6091 111.959 65.438C111.414 64.0404 110.114 63.0775 108.622 62.9379C107.307 62.815 105.44 62.8634 102.942 63.4145L98.2612 71.5147L98.2601 71.515Z" fill="#57CD8C"/>
<path d="M39 21.1713L34 13.5L34.0518 22.5L39 21.1713Z" fill="#57CD8C"/>
<path d="M33.7251 22.4992C33.3586 22.4992 33.0605 22.2199 33.0587 21.8734L33 13.1337C32.9982 12.8596 33.1842 12.6156 33.46 12.5307C33.7349 12.4466 34.0383 12.5391 34.2074 12.762L39.8748 20.2123C40.0892 20.4949 40.0216 20.8885 39.7226 21.092C39.4237 21.2956 39.0082 21.2308 38.792 20.9482L34.3444 15.1027L34.3897 21.8658C34.3915 22.214 34.0952 22.4975 33.7278 22.5H33.7233L33.7251 22.4992Z" fill="#0C2718"/>
<path d="M99.934 51.5L107 46.8616L99 46.5L99.934 51.5Z" fill="#57CD8C"/>
<path d="M99.6506 51.5C99.4435 51.5 99.2406 51.4078 99.1203 51.2386C98.9317 50.9734 99.0159 50.6206 99.3088 50.4491L105.365 46.913L98.6025 46.641C98.254 46.6272 97.9855 46.3605 98.0006 46.0458C98.0158 45.7303 98.3104 45.4834 98.6581 45.5009L107.397 45.8522C107.672 45.8629 107.907 46.0336 107.978 46.2736C108.05 46.5137 107.942 46.7675 107.711 46.9024L99.9916 51.4093C99.8863 51.471 99.7676 51.5 99.6506 51.5Z" fill="#0C2718"/>
<path d="M90 41.5C92.1818 39.5787 96.0249 37.2075 99 39.3421L98.0483 40.1763C95.8202 38.1655 92.0853 40.1786 90 41.5Z" fill="#0C2718"/>
<path d="M75.6522 46.3274C75.6522 46.3274 81.3246 46.7958 82.3001 41.0843C83.3466 34.9584 70.4374 13.12 60.8038 11.0214C53.8 9.49603 46.0908 20.159 46.0908 20.159" fill="#57CD8C"/>
<g opacity="0.6">
<path d="M80.2169 41.4236C80.8381 40.8853 76.3265 22.5165 60.3727 13.611C57.3323 11.9137 56.6669 14.798 57.4228 15.2343C77.9689 27.0786 79.5958 41.9626 80.2169 41.4243V41.4236Z" fill="white"/>
</g>
<path d="M76.0895 47.2174C75.9091 47.2174 75.7393 47.2104 75.58 47.1972C75.0978 47.1573 74.7391 46.7358 74.7791 46.2555C74.8192 45.7759 75.2459 45.4194 75.7217 45.4579C75.9197 45.4725 80.6109 45.771 81.4362 40.9384C81.9037 38.2008 79.1236 31.5079 74.8255 25.024C69.9476 17.6655 64.636 12.7503 60.6165 11.8744C54.2556 10.4888 46.8756 20.5681 46.8019 20.6694C46.519 21.0602 45.9702 21.149 45.5793 20.8673C45.1869 20.5855 45.0978 20.0403 45.3806 19.6495C45.7091 19.1951 53.513 8.53982 60.9919 10.1694C67.4139 11.5682 73.8288 20.3507 76.2895 24.062C80.1715 29.9182 83.8029 37.4982 83.1656 41.2313C82.3493 46.0073 78.4379 47.2174 76.0909 47.2174H76.0895Z" fill="#0C2718"/>
<path d="M71.853 34.0992C73.7649 31.8286 77.2194 29.5426 80.1005 31.5378L79.4646 32.3718C77.0762 30.3522 73.7972 32.3319 71.853 34.0992Z" fill="#0C2718"/>
<path d="M66.0195 28.202C68.6774 26.0558 73.5392 22.7164 76.7663 25.47L76.0251 26.2131C73.509 23.6503 68.4423 26.5711 66.0195 28.202Z" fill="#0C2718"/>
<path d="M62.2681 23.2165C64.5919 21.1242 68.476 17.9091 71.8329 18.79L71.4785 19.7757C68.6192 18.7711 64.5287 21.5485 62.2688 23.2165H62.2681Z" fill="#0C2718"/>
<path d="M56.9766 18.6573C59.3193 16.1414 62.9809 12.8264 66.7218 13.6415L66.4172 14.644C63.1473 13.6415 59.3109 16.5818 56.9766 18.6573Z" fill="#0C2718"/>
<path d="M13.9992 69.0941C10.7913 71.1496 7.39767 72.5552 3.84965 73.4333C2.41172 73.7896 1.037 72.6734 1.00659 71.1683C0.949779 68.4141 1.25625 65.7945 2.07964 63.3738C2.48694 62.1696 3.65441 61.4113 4.9003 61.5083L11.4818 62.0179C12.8997 63.6592 13.7807 65.9665 14 69.0933L13.9992 69.0941Z" fill="#57CD8C"/>
<g opacity="0.6">
<path d="M12.8326 62.9375L6.37582 62.4501C5.07629 62.3511 3.85777 63.1247 3.43183 64.3534C2.57243 66.8232 2.25339 69.496 2.31186 72.306C2.31854 72.5888 2.37116 72.8567 2.46386 73.1029C1.5719 72.7702 0.910431 71.9125 0.888716 70.8752C0.829419 68.0652 1.14929 65.3924 2.00869 62.9226C2.43379 61.6939 3.65231 60.9203 4.95268 61.0192L11.822 61.5392C12.1945 61.9626 12.5336 62.4268 12.8326 62.9375Z" fill="white"/>
</g>
<path d="M93.2074 85.6269L100.641 88.107L96.2966 80.8708L93.2074 85.6269Z" fill="#57CD8C"/>
<path d="M22.9212 88.5L18 98.5L27 92.9806L22.9212 88.5Z" fill="#57CD8C"/>
<path d="M19.2075 40.3837L12.0211 32.0938L22.4281 35.2077L19.2075 40.3837Z" fill="#57CD8C"/>
<path d="M15.346 74.5L9 80.5L17 79.6057L15.346 74.5Z" fill="#57CD8C"/>
<path d="M99.1178 72.023C97.3866 77.6612 94.4736 82.9778 90.4602 87.5786C68.1989 113.11 28.697 105.925 16.6131 80.2846C13.5315 73.7462 12.2323 66.0082 13.4568 57.3086C14.489 51.3673 16.204 43.1232 20.1778 37.0815C21.4896 34.4565 23.0262 32.075 24.749 29.9363V29.9346C43.7601 6.31693 85.3941 12.1014 98.0844 44.2068C99.3224 47.3405 100.16 50.569 100.608 53.8249C101.451 59.9436 100.924 66.157 99.1186 72.023H99.1178Z" fill="#57CD8C"/>
<g opacity="0.6">
<path d="M14.4477 60.4677C14.3525 61.1474 14.2782 61.8195 14.2139 62.4875C14.2414 61.7097 14.2957 60.9203 14.365 60.125C14.3926 60.239 14.4185 60.3546 14.4486 60.4677H14.4477Z" fill="white"/>
</g>
<g opacity="0.6">
<path d="M21.3323 37.4018C22.6385 34.7748 24.1686 32.3915 25.884 30.2511V30.2494C44.8141 6.61358 86.2713 12.4025 98.9067 44.5326C100.139 47.6687 100.973 50.8997 101.42 54.1581C101.484 54.6256 101.537 55.0931 101.585 55.5614C101.1 52.8121 100.338 50.0894 99.285 47.4349C90.9216 26.3546 70.089 16.591 51.3685 19.0284C51.5498 19.2089 51.6825 19.4119 51.7477 19.6414C52.2137 21.2786 49.3566 23.5179 45.3678 24.6435C41.379 25.769 37.7677 25.3547 37.3017 23.7176C37.2833 23.6519 37.2783 23.5837 37.2699 23.5163C32.9337 25.8505 29.0042 29.0324 25.742 33.0803V33.0819C24.0166 35.2206 22.4782 37.6031 21.1653 40.2293C16.9234 43.2848 16.5574 48.365 15.8984 52.9836C15.9168 47.3917 16.5576 40.4996 21.6271 36.8203L21.3323 37.4018Z" fill="white"/>
</g>
<path d="M91.8108 87.2398C91.8108 87.2398 91.7989 87.4796 91.7702 87.9169C71.6491 110.009 36.4046 107.139 21.3942 84.3819C21.1461 77.9449 27.9165 74.1986 34.1993 70.1385C42.2352 64.9455 55.4945 65.3749 64.4796 66.4672C70.8024 67.2359 76.6005 70.1062 81.6271 74.0183C85.197 76.7966 88.1985 80.2362 90.4678 84.1492L90.5236 84.2454L91.8106 87.239L91.8108 87.2398Z" fill="#89DCAE"/>
<g opacity="0.3">
<path d="M15.2395 63.7982C22.7362 90.875 59.7363 104.261 85.4117 82.806C90.0407 78.9393 93.7218 74.195 96.3144 68.9459C98.9762 63.5658 100.49 57.6559 100.71 51.6163C100.783 51.9311 100.858 52.2438 100.924 52.5618C101.61 55.8323 101.892 59.132 101.795 62.3964C101.612 68.5308 100.09 74.537 97.3885 79.9974C94.7959 85.2465 91.1138 89.9907 86.4857 93.8576C60.8103 115.312 23.8102 101.926 16.3135 74.8497C15.278 71.1095 14.8112 67.1062 15.0087 62.9005C15.0841 63.2006 15.1576 63.502 15.2395 63.7982Z" fill="#0C2718"/>
</g>
<path d="M56.7728 104.5C49.7528 104.5 42.9983 102.977 37.2088 100.375C19.9644 92.6242 10.8651 76.1599 13.4269 57.3731C14.126 49.4609 16.6347 41.2688 20.3807 36.4174C24.0692 29.1467 29.7188 23.3031 36.733 19.5062C43.3627 15.9178 51.0487 14.2025 58.9719 14.5422C67.5878 14.9127 75.9004 17.6588 83.0135 22.4832C90.6417 27.6574 96.5116 35.0443 99.989 43.8459C105.933 58.8923 102.945 75.904 92.1923 88.2442C82.0635 99.8675 69.0152 104.5 56.7737 104.5H56.7728ZM56.9186 16.5723C41.6646 16.5723 28.7604 24.3173 22.1416 37.5637C22.0671 37.7132 21.9565 37.8428 21.8208 37.9417C18.5546 42.4271 16.7767 50.0185 15.5044 57.0582C15.5379 57.1887 15.5454 57.3249 15.527 57.4586C12.5146 78.8819 25.1985 92.699 38.0733 98.4861C53.2486 105.307 75.3785 104.365 90.6099 86.8877C100.853 75.1324 103.702 58.9297 98.0413 44.6018C91.5213 28.0968 76.5162 17.3731 58.8814 16.6147C58.2238 16.5865 57.5687 16.5723 56.9186 16.5723Z" fill="#0C2718"/>
<g opacity="0.3">
<path d="M109.084 62.893C110.043 63.2028 110.872 63.8598 111.362 64.7758C115.321 72.1756 113.859 79.8314 100.376 73.3984C111.181 75.0025 112.353 68.8468 109.084 62.893Z" fill="#0C2718"/>
</g>
<path d="M98.6616 72.1171C101.965 73.4966 111.841 77.964 112.424 71.8212C112.599 69.5277 111.65 67.0411 110.533 65.0182C109.685 63.6591 108.03 63.2508 106.509 63.464C105.107 63.5504 103.694 63.8374 102.29 64.1929C101.859 64.3101 101.637 63.6705 102.047 63.494C104.715 62.4161 108.667 60.8452 111.126 63.1027C111.599 63.5236 111.987 64.1185 112.249 64.6762C112.683 65.5216 113.07 66.4045 113.382 67.3083C114.914 71.4593 114.285 76.5707 108.841 76.6659C104.993 76.5813 102.366 75.1098 99.2297 73.2314C99.9672 73.2314 99.6196 72.7592 99.2297 72.3561L98.6616 72.1171Z" fill="#0C2718"/>
<path d="M101.126 70.0849C102.532 70.088 103.889 70.4386 105.221 70.8453C105.663 70.9869 106.102 71.1413 106.531 71.3375C106.723 71.4251 106.807 71.6523 106.718 71.8448C106.652 71.9884 106.508 72.0719 106.36 72.0681C105.424 72.0353 104.51 71.8786 103.601 71.6812C102.691 71.4801 101.798 71.2348 100.954 70.8155C100.765 70.7186 100.691 70.4861 100.788 70.2957C100.855 70.1641 100.988 70.0881 101.126 70.0849Z" fill="#0C2718"/>
<path d="M101.034 67.6396C102.61 67.5546 104.154 67.7178 105.694 67.9979C106.205 68.0956 106.713 68.2127 107.215 68.3798C107.416 68.4465 107.523 68.6631 107.456 68.8638C107.406 69.0133 107.273 69.112 107.125 69.1242C106.597 69.168 106.075 69.1617 105.555 69.1361C103.993 69.0442 102.453 68.8388 100.943 68.384C100.544 68.2657 100.622 67.6594 101.034 67.6396Z" fill="#0C2718"/>
<path d="M58.4932 72.5568C59.3567 72.5102 60.2032 72.5997 61.0468 72.7531C61.3267 72.8067 61.6054 72.8708 61.8806 72.9624C61.9902 72.9989 62.0494 73.1177 62.0126 73.2276C61.9852 73.3095 61.912 73.3636 61.8308 73.3703C61.5415 73.3943 61.2556 73.3909 60.9709 73.3768C60.1147 73.3265 59.2711 73.2139 58.4434 72.9647C58.2251 72.8999 58.2679 72.5677 58.4932 72.5568Z" fill="#0C2718"/>
<path d="M54.1875 72.0187C55.0511 71.9722 55.8975 72.0616 56.7412 72.215C57.021 72.2686 57.2997 72.3328 57.5749 72.4243C57.6846 72.4609 57.7437 72.5796 57.707 72.6895C57.6795 72.7714 57.6064 72.8255 57.5252 72.8322C57.2358 72.8562 56.9499 72.8528 56.6652 72.8387C55.809 72.7884 54.9654 72.6758 54.1377 72.4266C53.9195 72.3618 53.9622 72.0296 54.1875 72.0187Z" fill="#0C2718"/>
<path d="M55.3715 70.1073C56.1655 70.4501 56.8835 70.907 57.5705 71.4199C57.7973 71.5925 58.0182 71.774 58.2238 71.9785C58.3057 72.06 58.3058 72.1927 58.2239 72.2747C58.1629 72.3359 58.0732 72.3517 57.9975 72.3216C57.7278 72.2142 57.4733 72.0839 57.2247 71.9446C56.4805 71.5183 55.7753 71.042 55.1453 70.4504C54.9787 70.2952 55.165 70.0167 55.3715 70.1073Z" fill="#0C2718"/>
<path d="M58.8818 73.078C59.6757 73.4208 60.3938 73.8777 61.0808 74.3906C61.3075 74.5632 61.5284 74.7447 61.7341 74.9492C61.816 75.0307 61.8161 75.1634 61.7342 75.2454C61.6731 75.3066 61.5835 75.3224 61.5078 75.2923C61.2381 75.1849 60.9836 75.0546 60.7349 74.9153C59.9908 74.489 59.2856 74.0127 58.6555 73.4211C58.489 73.2659 58.6753 72.9874 58.8818 73.078Z" fill="#0C2718"/>
<path d="M58.601 72.8595C59.395 72.5167 60.113 72.0598 60.8 71.5469C61.0268 71.3743 61.2477 71.1928 61.4533 70.9883C61.5352 70.9068 61.5353 70.7741 61.4534 70.6921C61.3924 70.6309 61.3027 70.6151 61.227 70.6452C60.9573 70.7526 60.7028 70.8829 60.4542 71.0222C59.71 71.4485 59.0048 71.9248 58.3747 72.5164C58.2082 72.6716 58.3945 72.9501 58.601 72.8595Z" fill="#0C2718"/>
<path d="M58.3524 71.8836C58.5866 71.0514 58.6843 70.2062 58.7189 69.3497C58.7279 69.0649 58.7261 68.7791 58.6969 68.4906C58.6852 68.3756 58.5822 68.292 58.4669 68.3038C58.3809 68.3127 58.3121 68.3722 58.2878 68.45C58.2012 68.727 58.142 69.0066 58.0935 69.2874C57.9555 70.1336 57.881 70.9811 57.9433 71.843C57.9589 72.0701 58.2926 72.101 58.3524 71.8836Z" fill="#0C2718"/>
<path d="M57.8143 76.7254C58.0485 75.8932 58.1462 75.048 58.1809 74.1915C58.1898 73.9067 58.188 73.6209 58.1588 73.3324C58.1471 73.2174 58.0441 73.1338 57.9288 73.1456C57.8428 73.1545 57.774 73.214 57.7497 73.2918C57.6631 73.5688 57.6039 73.8484 57.5554 74.1292C57.4174 74.9754 57.3429 75.8229 57.4052 76.6848C57.4208 76.9119 57.7545 76.9428 57.8143 76.7254Z" fill="#0C2718"/>
<path d="M55.4896 75.3174C56.1923 74.8134 56.7964 74.2141 57.3583 73.5665C57.5431 73.3497 57.7203 73.1253 57.8776 72.8816C57.9402 72.7846 57.912 72.655 57.8145 72.5922C57.7418 72.5455 57.6509 72.5491 57.5834 72.5947C57.3427 72.757 57.1219 72.9385 56.9086 73.1276C56.2724 73.7026 55.6849 74.3182 55.1954 75.0304C55.0658 75.2175 55.3071 75.4499 55.4896 75.3174Z" fill="#0C2718"/>
<path d="M101.876 65.5537C103.422 65.2292 105.008 65.1733 106.544 65.5346C106.751 65.5923 106.872 65.8063 106.814 66.014C106.776 66.1492 106.67 66.2486 106.545 66.2842C105.776 66.4966 104.997 66.54 104.211 66.5413C103.433 66.5317 102.654 66.4878 101.876 66.304C101.669 66.2553 101.542 66.0477 101.591 65.84C101.626 65.6943 101.74 65.5875 101.875 65.554L101.876 65.5537Z" fill="#0C2718"/>
<path d="M3.19481 74.5C2.50578 74.5 1.82991 74.2688 1.2675 73.8283C0.487206 73.2169 0.0283949 72.2898 0.00701687 71.2848C-0.0571171 68.1608 0.317827 65.4456 1.15486 62.9867C1.69342 61.4004 3.2351 60.382 4.89189 60.511L13.6791 61.1634C14.1313 61.1969 14.4717 61.5972 14.4388 62.0587C14.4059 62.5193 14.0162 62.8652 13.5598 62.8317L4.7702 62.1793C3.84437 62.1098 3.00241 62.6659 2.70723 63.5336C1.93598 65.8032 1.58981 68.3267 1.65065 71.2496C1.66052 71.7454 1.88664 72.2019 2.2698 72.5017C2.63898 72.7906 3.10847 72.8928 3.55659 72.7823C7.22209 71.8752 10.6483 70.4104 13.7416 68.4289C14.1255 68.1826 14.6329 68.3007 14.8738 68.6918C15.1155 69.0829 14.9996 69.5997 14.6156 69.8451C11.3727 71.923 7.78203 73.4581 3.94468 74.4079C3.69637 74.469 3.44476 74.4992 3.19563 74.4992L3.19481 74.5Z" fill="#0C2718"/>
<path d="M12.5793 63.4506L7.21658 64.4956C7.00219 64.5385 6.90794 64.2544 7.1173 64.1885L12.2807 62.5292C13.0009 62.3218 13.316 63.2823 12.58 63.45L12.5793 63.4506Z" fill="#0C2718"/>
<path d="M13.7473 63.6406L7.31726 68.459C7.12047 68.6118 6.87969 68.3003 7.06848 68.1324L13.0002 62.6617C13.6313 62.1063 14.4097 63.1178 13.7473 63.6406Z" fill="#0C2718"/>
<path d="M100.944 88.8813C100.766 88.9508 100.565 88.9586 100.376 88.8959L92.9419 86.4159C92.5056 86.2701 92.2706 85.7992 92.4179 85.3639C92.5652 84.9286 93.0376 84.6942 93.4735 84.8392L98.7658 86.605L95.5811 81.2996C95.3448 80.906 95.4736 80.3958 95.869 80.1593C96.2677 79.9223 96.776 80.0507 97.012 80.4435L101.356 87.6797C101.536 87.9777 101.509 88.3569 101.29 88.6283C101.196 88.7444 101.076 88.8304 100.943 88.8824L100.944 88.8813Z" fill="#0C2718"/>
<path d="M17.8249 99.5C17.6144 99.5 17.4071 99.4217 17.2495 99.2715C16.9869 99.0213 16.9242 98.6314 17.0967 98.3149L22.2095 88.9273C22.4241 88.5342 22.9236 88.3856 23.3248 88.5947C23.7269 88.8038 23.8788 89.2922 23.665 89.6853L19.8847 96.6253L26.7683 92.811C27.1646 92.5915 27.6682 92.7279 27.8927 93.1154C28.1173 93.5029 27.9777 93.9945 27.5823 94.2141L18.2319 99.3951C18.1047 99.4653 17.9644 99.5 17.8257 99.5H17.8249Z" fill="#0C2718"/>
<path d="M11.5594 31.105C11.3517 31.1522 11.1652 31.2772 11.0439 31.4634C10.842 31.7737 10.8691 32.1796 11.1115 32.4589L18.2977 40.7481C18.5991 41.0951 19.1258 41.1325 19.4739 40.8326C19.8228 40.5325 19.8612 40.0077 19.5606 39.6605L14.2475 33.5327L21.9088 35.8247C22.3499 35.9566 22.8155 35.7067 22.9486 35.2671C23.0817 34.8274 22.8319 34.3646 22.3917 34.2325L11.9849 31.1194C11.8434 31.0773 11.697 31.0738 11.5602 31.1049L11.5594 31.105Z" fill="#0C2718"/>
<path d="M8.80958 81.4991C8.49011 81.4991 8.19821 81.2973 8.06767 80.9781C7.92658 80.6319 8.0109 80.2275 8.27605 79.9778L14.9241 73.716C15.2606 73.3994 15.7723 73.4351 16.0666 73.7952C16.3609 74.1553 16.3285 74.705 15.992 75.0216L11.2535 79.4855L17.1069 78.834C17.5529 78.7836 17.9502 79.1315 17.9956 79.6082C18.0418 80.0857 17.7183 80.5128 17.274 80.5623L8.8931 81.4956C8.86472 81.4991 8.83715 81.5 8.80958 81.5V81.4991Z" fill="#0C2718"/>
<path d="M61 25.5L58.6585 17.5L56 24.9849L61 25.5Z" fill="#57CD8C"/>
<path d="M72.9935 31.1823C72.733 31.1059 72.5427 30.8646 72.5443 30.5806L72.5708 23.457L68.6647 28.8912C68.4633 29.1711 68.0753 29.2359 67.7924 29.0341C67.5112 28.8329 67.4469 28.4438 67.6473 28.1645L72.6952 21.1414C72.8531 20.9207 73.122 20.8202 73.3963 20.9119C73.6554 20.9957 73.8309 21.237 73.8297 21.508L73.796 30.5863C73.7951 30.9302 73.5133 31.2082 73.1684 31.2059C73.1077 31.2054 73.05 31.1972 72.9947 31.1809L72.9935 31.1823Z" fill="#0C2718"/>
<path d="M77.8885 33.5L81 25.5L74 30.0637L77.8885 33.5Z" fill="#57CD8C"/>
<path d="M85.377 63.5C85.3081 63.5 85.2376 63.4885 85.1695 63.4631C84.8622 63.3518 84.707 63.0199 84.8218 62.7227L87.1984 56.5639L81.9265 60.0289C81.6556 60.2071 81.2858 60.1387 81.102 59.8753C80.9183 59.6126 80.9896 59.2546 81.2604 59.0764L88.0735 54.5991C88.2865 54.4585 88.5701 54.4685 88.7736 54.6229C88.9763 54.778 89.0531 55.0423 88.9621 55.2765L85.9337 63.1252C85.8442 63.3564 85.6185 63.4992 85.3777 63.4992L85.377 63.5Z" fill="#0C2718"/>
<path d="M92.8828 40.5L100 35.947L92 35.5L92.8828 40.5Z" fill="#57CD8C"/>
<path d="M29.1353 59.2125C29.3383 59.2577 29.5588 59.2011 29.7154 59.0433C29.958 58.799 29.9569 58.4041 29.7105 58.1619L24.6311 53.1429L31.2565 54.2404C31.5973 54.2966 31.9195 54.0674 31.9754 53.7279C32.0321 53.3885 31.8055 53.0612 31.4599 53.0108L22.8988 51.5927C22.6297 51.5482 22.3639 51.6817 22.2399 51.9234C22.116 52.1651 22.1636 52.4586 22.3572 52.65L28.8318 59.0462C28.9188 59.132 29.0246 59.1871 29.1363 59.2119L29.1353 59.2125Z" fill="#0C2718"/>
<path d="M69.4775 64.1678C68.1488 66.3896 65.0865 66.8533 63.1061 65.1716C59.3529 61.9872 56.1076 57.7107 52.6912 58.4933L51.9957 44.8082L51.9185 43.2996C52.5677 44.6123 53.282 45.7185 54.1058 46.4675C54.2833 46.6281 54.4644 46.7709 54.6525 46.8972L54.6623 46.9039C56.4244 48.0845 58.6787 47.6793 61.8068 44.4673L64.6885 41.2765C65.2981 40.6025 66.3289 40.4813 67.0591 41.0211C68.4176 42.0238 69.4787 43.3617 70.268 44.9083C73.1975 50.6449 72.4186 59.2434 69.4758 64.168L69.4775 64.1678Z" fill="#57CD8C"/>
<path d="M52.9917 52.137C55.952 53.6634 59.2629 54.0387 62.3684 53.2109C62.6063 53.1371 62.6938 53.6519 62.4516 53.732C60.0561 54.5618 57.5438 54.6607 55.1092 54.1052C54.2901 53.9173 53.4969 53.678 52.6755 53.3009C52.4431 53.1946 52.3165 52.8421 52.3922 52.5152C52.4717 52.1654 52.7534 51.9896 52.9911 52.1371L52.9917 52.137Z" fill="#0C2718"/>
<path d="M53.2804 54.4833C56.6052 56.0997 60.2753 56.9997 63.913 57.3473C64.2334 57.3709 64.218 57.8914 63.8908 57.8809C60.1056 57.7558 56.3449 57.0778 52.7899 55.6115C52.0442 55.2684 52.5456 54.1009 53.2804 54.4833Z" fill="#0C2718"/>
<path d="M93.6506 41.5C93.4435 41.5 93.2406 41.3924 93.1203 41.195C92.9317 40.8856 93.0159 40.474 93.3088 40.2739L99.365 36.1485L92.6025 35.8311C92.254 35.8151 91.9855 35.5039 92.0006 35.1367C92.0158 34.7686 92.3104 34.4806 92.6581 34.501L101.397 34.9109C101.672 34.9233 101.907 35.1225 101.978 35.4026C102.05 35.6826 101.942 35.9787 101.711 36.1361L93.9916 41.3942C93.8863 41.4662 93.7676 41.5 93.6506 41.5Z" fill="#0C2718"/>
<path d="M58.5002 52.5865L44.1858 38.2721C43.4477 37.5339 42.4491 37.1127 41.4065 37.0996L41.4065 37.0996H41.4002C40.2598 37.0996 39.1661 37.5526 38.3597 38.3591C37.5533 39.1655 37.1002 40.2592 37.1002 41.3996V41.4089L37.1006 41.4181C37.1377 42.4208 37.5579 43.3709 38.2745 44.073L52.6988 58.4973L38.2763 72.7345C38.2762 72.7346 38.2761 72.7347 38.2759 72.7348C37.8946 73.1085 37.5936 73.5562 37.3915 74.0503C37.1898 74.5432 37.0908 75.072 37.1002 75.6043C37.1015 76.7431 37.5544 77.8349 38.3597 78.6402C39.1661 79.4466 40.2598 79.8996 41.4002 79.8996L41.4062 79.8996C41.9338 79.8933 42.4549 79.7826 42.9394 79.5738C43.4227 79.3657 43.8601 79.0641 44.2265 78.6864L58.4979 64.415L72.6224 78.7249L72.624 78.7264C73.0149 79.119 73.4832 79.426 73.9992 79.6279C74.5119 79.8285 75.0605 79.921 75.6105 79.8996C76.7472 79.8969 77.8368 79.4441 78.6408 78.6402C79.4472 77.8338 79.9002 76.74 79.9002 75.5996V75.5903L79.8999 75.5811C79.8627 74.5784 79.4425 73.6283 78.7259 72.9262C78.7252 72.9255 78.7246 72.9249 78.7239 72.9242L64.3016 58.5019L78.7241 44.2648C78.7243 44.2646 78.7246 44.2644 78.7248 44.2642C79.106 43.8905 79.4069 43.4429 79.609 42.9489C79.8106 42.456 79.9097 41.9273 79.9002 41.3949C79.899 40.2562 79.4461 39.1644 78.6408 38.3591C77.8344 37.5526 76.7407 37.0996 75.6002 37.0996L75.5945 37.0996C75.0565 37.1058 74.5253 37.2205 74.0327 37.437C73.5425 37.6523 73.1007 37.964 72.7334 38.3534L58.5002 52.5865Z" fill="#E65907" stroke="black"/>
</svg>
