<svg width="424" height="163" viewBox="0 0 424 163" fill="none" xmlns="http://www.w3.org/2000/svg">
<g clip-path="url(#clip0_4064_7218)">
<path d="M319.121 36.2855L304.851 25.2285L309.799 41.6287L319.121 36.2855Z" fill="#57CD8C"/>
<path d="M309.798 42.864C309.264 42.864 308.769 42.518 308.608 41.9841L303.66 25.584C303.504 25.0699 303.701 24.5147 304.149 24.2115C304.597 23.9084 305.189 23.9265 305.616 24.2576L319.888 35.3147C320.429 35.7332 320.525 36.5092 320.104 37.0463C319.682 37.5834 318.901 37.6806 318.36 37.2605L307.162 28.5842L310.991 41.2757C311.188 41.9281 310.815 42.6168 310.158 42.8129C310.039 42.8475 309.919 42.8656 309.8 42.8656L309.798 42.864Z" fill="#0C2718"/>
<path d="M346.725 28.8779L336.157 14.2852L336.267 31.4053L346.725 28.8779Z" fill="#57CD8C"/>
<path d="M336.267 32.6382C335.584 32.6382 335.028 32.0912 335.025 31.4124L334.915 14.2922C334.912 13.7551 335.258 13.2773 335.773 13.1109C336.285 12.9461 336.851 13.1274 337.166 13.564L347.734 28.1584C348.134 28.712 348.008 29.4831 347.45 29.8818C346.893 30.2805 346.118 30.1537 345.715 29.6001L337.422 18.1493L337.506 31.3976C337.51 32.0797 336.957 32.6349 336.272 32.6399H336.264L336.267 32.6382Z" fill="#0C2718"/>
<path d="M423.184 77.7013C427.162 73.6333 434.17 68.6131 439.595 73.1325L437.86 74.8987C433.797 70.6413 426.986 74.9036 423.184 77.7013Z" fill="#0C2718"/>
<path d="M423.009 94.1208C423.009 94.1208 436.417 95.2247 438.723 81.7638C441.197 67.3259 410.683 15.8566 387.912 10.9106C371.357 7.3155 353.134 32.4463 353.134 32.4463" fill="#57CD8C"/>
<g opacity="0.6">
<path d="M433.799 82.5623C435.267 81.2937 424.603 38.0014 386.893 17.0127C379.706 13.0123 378.134 19.8103 379.92 20.8384C428.485 48.7536 432.331 83.8326 433.799 82.564V82.5623Z" fill="white"/>
</g>
<path d="M424.042 96.2172C423.616 96.2172 423.215 96.2007 422.838 96.1694C421.698 96.0755 420.851 95.082 420.945 93.9501C421.04 92.8198 422.048 91.9795 423.173 92.0702C423.641 92.1048 434.73 92.8083 436.681 81.4184C437.785 74.9665 431.214 59.1924 421.055 43.9109C409.525 26.5683 396.969 14.984 387.468 12.9196C372.433 9.65405 354.989 33.4091 354.815 33.648C354.146 34.569 352.849 34.7783 351.925 34.1143C350.997 33.4503 350.787 32.1652 351.455 31.2442C352.232 30.1732 370.678 5.06055 388.356 8.9011C403.536 12.1979 418.699 32.8967 424.515 41.6438C433.691 55.4457 442.275 73.3106 440.768 82.1088C438.839 93.3652 429.593 96.2172 424.046 96.2172H424.042Z" fill="#0C2718"/>
<path d="M414.029 65.2992C418.548 59.9478 426.713 54.5602 433.524 59.2624L432.021 61.228C426.375 56.4681 418.624 61.1341 414.029 65.2992Z" fill="#0C2718"/>
<path d="M400.239 51.4008C406.522 46.3427 418.014 38.4721 425.642 44.962L423.89 46.7134C417.942 40.6733 405.966 47.557 400.239 51.4008Z" fill="#0C2718"/>
<path d="M391.372 39.6498C396.865 34.7185 406.046 27.1412 413.981 29.2172L413.143 31.5403C406.384 29.1727 396.716 35.7186 391.374 39.6498H391.372Z" fill="#0C2718"/>
<path d="M378.865 28.9072C384.402 22.9775 393.057 15.1646 401.9 17.0857L401.18 19.4484C393.451 17.0857 384.383 24.0155 378.865 28.9072Z" fill="#0C2718"/>
<path d="M272.123 131.912C265.473 136.066 258.437 138.907 251.081 140.681C248.1 141.401 245.25 139.145 245.187 136.104C245.069 130.538 245.704 125.245 247.411 120.353C248.256 117.919 250.676 116.387 253.259 116.583L266.904 117.613C269.844 120.93 271.671 125.592 272.125 131.911L272.123 131.912Z" fill="#57CD8C"/>
<g opacity="0.6">
<path d="M268.91 120.383L256.085 119.417C253.503 119.221 251.083 120.753 250.237 123.187C248.53 128.079 247.896 133.372 248.012 138.938C248.025 139.498 248.13 140.029 248.314 140.516C246.542 139.857 245.228 138.159 245.185 136.104C245.067 130.538 245.703 125.245 247.41 120.353C248.254 117.919 250.675 116.387 253.258 116.583L266.903 117.613C267.643 118.452 268.316 119.371 268.91 120.383Z" fill="white"/>
</g>
<path d="M274.32 143.414L260.718 155.275L277.866 153.507L274.32 143.414Z" fill="#57CD8C"/>
<path d="M440.276 138.243C436.851 149.418 431.09 159.956 423.151 169.076C379.12 219.682 300.989 205.44 277.088 154.618C270.993 141.658 268.423 126.321 270.845 109.077C267.233 95.0838 270.823 78.6211 284.138 68.9843C286.733 63.7811 289.772 59.0608 293.18 54.8215V54.8182C330.782 8.00504 413.131 19.4707 438.232 83.1075C440.68 89.3189 442.336 95.7182 443.224 102.172C444.891 114.3 443.849 126.616 440.277 138.243H440.276Z" fill="#57CD8C"/>
<g opacity="0.6">
<path d="M272.119 115.493C271.93 116.839 271.783 118.171 271.655 119.494C271.71 117.953 271.817 116.39 271.955 114.814C272.01 115.04 272.061 115.269 272.121 115.493H272.119Z" fill="white"/>
</g>
<g opacity="0.6">
<path d="M285.794 69.8085C288.389 64.6054 291.428 59.885 294.836 55.6457V55.6424C332.438 8.82926 414.789 20.2949 439.887 83.9317C442.336 90.1431 443.992 96.5424 444.879 102.996C445.007 103.922 445.113 104.848 445.208 105.776C444.244 100.33 442.731 94.9376 440.639 89.6802C424.026 47.9284 382.644 28.5905 345.458 33.418C345.818 33.7755 346.082 34.1775 346.211 34.6323C347.137 37.8748 341.461 42.3101 333.538 44.5393C325.615 46.7685 318.441 45.948 317.516 42.7055C317.479 42.5753 317.469 42.4402 317.453 42.3068C308.839 46.9299 301.034 53.232 294.554 61.2492V61.2525C291.126 65.4885 288.07 70.2072 285.462 75.4087C277.036 81.4603 272.489 90.2156 271.18 99.3631C271.217 88.2879 275.721 77.0975 285.791 69.8101L285.794 69.8085Z" fill="white"/>
</g>
<path d="M409.722 184.269C409.722 184.269 409.588 184.725 409.329 185.554C360.2 218.775 293.467 196.924 275.057 146.148C277.57 133.638 289.543 124.382 306.409 124.652C318.715 125.357 326.628 126.479 338.5 132.126C356.918 140.884 372.591 160.759 395.466 177.094C395.466 177.094 400.078 182.793 404.684 180.456L409.722 184.267V184.269Z" fill="#89DCAE"/>
<g opacity="0.3">
<path d="M273.257 131.153C296.773 181.619 373.641 195.76 416.96 145.51C424.771 136.453 430.438 125.989 433.807 114.893C437.269 103.518 438.31 91.4803 436.772 79.6094C437.017 80.2009 437.266 80.7874 437.5 81.3871C439.909 87.5541 441.538 93.9089 442.412 100.318C444.053 112.362 443.028 124.59 439.514 136.135C436.145 147.232 430.476 157.696 422.667 166.752C379.348 217.003 302.48 202.861 278.964 152.395C275.716 145.424 273.496 137.755 272.512 129.474C272.758 130.036 273 130.601 273.257 131.153Z" fill="#0C2718"/>
</g>
<path d="M356.233 203.49C342.33 203.49 328.954 200.47 317.489 195.308C283.338 179.934 265.319 147.277 270.392 110.013C266.392 93.9016 271.77 77.6843 284.163 68.4478C291.467 54.0264 302.656 42.4356 316.546 34.9044C329.676 27.7868 344.897 24.3845 360.587 25.0584C377.65 25.7932 394.112 31.2402 408.199 40.8094C423.305 51.0723 434.93 65.7244 441.816 83.1823C453.587 113.027 447.671 146.77 426.376 171.246C406.317 194.301 380.477 203.49 356.234 203.49H356.233ZM356.521 29.0851C326.313 29.0851 300.758 44.4473 287.65 70.7215C287.503 71.0181 287.284 71.2751 287.015 71.4712C275.604 79.7289 270.695 94.6117 274.506 109.389C274.572 109.648 274.587 109.918 274.551 110.183C268.585 152.676 293.704 180.082 319.201 191.561C349.253 205.09 393.079 203.223 423.242 168.556C443.528 145.239 449.169 113.101 437.959 84.6816C425.047 51.9439 395.332 30.6734 360.408 29.1691C359.106 29.1131 357.809 29.0851 356.521 29.0851Z" fill="#0C2718"/>
<path d="M274.422 109.136C275.05 111.889 277.4 114.558 279.653 116.415C279.961 116.652 280.016 117.097 279.769 117.399C279.568 117.644 279.231 117.717 278.952 117.596C275.576 116.044 272.552 114.074 270.576 110.663C268.99 107.782 273.581 105.959 274.422 109.134V109.136Z" fill="#0C2718"/>
<path d="M389.193 152.884C388.266 187.011 404.103 183.113 414.212 168.967C415.941 166.546 416.125 163.348 414.732 160.725C413.504 158.415 411.39 155.377 407.754 151.84L389.195 152.886L389.193 152.884Z" fill="#57CD8C"/>
<g opacity="0.3">
<path d="M415.553 163.267C415.848 165.241 415.41 167.289 414.213 168.965C404.537 182.503 389.62 186.65 389.167 157.072C395.851 177.649 407.842 174.308 415.553 163.267Z" fill="#0C2718"/>
</g>
<path d="M389.93 152.905C390.391 159.978 391.159 181.426 402.608 177.052C406.845 175.344 410.433 171.472 413.048 167.71C414.718 165.01 413.984 161.715 412.262 159.205C410.87 156.795 409.111 154.541 407.238 152.363C406.649 151.702 407.591 150.745 408.268 151.318C412.542 155.1 418.828 160.726 416.981 167.076C416.65 168.285 415.933 169.496 415.171 170.452C414.05 171.966 412.821 173.431 411.487 174.778C405.451 181.151 395.798 184.536 390.821 174.963C387.574 168.064 387.881 160.084 388.455 152.867C388.543 151.972 389.893 152.005 389.928 152.907L389.93 152.905Z" fill="#0C2718"/>
<path d="M395.723 155.484C396.959 157.98 397.533 160.695 397.986 163.417C398.124 164.325 398.236 165.239 398.266 166.174C398.28 166.59 397.949 166.94 397.528 166.951C397.215 166.961 396.939 166.78 396.815 166.513C396.047 164.824 395.519 163.066 395.068 161.28C394.622 159.488 394.27 157.688 394.271 155.823C394.276 155.402 394.625 155.065 395.05 155.07C395.343 155.074 395.595 155.242 395.723 155.484Z" fill="#0C2718"/>
<path d="M399.995 153.167C401.538 155.888 402.611 158.771 403.472 161.748C403.75 162.74 403.99 163.745 404.136 164.783C404.194 165.197 403.904 165.579 403.487 165.636C403.177 165.679 402.884 165.529 402.731 165.277C402.187 164.379 401.737 163.448 401.324 162.504C400.108 159.652 399.114 156.741 398.59 153.662C398.449 152.851 399.597 152.456 399.995 153.167Z" fill="#0C2718"/>
<path d="M404.451 152.826C406.394 155.282 407.894 158.045 408.607 161.089C408.687 161.505 408.413 161.909 407.992 161.988C407.718 162.041 407.448 161.94 407.273 161.749C406.217 160.573 405.452 159.23 404.755 157.836C404.085 156.447 403.476 155.029 403.116 153.486C403.02 153.076 403.277 152.668 403.69 152.572C403.98 152.506 404.271 152.613 404.45 152.824L404.451 152.826Z" fill="#0C2718"/>
<path d="M249.96 142.461C248.569 142.461 247.206 142.007 246.071 141.14C244.497 139.937 243.571 138.113 243.528 136.136C243.398 129.991 244.155 124.649 245.844 119.812C246.93 116.691 250.041 114.688 253.384 114.942L271.113 116.225C272.026 116.291 272.713 117.078 272.646 117.986C272.58 118.892 271.794 119.573 270.873 119.507L253.138 118.224C251.27 118.087 249.572 119.181 248.976 120.888C247.42 125.353 246.721 130.317 246.844 136.067C246.864 137.042 247.32 137.94 248.093 138.53C248.838 139.099 249.786 139.3 250.69 139.082C258.085 137.298 264.998 134.416 271.24 130.518C272.014 130.034 273.038 130.266 273.524 131.035C274.012 131.805 273.778 132.821 273.003 133.304C266.46 137.392 259.215 140.412 251.473 142.28C250.972 142.4 250.464 142.46 249.961 142.46L249.96 142.461Z" fill="#0C2718"/>
<path d="M269.216 121.088L256.85 123.779C256.355 123.889 256.138 123.158 256.621 122.988L268.527 118.716C270.188 118.182 270.914 120.655 269.217 121.087L269.216 121.088Z" fill="#0C2718"/>
<path d="M271.124 122.371L257.789 131.876C257.381 132.178 256.881 131.563 257.273 131.232L269.574 120.44C270.883 119.345 272.497 121.34 271.124 122.371Z" fill="#0C2718"/>
<path d="M260.716 156.921C260.063 156.921 259.466 156.539 259.199 155.935C258.91 155.279 259.082 154.513 259.625 154.04L273.227 142.179C273.915 141.579 274.962 141.647 275.564 142.329C276.167 143.011 276.1 144.052 275.412 144.652L265.717 153.107L277.693 151.873C278.605 151.778 279.418 152.437 279.511 153.34C279.606 154.244 278.944 155.053 278.035 155.147L260.887 156.915C260.829 156.921 260.773 156.923 260.716 156.923V156.921Z" fill="#0C2718"/>
<path d="M411.557 45.7949L411.561 45.8045L411.552 45.7987L411.557 45.7949Z" fill="white"/>
<path d="M364.473 46.9199L359.46 29.6465L353.768 45.8078L364.473 46.9199Z" fill="#57CD8C"/>
<path d="M364.473 48.1543C363.934 48.1543 363.436 47.8017 363.28 47.2613L359.345 33.7081L354.94 46.2134C354.713 46.8576 354.01 47.197 353.358 46.9713C352.709 46.7456 352.369 46.0421 352.595 45.3995L358.287 29.2382C358.464 28.7307 358.92 28.3897 359.494 28.4111C360.035 28.4259 360.505 28.7868 360.654 29.3025L365.669 46.5742C365.86 47.2283 365.478 47.9137 364.82 48.1015C364.704 48.1345 364.589 48.151 364.475 48.151L364.473 48.1543Z" fill="#0C2718"/>
<path d="M397.633 62.6496L403.977 45.8145L389.705 55.4183L397.633 62.6496Z" fill="#57CD8C"/>
<path d="M397.633 63.8849C397.489 63.8849 397.341 63.8602 397.198 63.8058C396.555 63.5669 396.229 62.8552 396.47 62.2176L401.449 49.0071L390.405 56.4394C389.837 56.8217 389.063 56.675 388.678 56.1099C388.293 55.5464 388.442 54.7787 389.009 54.3964L403.282 44.7926C403.728 44.4911 404.322 44.5125 404.748 44.8436C405.173 45.1765 405.334 45.7432 405.143 46.2458L398.799 63.0809C398.612 63.5768 398.139 63.8833 397.634 63.8833L397.633 63.8849Z" fill="#0C2718"/>
<path d="M421.197 86.363L436.511 76.7806L419.297 75.8398L421.197 86.363Z" fill="#57CD8C"/>
<path d="M421.199 87.5965C420.785 87.5965 420.382 87.3922 420.147 87.0199C419.782 86.4432 419.954 85.6804 420.537 85.3179L432.551 77.7983L419.231 77.0717C418.546 77.0338 418.02 76.4522 418.058 75.7717C418.095 75.0913 418.675 74.5558 419.367 74.6069L436.579 75.546C437.12 75.5757 437.578 75.948 437.714 76.4687C437.85 76.9893 437.631 77.5363 437.173 77.823L421.859 87.4054C421.653 87.5339 421.424 87.5949 421.197 87.5949L421.199 87.5965Z" fill="#0C2718"/>
<g opacity="0.25">
<path d="M427.201 106.078C429.388 105.808 430.8 102.708 430.355 99.1548C429.909 95.6016 427.774 92.9406 425.587 93.2112C423.399 93.4818 421.987 96.5816 422.433 100.135C422.878 103.688 425.013 106.349 427.201 106.078Z" fill="#0C2718"/>
</g>
<g opacity="0.25">
<path d="M419.532 115.904C421.143 115.705 422.183 113.422 421.855 110.805C421.527 108.189 419.955 106.229 418.343 106.428C416.732 106.628 415.692 108.91 416.021 111.527C416.349 114.144 417.921 116.104 419.532 115.904Z" fill="#0C2718"/>
</g>
<g opacity="0.25">
<path d="M414.731 98.3411C416.815 97.8068 417.792 94.6288 416.912 91.2428C416.033 87.8568 413.629 85.5451 411.544 86.0794C409.46 86.6137 408.483 89.7918 409.363 93.1777C410.242 96.5637 412.646 98.8755 414.731 98.3411Z" fill="#0C2718"/>
</g>
<path d="M319.936 69.4767C317.57 91.6352 285.29 65.9146 308.424 53.2891C313.576 58.2879 317.177 63.7546 319.936 69.4767Z" fill="white"/>
<g opacity="0.6">
<path d="M372.438 96.599C372.489 103.305 370.064 107.674 364.41 109.007L364.423 108.966C362.265 114.663 361.273 121.311 361.354 128.841C354.571 109.655 364.302 86.8024 391.427 86.9243C383.442 88.7927 377.154 92.0516 372.44 96.6006L372.438 96.599Z" fill="white"/>
</g>
<path d="M392.911 87.2727C400.99 84.1768 401.415 68.1062 393.596 66.5723L363.121 79.3346C357.799 85.0731 359.093 97.4911 365.642 97.4433C365.642 97.4433 375.342 83.8951 392.911 87.2727Z" fill="white"/>
<path d="M271.848 87.2552C273.084 80.7818 276.771 74.3463 282.914 71.2884C292.02 66.5614 304.209 69.6737 310.149 77.9282C316.339 86.4677 314.284 98.0025 307.102 105.239C306.687 105.695 305.917 105.178 306.184 104.629C309.506 96.8294 312.98 87.3673 307.458 79.846C300.638 70.3311 284.664 69.5007 278.25 79.8559C276.683 82.2548 275.692 85.0392 275.095 87.9209C274.609 90.0281 271.455 89.3905 271.85 87.2536L271.848 87.2552Z" fill="#0C2718"/>
<path d="M359.123 114.165C358.613 114.165 358.124 113.933 357.805 113.518C348.706 101.675 326.787 94.9541 311.817 99.4191C310.941 99.681 310.017 99.1868 309.753 98.3168C309.489 97.4469 309.987 96.5292 310.863 96.2672C326.105 91.7198 347.193 97.554 358.127 108.852C360.733 98.2674 368.668 89.6224 379.1 86.3174C389.042 83.1655 399.164 85.7737 406.17 93.29C406.792 93.9573 406.75 94.9986 406.079 95.6148C405.407 96.231 404.36 96.1914 403.738 95.5241C397.536 88.8711 388.925 86.6601 380.107 89.4511C369.78 92.7232 362.187 101.859 360.763 112.73C360.677 113.391 360.198 113.934 359.549 114.107C359.408 114.145 359.264 114.163 359.121 114.163L359.123 114.165Z" fill="#0C2718"/>
<path d="M360.75 112.83C359.522 118.441 359.768 124.776 362.626 129.907C362.943 130.499 362.069 131.032 361.684 130.474C357.916 125.22 356.888 118.557 357.495 112.209C357.843 109.895 361.286 110.543 360.75 112.83Z" fill="#0C2718"/>
<path d="M406.436 124.961C404.284 131.362 398.565 136.028 392.225 138.01C391.933 138.119 391.609 137.972 391.5 137.682C391.389 137.39 391.543 137.076 391.825 136.96C394.579 135.7 397.157 133.98 399.171 131.731C401.08 129.592 402.612 126.992 403.209 124.206C403.673 121.951 407.033 122.725 406.436 124.961Z" fill="#0C2718"/>
<path d="M294.401 55.4826C305.813 45.2115 317.65 55.0938 320.512 67.4953C321.389 69.8167 324.173 70.8481 326.547 69.6487C327.073 69.3538 327.637 70.0803 327.229 70.512C323.981 74.0544 318.121 71.8268 317.013 67.4063C315.866 64.2923 314.621 61.1718 312.472 58.7581C307.812 53.5006 300.972 53.1595 295.043 56.3756C294.499 56.6837 293.93 55.8929 294.401 55.4826Z" fill="#0C2718"/>
<path d="M312.719 79.812C307.203 79.812 300.98 74.8165 299.066 68.666C298.093 65.5438 296.982 57.6551 307.626 51.8457L309.222 54.7306C303.145 58.0473 300.663 62.6523 302.233 67.6956C303.765 72.6186 309.114 76.8941 313.247 76.4987C316.815 76.1527 317.958 72.3962 318.288 69.3036L321.585 69.6513C320.674 78.176 315.675 79.5698 313.568 79.7741C313.288 79.8021 313.006 79.8153 312.721 79.8153L312.719 79.812Z" fill="#0C2718"/>
<path d="M354.469 74.292C356.085 80.5315 362.101 78.3484 366.303 76.1983C369.866 74.587 373.388 72.7614 376.975 70.9968C382.46 68.4464 388.062 65.2962 394.341 64.8167C402.344 64.2104 406.211 70.0577 406.518 77.2725C406.555 77.9233 405.613 78.0848 405.432 77.462C402.879 67.9916 398.15 66.4528 389.205 69.3987C381.748 71.791 374.886 75.9693 367.67 79.1953C364.612 81.2268 357.844 82.6799 354.781 78.7356C353.764 77.4291 353.428 75.8704 353.374 74.4436C353.363 74.1388 353.603 73.8834 353.909 73.8719C354.176 73.862 354.406 74.0432 354.468 74.2904L354.469 74.292Z" fill="#0C2718"/>
<path d="M365.606 99.089C362.889 99.089 360.593 97.4332 359.3 94.5367C357.343 90.1492 357.782 82.6641 361.901 78.2206C362.52 77.5516 363.57 77.5088 364.242 78.125C364.916 78.7412 364.959 79.7808 364.34 80.4498C361.23 83.8043 360.792 89.7521 362.331 93.2054C362.862 94.3967 363.881 95.7823 365.633 95.7988C366.552 95.7922 367.295 96.5237 367.302 97.4315C367.308 98.341 366.572 99.0824 365.657 99.089H365.608H365.606Z" fill="#0C2718"/>
<path d="M392.911 88.9187C392.246 88.9187 391.619 88.5183 391.365 87.8658C391.036 87.0173 391.461 86.065 392.316 85.7388C396.191 84.2527 397.886 78.9243 397.515 74.662C397.397 73.3159 396.743 68.8674 393.276 68.1869C392.379 68.0106 391.795 67.1457 391.972 66.2543C392.15 65.363 393.019 64.783 393.918 64.9593C397.73 65.7073 400.373 69.3172 400.816 74.3786C401.306 79.9706 398.951 86.7241 393.508 88.8099C393.313 88.8857 393.112 88.9203 392.913 88.9203L392.911 88.9187Z" fill="#0C2718"/>
<g opacity="0.3">
<path d="M293.755 70.7402C303.743 75.0767 309.159 100.819 288.694 112.368C288.694 112.368 308.539 111.489 310.78 96.9486C313.021 82.4085 308.696 72.4982 293.755 70.7402Z" fill="#0C2718"/>
</g>
<g opacity="0.3">
<path d="M312.792 78.6445C312.792 78.6445 322.962 83.3105 320.356 95.4616L312.572 97.5046C312.572 97.5046 313.551 81.5328 309.634 79.3827" fill="#0C2718"/>
</g>
<g opacity="0.3">
<path d="M384.911 86.2402C402.258 87.6423 401.772 138.51 365.603 131.88C366.983 133.457 372.607 139.51 381.504 140.176C391.143 140.898 400.715 135.004 405.48 125.272C406.793 122.53 409.012 116.956 408.794 109.639C408.7 106.438 408.157 103.591 407.449 101.167C405.704 95.2065 401.156 90.4185 395.24 88.4085C392.553 87.4941 389.155 86.6933 384.913 86.2419L384.911 86.2402Z" fill="#0C2718"/>
</g>
</g>
<path d="M56.8315 96.1683L57.4483 111.936L13.0104 80.3691L56.8315 96.1683Z" fill="#57CD8C" stroke="#13232C" stroke-linecap="round" stroke-linejoin="round"/>
<path d="M56.8318 96.1671L12 79.857L72.4982 83.7452L56.8318 96.1671Z" fill="#57CD8C" stroke="#13232C" stroke-linecap="round" stroke-linejoin="round"/>
<path d="M51.7738 99.6377L31.6008 115.819L12.0002 79.8572L51.7738 99.6377Z" fill="#57CD8C" stroke="#13232C" stroke-linecap="round" stroke-linejoin="round"/>
<path d="M51.7734 99.6384L57.4485 111.936L46.0776 104.205L51.7734 99.6384Z" fill="#57CD8C" stroke="#13232C" stroke-linecap="round" stroke-linejoin="round"/>
<path d="M57.0821 111.37C79.0609 130.724 85.991 145.999 112.55 161.691C117.918 164.866 143.93 179.534 167.207 176.633C179.305 175.129 181.909 165.387 176.885 162.486C165.671 156.009 151.933 179.539 179.083 179.13C204.197 178.758 232.51 134.577 254.894 129.558" stroke="#13232C" stroke-linecap="round" stroke-linejoin="round"/>
<defs>
<clipPath id="clip0_4064_7218">
<rect width="252" height="216" fill="white" transform="translate(233 8.5)"/>
</clipPath>
</defs>
</svg>
