<svg width="114" height="122" viewBox="0 0 114 122" fill="none" xmlns="http://www.w3.org/2000/svg">
<path d="M100.731 87.7216L109.635 88.3001L102.788 81.5715L100.731 87.7216Z" fill="#57CD8C"/>
<path d="M110.494 88.9978C110.312 89.1188 110.091 89.1764 109.865 89.1527L100.992 88.1997C100.471 88.1435 100.098 87.6757 100.158 87.1543C100.219 86.6329 100.69 86.2562 101.21 86.3116L107.527 86.9902L102.717 81.8498C102.361 81.4684 102.383 80.868 102.767 80.5077C103.155 80.1462 103.752 80.1654 104.109 80.5459L110.669 87.557C110.939 87.8456 110.999 88.2751 110.819 88.6313C110.743 88.7836 110.63 88.9088 110.494 88.9991L110.494 88.9978Z" fill="#0C2718"/>
<path d="M36.3797 15.831L28.1802 9.46875L31.0236 18.9055L36.3797 15.831Z" fill="#57CD8C"/>
<path d="M13.0017 44.2089L2.63818 44.1104L10.5837 49.9066L13.0017 44.2089Z" fill="#57CD8C"/>
<path d="M31.023 19.6155C30.7161 19.6155 30.432 19.4164 30.3396 19.1092L27.4961 9.67246C27.4065 9.37667 27.52 9.05718 27.7773 8.88274C28.0347 8.7083 28.375 8.71873 28.62 8.90929L36.8205 15.2716C37.1312 15.5124 37.1865 15.9589 36.9444 16.268C36.7023 16.577 36.2533 16.633 35.9426 16.3912L29.5084 11.3988L31.7084 18.7016C31.8218 19.077 31.6073 19.4733 31.2299 19.5861C31.1612 19.606 31.0926 19.6165 31.024 19.6165L31.023 19.6155Z" fill="#0C2718"/>
<path d="M11.0105 50.4736C10.7659 50.6597 10.4197 50.6733 10.1612 50.4845L2.21566 44.6882C1.96623 44.5069 1.86434 44.1835 1.96446 43.8884C2.06457 43.5933 2.34203 43.3953 2.65195 43.3986L13.0162 43.4967C13.4088 43.5001 13.7216 43.8225 13.7146 44.2156C13.7077 44.6087 13.3836 44.9255 12.9904 44.9212L4.85826 44.844L11.0066 49.3297C11.323 49.5601 11.3906 50.006 11.1577 50.3247C11.1149 50.3822 11.0665 50.4321 11.0118 50.4738L11.0105 50.4736Z" fill="#0C2718"/>
<path d="M52.2404 11.5677L46.1685 3.1709L46.2314 13.022L52.2404 11.5677Z" fill="#57CD8C"/>
<path d="M46.231 13.7317C45.8383 13.7317 45.5189 13.417 45.517 13.0264L45.4541 3.17528C45.4522 2.86622 45.6514 2.59129 45.9469 2.49553C46.2415 2.40073 46.5665 2.50502 46.7476 2.75625L52.8196 11.154C53.0493 11.4725 52.9769 11.9162 52.6566 12.1456C52.3363 12.3751 51.8912 12.3021 51.6595 11.9835L46.8944 5.39464L46.943 13.0178C46.9449 13.4103 46.6275 13.7298 46.2338 13.7327H46.2291L46.231 13.7317Z" fill="#0C2718"/>
<path d="M96.1719 39.6607C98.4577 37.3199 102.484 34.4313 105.601 37.0317L104.604 38.048C102.27 35.5983 98.3566 38.0509 96.1719 39.6607Z" fill="#0C2718"/>
<path d="M85.1118 103.017L91.9845 108.731L90.3716 99.249L85.1118 103.017Z" fill="#57CD8C"/>
<path d="M63.8711 110.496L67.1501 117.89L69.1233 109.593L63.8711 110.496Z" fill="#57CD8C"/>
<path d="M36.2871 106.412L37.0973 116.516L42.238 108.613L36.2871 106.412Z" fill="#57CD8C"/>
<path d="M19.2353 93.8135L13.332 104.839L24.1281 98.7537L19.2353 93.8135Z" fill="#57CD8C"/>
<path d="M10.6381 77.4736L2.82275 84.2986L12.6752 83.2813L10.6381 77.4736Z" fill="#57CD8C"/>
<path d="M105.992 74.4974C104.025 80.928 100.714 86.9916 96.153 92.239C70.8538 121.358 25.9612 113.163 12.2283 83.92C8.7262 76.4627 7.24967 67.6374 8.64136 57.7152C6.56622 49.6635 8.62897 40.1907 16.2795 34.6456C17.7703 31.6517 19.5166 28.9355 21.4745 26.4962V26.4943C43.08 -0.442314 90.3956 6.15509 104.818 42.7722C106.225 46.3463 107.176 50.0285 107.686 53.742C108.644 60.7205 108.045 67.8071 105.993 74.4974H105.992Z" fill="#57CD8C"/>
<g opacity="0.6">
<path d="M9.37335 61.4072C9.26468 62.1817 9.17984 62.9478 9.10645 63.709C9.1379 62.8226 9.19987 61.9229 9.27898 61.0166C9.31044 61.1465 9.33999 61.2783 9.3743 61.4072H9.37335Z" fill="white"/>
</g>
<g opacity="0.6">
<path d="M17.2308 35.1202C18.7217 32.1263 20.468 29.4102 22.4259 26.9708V26.969C44.0314 0.0322943 91.348 6.6297 105.769 43.2468C107.176 46.8209 108.127 50.5031 108.637 54.2166C108.711 54.7494 108.772 55.2822 108.826 55.8159C108.272 52.6826 107.403 49.5797 106.201 46.5545C96.6554 22.5302 72.8785 11.4031 51.5122 14.1808C51.7191 14.3866 51.8706 14.6179 51.945 14.8795C52.4769 16.7453 49.2159 19.2974 44.6634 20.5801C40.1108 21.8628 35.9891 21.3907 35.4572 19.5249C35.4363 19.45 35.4305 19.3723 35.421 19.2955C30.4719 21.9557 25.9871 25.582 22.2638 30.1951V30.197C20.2945 32.6344 18.5386 35.3496 17.0402 38.3426C12.1988 41.8247 9.58607 46.8626 8.83398 52.1261C8.85496 45.7534 11.4429 39.3143 17.2289 35.1211L17.2308 35.1202Z" fill="white"/>
</g>
<g opacity="0.3">
<path d="M10.0271 70.4173C23.5389 99.4557 67.7051 107.593 92.5954 78.6785C97.0831 73.4671 100.339 67.4461 102.275 61.0611C104.265 54.5158 104.862 47.5894 103.979 40.7588C104.12 41.0991 104.263 41.4366 104.397 41.7817C105.781 45.3302 106.717 48.9868 107.22 52.6747C108.162 59.6049 107.573 66.6412 105.554 73.2841C103.618 79.6692 100.361 85.6902 95.8745 90.9016C70.9842 119.816 26.818 111.679 13.3062 82.6404C11.4398 78.6292 10.1644 74.2161 9.59912 69.4512C9.7402 69.7745 9.87936 70.0997 10.0271 70.4173Z" fill="#0C2718"/>
</g>
<path d="M57.7033 112.041C49.7154 112.041 42.0296 110.304 35.442 107.333C15.8201 98.4872 5.46627 79.6961 8.38119 58.2542C6.083 48.9834 9.17331 39.6518 16.2938 34.3371C20.4908 26.0389 26.9193 19.3694 34.9005 15.0359C42.4443 10.9404 51.19 8.98271 60.2055 9.37046C70.0093 9.79329 79.468 12.9275 87.5618 18.4337C96.2417 24.3391 102.921 32.77 106.878 42.8154C113.641 59.9882 110.242 79.4041 98.0061 93.4882C86.4808 106.754 71.6336 112.041 57.7043 112.041H57.7033ZM57.8692 11.6875C40.5121 11.6875 25.8288 20.527 18.2975 35.6454C18.2126 35.816 18.0868 35.9639 17.9324 36.0767C11.3762 40.8283 8.55562 49.392 10.7452 57.8949C10.7833 58.0438 10.7919 58.1993 10.7709 58.3519C7.34314 82.8028 21.7757 98.5725 36.4257 105.177C53.6931 112.962 78.8742 111.888 96.2055 91.94C107.861 78.5233 111.102 60.0309 104.661 43.6781C97.2426 24.8406 80.1686 12.6014 60.1026 11.7358C59.3543 11.7036 58.6089 11.6875 57.8692 11.6875Z" fill="#0C2718"/>
<path d="M91.9845 109.677C91.7662 109.677 91.5499 109.602 91.3745 109.457L84.5018 103.743C84.0986 103.408 84.0443 102.811 84.3817 102.41C84.7191 102.008 85.3187 101.955 85.7219 102.29L90.6148 106.358L89.4328 99.4061C89.3451 98.8904 89.694 98.4021 90.2125 98.3149C90.7349 98.2286 91.2219 98.5756 91.3096 99.0904L92.9225 108.573C92.9892 108.963 92.8033 109.355 92.4573 109.552C92.3096 109.636 92.1466 109.678 91.9836 109.678L91.9845 109.677Z" fill="#0C2718"/>
<path d="M67.1493 118.599C66.869 118.599 66.6117 118.435 66.4963 118.176L63.2182 110.782C63.059 110.423 63.222 110.004 63.5833 109.845C63.9455 109.686 64.3659 109.85 64.5251 110.208L66.9453 115.666L68.4295 109.429C68.52 109.047 68.9032 108.809 69.2893 108.902C69.6725 108.992 69.9107 109.375 69.8192 109.756L67.8451 118.052C67.7746 118.349 67.5211 118.568 67.2151 118.596C67.1931 118.598 67.1712 118.599 67.1493 118.599V118.599Z" fill="#0C2718"/>
<path d="M37.0976 117.463C37.0203 117.463 36.9422 117.453 36.865 117.434C36.4694 117.335 36.1815 116.996 36.1481 116.592L35.3379 106.488C35.2969 105.967 35.6877 105.511 36.2111 105.469C36.7363 105.425 37.1938 105.816 37.2358 106.338L37.8229 113.657L41.4385 108.099C41.7244 107.66 42.3145 107.534 42.7549 107.819C43.1962 108.103 43.323 108.689 43.038 109.128L37.8973 117.031C37.719 117.305 37.4159 117.463 37.0976 117.463Z" fill="#0C2718"/>
<path d="M13.3333 105.785C13.0902 105.785 12.8509 105.693 12.6689 105.516C12.3658 105.222 12.2933 104.764 12.4925 104.393L18.3958 93.368C18.6436 92.9063 19.2203 92.7319 19.6836 92.9774C20.1478 93.223 20.3232 93.7965 20.0763 94.2582L15.7115 102.409L23.6594 97.9291C24.117 97.6712 24.6984 97.8314 24.9577 98.2865C25.217 98.7415 25.0559 99.3189 24.5993 99.5768L13.8032 105.661C13.6564 105.744 13.4944 105.785 13.3342 105.785H13.3333Z" fill="#0C2718"/>
<path d="M2.82184 85.2449C2.44628 85.2449 2.10313 85.0249 1.94966 84.677C1.7838 84.2997 1.88293 83.8588 2.19463 83.5868L10.01 76.7618C10.4056 76.4167 11.0071 76.4556 11.3531 76.8481C11.6991 77.2406 11.661 77.8397 11.2654 78.1848L5.69483 83.0502L12.5761 82.3401C13.1004 82.2851 13.5674 82.6643 13.6208 83.1838C13.6751 83.7043 13.2948 84.1698 12.7724 84.2238L2.92003 85.2411C2.88667 85.2449 2.85425 85.2458 2.82184 85.2458V85.2449Z" fill="#0C2718"/>
<path d="M89.4921 21.3018L89.4949 21.3089L89.4878 21.3046L89.4921 21.3018Z" fill="white"/>
<path d="M62.4377 21.95L59.5571 12.0107L56.2866 21.3101L62.4377 21.95Z" fill="#57CD8C"/>
<path d="M62.4378 22.6597C62.128 22.6597 61.8421 22.4569 61.7525 22.1459L59.4914 14.3473L56.9606 21.5429C56.8301 21.9136 56.4259 22.1089 56.0513 21.979C55.6786 21.8492 55.4832 21.4444 55.6128 21.0746L58.8833 11.7753C58.9853 11.4833 59.2474 11.2871 59.5772 11.2994C59.888 11.3079 60.1577 11.5155 60.2435 11.8123L63.1251 21.7506C63.2347 22.1269 63.0155 22.5213 62.637 22.6294C62.5703 22.6484 62.5045 22.6578 62.4388 22.6578L62.4378 22.6597Z" fill="#0C2718"/>
<path d="M81.4905 31.0006L85.1356 21.3135L76.9351 26.8396L81.4905 31.0006Z" fill="#57CD8C"/>
<path d="M81.4905 31.7117C81.4075 31.7117 81.3227 31.6975 81.2407 31.6662C80.8709 31.5287 80.684 31.1191 80.8223 30.7523L83.6828 23.1509L77.3373 27.4275C77.0113 27.6474 76.5661 27.5631 76.345 27.2379C76.1238 26.9136 76.2096 26.4719 76.5356 26.2519L84.7361 20.7258C84.9925 20.5523 85.3338 20.5646 85.5788 20.7552C85.8228 20.9467 85.9152 21.2728 85.8056 21.562L82.1605 31.249C82.0528 31.5344 81.7812 31.7107 81.4914 31.7107L81.4905 31.7117Z" fill="#0C2718"/>
<path d="M95.0299 44.646L103.829 39.1322L93.9385 38.5908L95.0299 44.646Z" fill="#57CD8C"/>
<path d="M95.0311 45.3562C94.7938 45.3562 94.5622 45.2386 94.4268 45.0244C94.2171 44.6925 94.3162 44.2536 94.6508 44.045L101.554 39.7182L93.9006 39.3001C93.507 39.2783 93.2048 38.9436 93.2267 38.5521C93.2477 38.1605 93.5813 37.8524 93.9788 37.8818L103.868 38.4222C104.179 38.4393 104.442 38.6535 104.52 38.9531C104.599 39.2527 104.473 39.5674 104.21 39.7324L95.4105 45.2462C95.2923 45.3201 95.1608 45.3552 95.0302 45.3552L95.0311 45.3562Z" fill="#0C2718"/>
<g opacity="0.25">
<path d="M98.4795 55.9891C99.7364 55.8334 100.548 54.0498 100.292 52.0053C100.036 49.9607 98.8091 48.4295 97.5522 48.5853C96.2953 48.741 95.4839 50.5246 95.74 52.5691C95.996 54.6136 97.2225 56.1448 98.4795 55.9891Z" fill="#0C2718"/>
</g>
<g opacity="0.25">
<path d="M94.0734 61.6435C94.9991 61.5288 95.5966 60.2152 95.4081 58.7095C95.2195 57.2038 94.3162 56.0761 93.3905 56.1908C92.4648 56.3055 91.8672 57.6191 92.0558 59.1248C92.2444 60.6305 93.1477 61.7582 94.0734 61.6435Z" fill="#0C2718"/>
</g>
<g opacity="0.25">
<path d="M91.3146 51.5379C92.5125 51.2304 93.0738 49.4017 92.5683 47.4534C92.0627 45.5051 90.6818 44.1749 89.4839 44.4824C88.286 44.7898 87.7248 46.6185 88.2303 48.5668C88.7358 50.5151 90.1167 51.8453 91.3146 51.5379Z" fill="#0C2718"/>
</g>
<path fill-rule="evenodd" clip-rule="evenodd" d="M87.7881 42.8787C88.9597 44.0503 88.9597 45.9497 87.7881 47.1213L53.8715 81.038C53.3089 81.6006 52.5458 81.9167 51.7502 81.9167C50.9545 81.9167 50.1915 81.6006 49.6288 81.038L34.2122 65.6213C33.0406 64.4497 33.0406 62.5503 34.2122 61.3787C35.3837 60.2071 37.2832 60.2071 38.4548 61.3787L51.7502 74.674L83.5455 42.8787C84.7171 41.7071 86.6166 41.7071 87.7881 42.8787Z" fill="white" stroke="black" stroke-width="2" stroke-linecap="round" stroke-linejoin="round"/>
<path d="M30.9648 34.0157C30.6344 34.2287 30.1963 34.1372 29.9843 33.8096L24.6259 25.556C24.4579 25.2971 24.4774 24.9577 24.6745 24.7168C24.8712 24.4772 25.2008 24.3886 25.4885 24.5017L35.1196 28.2722C35.4844 28.4155 35.6624 28.8281 35.5165 29.1949C35.3706 29.5617 34.9568 29.7418 34.5904 29.5995L27.033 26.6417L31.1794 33.0287C31.3924 33.3579 31.2974 33.7989 30.9678 34.0149L30.9637 34.0175L30.9648 34.0157Z" fill="#0C2718"/>
</svg>
