<svg width="43" height="37" viewBox="0 0 43 37" fill="none" xmlns="http://www.w3.org/2000/svg">
<path d="M21.556 32.0527L20.7671 34.0755C20.6705 34.323 20.8537 34.5897 21.1198 34.5897H22.7594C23.0082 34.5897 23.1894 34.3546 23.1251 34.115L22.6866 32.4755L21.5557 32.0527H21.556Z" fill="#57CD8C"/>
<g opacity="0.3">
<path d="M21.556 32.123L20.7671 34.1458C20.6705 34.3933 20.8537 34.66 21.1198 34.66H22.7594C23.0082 34.66 23.1894 34.4249 23.1251 34.1853L22.6866 32.5458L21.5557 32.123H21.556Z" fill="#0C2718"/>
</g>
<path d="M21.1201 34.8714H22.7597C22.9669 34.8714 23.158 34.7774 23.2842 34.6138C23.4105 34.4501 23.4521 34.2418 23.3989 34.0422L22.9604 32.4028C22.9369 32.3147 22.8721 32.2436 22.7866 32.2114L21.6557 31.7887C21.511 31.7342 21.3491 31.8064 21.2928 31.9504L20.5038 33.9731C20.4248 34.176 20.4512 34.4046 20.5743 34.5844C20.6977 34.7642 20.9018 34.8714 21.1201 34.8714ZM22.4514 32.6884L22.8522 34.1873C22.863 34.2268 22.8466 34.2562 22.8355 34.2703C22.8248 34.2844 22.8007 34.3075 22.7594 34.3075H21.1198C21.0756 34.3075 21.0513 34.2816 21.0408 34.2658C21.0301 34.2502 21.0145 34.2181 21.0306 34.1771L21.7182 32.4141L22.4514 32.6881V32.6884Z" fill="#0C2718"/>
<path d="M28.3047 4.76024L30.7397 2.86621L29.8953 5.6755L28.3047 4.76024Z" fill="#57CD8C"/>
<path d="M29.8956 5.88629C29.9868 5.88629 30.0711 5.82702 30.0986 5.73558L30.943 2.92629C30.9696 2.83824 30.9359 2.74313 30.8595 2.6912C30.7831 2.63927 30.682 2.64237 30.6093 2.6991L28.1739 4.59313C28.0816 4.66481 28.0652 4.79774 28.1371 4.88975C28.209 4.98175 28.3424 4.99841 28.4346 4.92644L30.3454 3.44023L29.6921 5.61423C29.6584 5.72599 29.7221 5.84396 29.8342 5.87754C29.8546 5.88347 29.875 5.88657 29.8953 5.88657L29.8956 5.88629Z" fill="#0C2718"/>
<path d="M23.5945 3.4909L25.3978 0.991211L25.3791 3.92384L23.5945 3.4909Z" fill="#57CD8C"/>
<path d="M25.3791 4.13455C25.4957 4.13455 25.5905 4.04086 25.5911 3.92458L25.6098 0.991953C25.6104 0.899947 25.5512 0.818101 25.4634 0.789596C25.376 0.761374 25.2794 0.792419 25.2257 0.867209L23.4224 3.36718C23.3542 3.46201 23.3757 3.59409 23.4708 3.66239C23.566 3.73069 23.6982 3.70896 23.7669 3.61413L25.1821 1.65265L25.1676 3.92204C25.1671 4.03888 25.2613 4.13399 25.3782 4.13484H25.3797L25.3791 4.13455Z" fill="#0C2718"/>
<path d="M7.44957 15.2393L4.854 13.5705L7.79266 13.4404L7.44957 15.2393Z" fill="#57CD8C"/>
<path d="M7.44929 15.4505C7.51892 15.4505 7.58715 15.4164 7.62763 15.3537C7.69104 15.2555 7.66273 15.1248 7.56422 15.0613L5.52774 13.7518L7.80173 13.6511C7.91892 13.646 8.00922 13.5472 8.00413 13.4306C7.99903 13.3138 7.89995 13.2223 7.78304 13.2288L4.84437 13.3589C4.75209 13.3629 4.67311 13.4261 4.64905 13.515C4.62499 13.6039 4.66122 13.6979 4.73879 13.7479L7.33464 15.417C7.37003 15.4398 7.40994 15.4505 7.44929 15.4505Z" fill="#0C2718"/>
<path d="M10.5479 11.8536C9.86902 11.1568 8.67328 10.2969 7.74761 11.071L8.04371 11.3736C8.73698 10.6443 9.89903 11.3744 10.5479 11.8536Z" fill="#0C2718"/>
<path d="M10.5779 14.6664C10.5779 14.6664 8.29003 14.8555 7.89654 12.5497C7.47447 10.0766 12.6812 1.26007 16.5667 0.412828C19.3916 -0.202992 22.501 4.10182 22.501 4.10182" fill="#57CD8C"/>
<g opacity="0.6">
<path d="M8.73671 12.6865C8.48618 12.4692 10.3058 5.05339 16.7405 1.45809C17.9669 0.772844 18.2352 1.93731 17.9303 2.11342C9.64342 6.8952 8.98723 12.9041 8.73671 12.6868V12.6865Z" fill="white"/>
</g>
<path d="M10.4015 15.0253C10.4743 15.0253 10.5428 15.0225 10.607 15.0171C10.8015 15.001 10.9462 14.8308 10.93 14.6369C10.9139 14.4433 10.7418 14.2994 10.5499 14.3149C10.47 14.3208 8.57793 14.4414 8.24502 12.4903C8.05649 11.3851 9.17777 8.68308 10.9114 6.06542C12.8788 3.0947 15.0211 1.11036 16.6423 0.756724C19.2079 0.19735 22.1845 4.2665 22.2142 4.30743C22.3283 4.46519 22.5497 4.50103 22.7073 4.3873C22.8656 4.27356 22.9015 4.05342 22.7875 3.89566C22.655 3.71221 19.5074 -0.5895 16.4909 0.0683721C13.9007 0.633109 11.3133 4.17873 10.3209 5.67707C8.75514 8.04129 7.29048 11.1015 7.54751 12.6086C7.87674 14.5368 9.45434 15.0253 10.401 15.0253H10.4015Z" fill="#0C2718"/>
<path d="M12.1102 9.72939C11.3391 8.81271 9.94579 7.88983 8.78374 8.69531L9.04022 9.032C10.0035 8.21665 11.3261 9.01592 12.1102 9.72939Z" fill="#0C2718"/>
<path d="M14.4632 7.34854C13.3912 6.4821 11.4303 5.1339 10.1287 6.24559L10.4276 6.5456C11.4424 5.51095 13.486 6.6901 14.4632 7.34854Z" fill="#0C2718"/>
<path d="M15.9763 5.33563C15.039 4.49093 13.4724 3.19296 12.1184 3.54857L12.2614 3.94651C13.4147 3.54095 15.0645 4.66224 15.976 5.33563H15.9763Z" fill="#0C2718"/>
<path d="M18.1104 3.49474C17.1655 2.479 15.6887 1.14068 14.1798 1.46976L14.3027 1.87447C15.6216 1.46976 17.1689 2.65681 18.1104 3.49474Z" fill="#0C2718"/>
<path d="M1.59009 23.841C2.10105 24.5551 3.14845 24.6262 3.77038 24.0022C4.94913 22.8205 5.92577 21.2838 7.10168 21.4528L6.95391 16.8062L6.93778 16.294C6.75519 16.756 6.54486 17.15 6.28754 17.4263C6.23206 17.4855 6.17487 17.5389 6.11486 17.5869L6.11174 17.5894C5.54955 18.0379 4.77674 17.9639 3.63026 16.9654L2.56757 15.9672C2.34281 15.7563 1.99122 15.7442 1.75966 15.9471C1.32881 16.3242 1.0078 16.8062 0.784446 17.3512C-0.0446987 19.3728 0.458902 22.2583 1.59066 23.841H1.59009Z" fill="#57CD8C"/>
<path d="M2.74445 24.7797C3.22286 24.7797 3.68145 24.5915 4.02115 24.2508C4.30083 23.9706 4.56749 23.6728 4.82538 23.385C5.60187 22.518 6.33477 21.6992 7.05153 21.8022C7.24488 21.8302 7.42378 21.6967 7.4518 21.5039C7.47983 21.3114 7.34565 21.1328 7.15259 21.1048C6.06018 20.9476 5.20443 21.9035 4.29829 22.9156C4.04663 23.1967 3.78647 23.4871 3.5201 23.7541C3.29278 23.9821 2.97799 24.0979 2.65358 24.0713C2.34021 24.0459 2.05742 23.8873 1.87823 23.6367C0.580583 21.822 0.0565939 17.9052 1.9923 16.2127C2.08515 16.1314 2.23123 16.1365 2.32465 16.224L3.38733 17.2222C4.30281 18.0204 5.06713 18.3252 5.73464 18.1637C6.57171 17.9608 7.00991 17.0732 7.26667 16.4235C7.33829 16.2423 7.24912 16.038 7.06738 15.9666C6.88592 15.8952 6.68069 15.9841 6.60907 16.1653C6.29712 16.9552 5.95629 17.3848 5.56762 17.4791C5.14469 17.5807 4.5723 17.3193 3.86234 16.7007L2.80928 15.7112C2.4475 15.3717 1.89605 15.3595 1.52607 15.683C-0.768869 17.6896 -0.128255 22.0452 1.30244 24.0459C1.60279 24.4662 2.0744 24.7315 2.59555 24.7741C2.64537 24.778 2.69491 24.78 2.74417 24.78L2.74445 24.7797Z" fill="#0C2718"/>
<path d="M6.37751 18.5709C5.45976 19.031 4.34358 19.0888 3.35421 18.8312C3.00772 18.7507 2.67906 18.6105 2.35295 18.4685C2.24765 18.4247 2.17461 18.5831 2.27878 18.6333C2.92364 18.9776 3.63813 19.2226 4.37047 19.2827C5.12686 19.3431 5.86938 19.2562 6.57963 18.9426C6.68607 18.8938 6.73307 18.7682 6.68409 18.6621C6.63144 18.5458 6.48537 18.5038 6.37751 18.5709Z" fill="#0C2718"/>
<path d="M6.73025 19.3194C5.35759 19.9527 3.78508 20.2106 2.2771 20.0537C2.16132 20.0382 2.13387 20.2157 2.25191 20.2332C3.42047 20.4189 4.62441 20.3529 5.77287 20.0687C6.15928 19.9727 6.53181 19.8604 6.91397 19.7004C7.02211 19.6552 7.07278 19.531 7.02749 19.4235C6.97965 19.3084 6.84009 19.2601 6.73054 19.3194H6.73025Z" fill="#0C2718"/>
<path d="M6.77185 20.1135C5.62849 20.753 4.34019 21.16 3.04707 21.3792C2.93299 21.3962 2.95394 21.5717 3.07085 21.559C4.42342 21.4109 5.75079 21.0764 6.98106 20.4812C7.23809 20.3443 7.0238 19.9636 6.77185 20.1135Z" fill="#0C2718"/>
<g opacity="0.3">
<path d="M1.59009 23.8405C2.10105 24.5545 3.14845 24.6256 3.77038 24.0016C4.94913 22.8199 5.92577 21.2832 7.10168 21.4523L6.95391 16.8057L6.28726 17.4257L6.11458 17.5863L6.11146 17.5888C5.86377 23.0782 0.537033 22.8391 0.784729 17.3504H0.784162C-0.0449824 19.372 0.458618 22.2574 1.59038 23.8402L1.59009 23.8405Z" fill="#0C2718"/>
</g>
<path d="M36.3241 21.1404C37.459 21.8519 38.6596 22.3385 39.9147 22.6425C40.4234 22.7658 40.9098 22.3794 40.9205 21.8584C40.9406 20.9051 40.8322 19.9983 40.5409 19.1603C40.3968 18.7435 39.9838 18.481 39.543 18.5146L37.2147 18.691C36.7131 19.2591 36.4014 20.0578 36.3239 21.1402L36.3241 21.1404Z" fill="#57CD8C"/>
<g opacity="0.6">
<path d="M36.8724 19.1654L39.0609 19C39.5014 18.9664 39.9144 19.2289 40.0588 19.6458C40.3501 20.4837 40.4582 21.3905 40.4384 22.3439C40.4361 22.4398 40.4183 22.5307 40.3869 22.6142C40.6892 22.5013 40.9134 22.2104 40.9208 21.8584C40.9409 20.9051 40.8324 19.9983 40.5412 19.1603C40.3971 18.7435 39.984 18.481 39.5433 18.5146L37.2149 18.691C37.0887 18.8346 36.9738 18.9921 36.8724 19.1654Z" fill="white"/>
</g>
<path d="M13.8325 30.7146L11.7914 32.4156L12.2704 29.5928L13.8325 30.7146Z" fill="#57CD8C"/>
<path d="M20.1404 32.9408L19.1666 35.1419L18.5806 32.6719L20.1404 32.9408Z" fill="#57CD8C"/>
<path d="M28.3322 31.7256L28.0915 34.7336L26.5649 32.3806L28.3322 31.7256Z" fill="#57CD8C"/>
<path d="M33.3962 27.9746L35.1494 31.2569L31.9432 29.4453L33.3962 27.9746Z" fill="#57CD8C"/>
<path d="M35.9493 23.1104L38.2703 25.1421L35.3443 24.8393L35.9493 23.1104Z" fill="#57CD8C"/>
<path d="M7.63157 22.2245C8.21585 24.1388 9.19899 25.944 10.5535 27.5061C18.0668 36.1747 31.3988 33.7351 35.4771 25.0296C36.5172 22.8095 36.9556 20.1823 36.5423 17.2285C37.1586 14.8315 36.546 12.0115 34.274 10.3608C33.8313 9.46951 33.3127 8.66093 32.7312 7.93476V7.93419C26.3149 -0.0847309 12.2633 1.87929 7.98032 12.78C7.5625 13.844 7.27999 14.9402 7.12854 16.0457C6.84404 18.1232 7.02182 20.2328 7.63129 22.2245H7.63157Z" fill="#57CD8C"/>
<g opacity="0.6">
<path d="M36.325 18.3282C36.3572 18.5588 36.3824 18.7868 36.4042 19.0134C36.3949 18.7496 36.3765 18.4817 36.353 18.2119C36.3437 18.2506 36.3349 18.2898 36.3247 18.3282H36.325Z" fill="white"/>
</g>
<g opacity="0.6">
<path d="M33.9915 10.5024C33.5488 9.61111 33.0302 8.80253 32.4487 8.07636V8.07579C26.0324 0.0568712 11.9805 2.02089 7.69781 12.9216C7.27999 13.9856 6.99748 15.0818 6.84603 16.1873C6.82423 16.3459 6.80611 16.5045 6.78998 16.6634C6.95445 15.7306 7.21261 14.8069 7.56958 13.9063C10.4044 6.75441 17.4655 3.44191 23.8108 4.26883C23.7494 4.33007 23.7043 4.39894 23.6823 4.47683C23.5243 5.03226 24.4927 5.79201 25.8447 6.17387C27.1967 6.55572 28.4208 6.41517 28.5787 5.85975C28.5849 5.83745 28.5866 5.81431 28.5895 5.79145C30.0592 6.58338 31.3911 7.6629 32.4968 9.03621V9.03678C33.0817 9.76238 33.6031 10.5707 34.0481 11.4617C35.4859 12.4983 36.2618 13.9981 36.4852 15.565C36.4789 13.6678 35.7104 11.751 33.9921 10.5027L33.9915 10.5024Z" fill="white"/>
</g>
<path d="M12.8451 30.1086C12.8451 30.1086 12.868 30.1868 12.9122 30.3287C21.2953 36.0193 32.6823 32.2764 35.8236 23.5787C35.3947 21.4358 33.3517 19.8502 30.4739 19.8965C28.3741 20.0173 27.0238 20.2095 24.998 21.1767C21.8553 22.677 19.181 26.0815 15.2776 28.8795C15.2776 28.8795 14.4906 29.8557 13.7048 29.4555L12.8451 30.1083V30.1086Z" fill="#89DCAE"/>
<g opacity="0.3">
<path d="M36.1308 21.0099C32.1181 29.6545 19.0018 32.0768 11.61 23.4692C10.2773 21.9178 9.31027 20.1254 8.73533 18.2246C8.14454 16.2761 7.96704 14.2141 8.22946 12.1807C8.18756 12.282 8.14511 12.3825 8.10519 12.4852C7.69416 13.5416 7.41617 14.6301 7.26698 15.728C6.98702 17.7911 7.16196 19.8858 7.76153 21.8633C8.33646 23.7641 9.30375 25.5565 10.6362 27.1079C18.028 35.7156 31.1443 33.2932 35.157 24.6486C35.7112 23.4545 36.09 22.1407 36.2579 20.7223C36.216 20.8185 36.1746 20.9153 36.1308 21.0099Z" fill="#0C2718"/>
</g>
<path d="M21.9722 33.4013C24.3444 33.4013 26.6269 32.8839 28.5833 31.9997C34.4105 29.3663 37.4853 23.7722 36.6196 17.3891C37.3022 14.6292 36.3844 11.8512 34.2698 10.2691C33.0234 7.79873 31.1143 5.81326 28.7441 4.5232C26.5037 3.30398 23.9065 2.72118 21.2291 2.83661C18.3176 2.96249 15.5086 3.89553 13.105 5.53471C10.5272 7.2927 8.54368 9.80255 7.36861 12.793C5.36015 17.9053 6.36962 23.6853 10.0032 27.8781C13.426 31.8273 17.8352 33.4013 21.9719 33.4013H21.9722ZM21.9229 3.52638C27.0775 3.52638 31.4381 6.15786 33.6748 10.6585C33.6999 10.7093 33.7373 10.7534 33.7832 10.787C35.7302 12.2015 36.5678 14.7508 35.9176 17.2821C35.9063 17.3264 35.9037 17.3727 35.91 17.4182C36.9279 24.6971 32.6418 29.3917 28.2911 31.3579C23.1631 33.6753 15.685 33.3555 10.538 27.4172C7.07647 23.4231 6.11399 17.918 8.02677 13.0499C10.23 7.442 15.3005 3.79844 21.2597 3.54077C21.4819 3.53117 21.7033 3.52638 21.9229 3.52638Z" fill="#0C2718"/>
<path d="M35.9321 17.2387C35.8248 17.7103 35.4239 18.1675 35.0395 18.4856C34.9869 18.5262 34.9775 18.6024 35.0197 18.6541C35.0539 18.6961 35.1114 18.7086 35.159 18.688C35.735 18.4221 36.2511 18.0846 36.5882 17.5004C36.8589 17.0067 36.0756 16.6946 35.9321 17.2384V17.2387Z" fill="#0C2718"/>
<path d="M16.3479 24.7326C16.5061 30.5784 13.8039 29.9107 12.0788 27.4875C11.7838 27.0729 11.7524 26.5251 11.9902 26.0758C12.1996 25.6801 12.5603 25.1597 13.1808 24.5537L16.3476 24.7329L16.3479 24.7326Z" fill="#57CD8C"/>
<g opacity="0.3">
<path d="M11.8501 26.5114C11.7997 26.8495 11.8744 27.2003 12.0788 27.4873C13.7297 29.8064 16.2752 30.5167 16.3525 25.4502C15.2119 28.9749 13.1658 28.4026 11.8501 26.5114Z" fill="#0C2718"/>
</g>
<path d="M16.2222 24.7355C16.1435 25.9471 16.0125 29.6211 14.0589 28.8718C13.3359 28.5791 12.7236 27.9159 12.2775 27.2716C11.9924 26.809 12.1178 26.2445 12.4117 25.8147C12.6492 25.4018 12.9492 25.0157 13.2688 24.6426C13.3693 24.5295 13.2085 24.3655 13.093 24.4637C12.3638 25.1114 11.2912 26.0752 11.6063 27.1629C11.6629 27.3701 11.7852 27.5775 11.9151 27.7412C12.1065 28.0006 12.3163 28.2515 12.5439 28.4823C13.5737 29.574 15.221 30.1537 16.0702 28.5139C16.6242 27.3323 16.5718 25.9651 16.4739 24.729C16.4589 24.5757 16.2284 24.5814 16.2225 24.7358L16.2222 24.7355Z" fill="#0C2718"/>
<path d="M15.2337 25.1773C15.0228 25.6049 14.9248 26.07 14.8476 26.5362C14.8241 26.6917 14.8048 26.8484 14.7997 27.0084C14.7975 27.0798 14.8538 27.1396 14.9257 27.1416C14.9792 27.1433 15.0262 27.1122 15.0474 27.0665C15.1785 26.7772 15.2685 26.4761 15.3455 26.1702C15.4217 25.8631 15.4817 25.5549 15.4814 25.2354C15.4805 25.1632 15.4211 25.1056 15.3486 25.1065C15.2985 25.107 15.2555 25.1358 15.2337 25.1773Z" fill="#0C2718"/>
<path d="M14.5048 24.7812C14.2415 25.2472 14.0584 25.7411 13.9114 26.2511C13.8642 26.421 13.8231 26.5931 13.7982 26.7709C13.7883 26.8418 13.8378 26.9073 13.9089 26.9171C13.9618 26.9245 14.0119 26.8988 14.038 26.8556C14.1308 26.7018 14.2075 26.5423 14.278 26.3806C14.4855 25.8921 14.6551 25.3934 14.7445 24.8659C14.7686 24.7271 14.5727 24.6593 14.5048 24.7812Z" fill="#0C2718"/>
<path d="M13.7444 24.7226C13.413 25.1434 13.157 25.6167 13.0353 26.1379C13.0217 26.2093 13.0684 26.2785 13.1403 26.292C13.1871 26.3011 13.2332 26.2838 13.2629 26.2511C13.4432 26.0496 13.5737 25.8196 13.6926 25.5808C13.807 25.3429 13.9109 25.0999 13.9723 24.8357C13.9887 24.7655 13.9449 24.6955 13.8744 24.6791C13.8248 24.6678 13.7753 24.6861 13.7447 24.7223L13.7444 24.7226Z" fill="#0C2718"/>
<path d="M40.1061 22.9472C40.3433 22.9472 40.576 22.8693 40.7696 22.7209C41.0383 22.5149 41.1962 22.2024 41.2036 21.8638C41.2257 20.8111 41.0966 19.8961 40.8084 19.0675C40.623 18.5329 40.0922 18.1897 39.5218 18.2332L36.4965 18.453C36.3408 18.4643 36.2236 18.5992 36.2349 18.7547C36.2463 18.91 36.3804 19.0265 36.5376 19.0152L39.5637 18.7954C39.8824 18.772 40.1723 18.9594 40.2739 19.2518C40.5395 20.0166 40.6586 20.8669 40.6377 21.8519C40.6343 22.019 40.5565 22.1728 40.4245 22.2738C40.2974 22.3712 40.1358 22.4056 39.9815 22.3684C38.7195 22.0627 37.5399 21.5691 36.475 20.9014C36.3428 20.8184 36.1681 20.8582 36.0852 20.99C36.002 21.1218 36.0419 21.2959 36.1741 21.3786C37.2905 22.0788 38.5268 22.5961 39.8479 22.9162C39.9334 22.9368 40.02 22.947 40.1058 22.947L40.1061 22.9472Z" fill="#0C2718"/>
<path d="M36.8203 19.2855L38.9304 19.7464C39.0148 19.7653 39.0518 19.64 38.9695 19.6109L36.9378 18.8791C36.6544 18.7876 36.5304 19.2113 36.82 19.2852L36.8203 19.2855Z" fill="#0C2718"/>
<path d="M36.4948 19.5055L38.7702 21.1337C38.8398 21.1854 38.925 21.0801 38.8582 21.0234L36.7592 19.1748C36.5358 18.9871 36.2604 19.3289 36.4948 19.5055Z" fill="#0C2718"/>
<path d="M11.7915 32.697C11.8563 32.697 11.9206 32.6747 11.9726 32.6315L14.0137 30.9305C14.1334 30.8306 14.1495 30.6528 14.0493 30.5334C13.9491 30.414 13.7711 30.3982 13.6513 30.4978L12.1983 31.7089L12.5493 29.6393C12.5753 29.4858 12.4717 29.3404 12.3177 29.3145C12.1626 29.2888 12.0179 29.3921 11.9919 29.5453L11.5129 32.3682C11.4931 32.4844 11.5483 32.601 11.6511 32.6597C11.6949 32.6848 11.7433 32.6972 11.7918 32.6972L11.7915 32.697Z" fill="#0C2718"/>
<path d="M19.1669 35.3538C19.2501 35.3538 19.3265 35.305 19.3608 35.2277L20.3343 33.0266C20.3816 32.9196 20.3332 32.7949 20.2259 32.7477C20.1183 32.7003 19.9935 32.7492 19.9462 32.8558L19.2275 34.4806L18.7867 32.6238C18.7598 32.5101 18.646 32.4393 18.5314 32.4669C18.4176 32.4937 18.3468 32.6078 18.374 32.7212L18.9602 35.191C18.9812 35.2793 19.0565 35.3445 19.1473 35.3527C19.1538 35.3533 19.1604 35.3535 19.1669 35.3535V35.3538Z" fill="#0C2718"/>
<path d="M28.0915 35.0148C28.1145 35.0148 28.1377 35.012 28.1606 35.0064C28.2781 34.9767 28.3636 34.876 28.3735 34.7555L28.6141 31.7478C28.6263 31.5926 28.5102 31.4568 28.3548 31.4444C28.1988 31.4311 28.063 31.5477 28.0505 31.7029L27.8761 33.882L26.8024 32.2273C26.7175 32.0966 26.5422 32.0591 26.4115 32.1437C26.2804 32.2284 26.2427 32.4028 26.3274 32.5335L27.854 34.8861C27.907 34.9677 27.997 35.0148 28.0915 35.0148Z" fill="#0C2718"/>
<path d="M35.149 31.5391C35.2212 31.5391 35.2923 31.5117 35.3463 31.4592C35.4364 31.3717 35.4579 31.2354 35.3987 31.1248L33.6456 27.8428C33.572 27.7053 33.4007 27.6534 33.2632 27.7265C33.1253 27.7996 33.0732 27.9703 33.1465 28.1078L34.4428 30.5341L32.0824 29.2005C31.9465 29.1238 31.7739 29.1715 31.6969 29.3069C31.6199 29.4424 31.6677 29.6143 31.8033 29.6911L35.0095 31.5024C35.0531 31.5269 35.1012 31.5391 35.1488 31.5391H35.149Z" fill="#0C2718"/>
<path d="M38.2706 25.4236C38.3821 25.4236 38.484 25.3581 38.5296 25.2545C38.5789 25.1422 38.5494 25.011 38.4568 24.93L36.1359 22.8982C36.0184 22.7955 35.8398 22.8071 35.737 22.9239C35.6342 23.0407 35.6456 23.2191 35.763 23.3218L37.4174 24.7702L35.3738 24.5588C35.2181 24.5425 35.0794 24.6554 35.0636 24.81C35.0474 24.965 35.1604 25.1035 35.3155 25.1196L38.2414 25.4225C38.2513 25.4236 38.261 25.4239 38.2706 25.4239V25.4236Z" fill="#0C2718"/>
<path d="M12.531 6.38867L12.5299 6.3917L12.5328 6.38988L12.531 6.38867Z" fill="white"/>
<path d="M20.5661 6.58094L21.4216 3.62207L22.3928 6.39044L20.5661 6.58094Z" fill="#57CD8C"/>
<path d="M20.5661 6.79225C20.6581 6.79225 20.743 6.73185 20.7696 6.63928L21.4411 4.31768L22.1927 6.45979C22.2315 6.57014 22.3515 6.62828 22.4627 6.58961C22.5734 6.55095 22.6315 6.43043 22.593 6.32037L21.6217 3.552C21.5914 3.46507 21.5136 3.40665 21.4156 3.41032C21.3233 3.41286 21.2432 3.47467 21.2178 3.563L20.362 6.52159C20.3295 6.63364 20.3946 6.75104 20.5069 6.78322C20.5268 6.78886 20.5463 6.79169 20.5658 6.79169L20.5661 6.79225Z" fill="#0C2718"/>
<path d="M14.9079 9.2754L13.8254 6.3916L16.2607 8.0367L14.9079 9.2754Z" fill="#57CD8C"/>
<path d="M14.9079 9.48751C14.9325 9.48751 14.9577 9.48328 14.9821 9.47397C15.0919 9.43304 15.1474 9.31112 15.1064 9.2019L14.2568 6.939L16.1413 8.21213C16.2381 8.27761 16.3703 8.25249 16.436 8.15568C16.5017 8.05916 16.4762 7.92764 16.3794 7.86217L13.944 6.21706C13.8679 6.16542 13.7665 6.16908 13.6938 6.22581C13.6213 6.28282 13.5939 6.37991 13.6264 6.46599L14.7089 9.34979C14.7409 9.43474 14.8216 9.48723 14.9076 9.48723L14.9079 9.48751Z" fill="#0C2718"/>
<path d="M10.887 13.3377L8.27387 11.6963L11.2111 11.5352L10.887 13.3377Z" fill="#57CD8C"/>
<path d="M10.8867 13.5489C10.9572 13.5489 11.026 13.5139 11.0662 13.4501C11.1285 13.3513 11.099 13.2207 10.9997 13.1586L8.94958 11.8705L11.2224 11.746C11.3394 11.7395 11.4291 11.6399 11.4226 11.5234C11.4164 11.4068 11.3173 11.3151 11.1992 11.3238L8.26227 11.4847C8.16998 11.4898 8.09185 11.5536 8.06864 11.6427C8.04542 11.7319 8.08279 11.8256 8.16092 11.8747L10.774 13.5162C10.8091 13.5382 10.8482 13.5486 10.887 13.5486L10.8867 13.5489Z" fill="#0C2718"/>
<g opacity="0.25">
<path d="M9.86261 16.7149C9.48933 16.6685 9.24838 16.1376 9.32442 15.5289C9.40046 14.9203 9.7647 14.4644 10.138 14.5108C10.5112 14.5571 10.7522 15.0881 10.6762 15.6968C10.6001 16.3054 10.2359 16.7612 9.86261 16.7149Z" fill="#0C2718"/>
</g>
<g opacity="0.25">
<path d="M11.1711 18.3983C10.8962 18.3642 10.7188 17.9732 10.7748 17.5249C10.8308 17.0767 11.099 16.741 11.3739 16.7751C11.6488 16.8092 11.8263 17.2003 11.7703 17.6485C11.7143 18.0968 11.446 18.4325 11.1711 18.3983Z" fill="#0C2718"/>
</g>
<g opacity="0.25">
<path d="M11.9904 15.3888C11.6346 15.2972 11.4679 14.7529 11.6181 14.1728C11.7682 13.5928 12.1783 13.1969 12.534 13.2884C12.8898 13.3799 13.0565 13.9243 12.9063 14.5043C12.7562 15.0843 12.3461 15.4803 11.9904 15.3888Z" fill="#0C2718"/>
</g>
<path d="M28.544 10.8136L28.5466 10.8259L28.5479 10.8385C28.5923 11.2556 28.7036 11.5342 28.8396 11.7124C28.972 11.8859 29.1368 11.9768 29.3226 12.0076C29.7119 12.0721 30.2338 11.8743 30.7058 11.4642C31.1711 11.0599 31.5362 10.492 31.6337 9.90936C31.7286 9.34213 31.5745 8.74354 30.9678 8.22762C30.6867 7.98856 30.2883 7.9265 29.9508 8.07018C28.8921 8.5209 28.277 9.54062 28.544 10.8136Z" fill="white" stroke="#0C2718" stroke-width="0.5"/>
<g opacity="0.6">
<path d="M19.207 15.0909C19.1983 16.2396 19.6121 16.988 20.5769 17.2164L20.5746 17.2093C20.9429 18.1853 21.1122 19.324 21.0983 20.6138C22.2558 17.3273 20.5953 13.4128 15.9669 13.4337C17.3294 13.7537 18.4022 14.312 19.2068 15.0912L19.207 15.0909Z" fill="white"/>
</g>
<path d="M15.2738 13.5079C13.8952 12.9776 14.1342 9.95318 15.4683 9.69043C17.7763 9.71979 19.3024 10.1371 21.0136 11.9418C21.9217 12.9248 21.8393 15.4737 20.7217 15.4656C20.7217 15.4656 18.2716 12.9293 15.2738 13.5079Z" fill="white"/>
<path fill-rule="evenodd" clip-rule="evenodd" d="M20.7217 15.4656C20.7217 15.4656 18.2716 12.9293 15.2738 13.5079C13.8952 12.9776 14.1342 9.95318 15.4683 9.69043C17.7763 9.71979 19.3024 10.1371 21.0136 11.9418C21.9217 12.9248 21.8393 15.4737 20.7217 15.4656ZM20.5883 12.3441C20.8921 12.6753 21.0858 13.3715 21.0447 14.039C21.0247 14.3631 20.9521 14.6098 20.8658 14.7549C20.8597 14.765 20.8539 14.7743 20.8483 14.7828C20.7936 14.7347 20.7316 14.6816 20.6627 14.6246C20.3666 14.3797 19.9387 14.0598 19.4093 13.7585C18.4002 13.1844 16.9708 12.6498 15.3648 12.8963C15.255 12.819 15.1539 12.6914 15.0734 12.498C14.9642 12.2352 14.9137 11.8926 14.9363 11.5362C14.9589 11.1793 15.052 10.8519 15.1868 10.6166C15.3051 10.4103 15.4294 10.3147 15.5357 10.2788C16.6248 10.2969 17.4846 10.4077 18.2598 10.7003C19.0439 10.9962 19.7812 11.4935 20.5883 12.3441Z" fill="#0C2718"/>
<path d="M36.3711 13.4904C36.1602 12.3815 35.5312 11.2791 34.4829 10.7553C33.4953 9.73483 32.3308 9.92899 29.8356 11.8927C28.7794 13.3555 29.1301 15.3313 30.3556 16.5709C30.4264 16.6491 30.5577 16.5604 30.5121 16.4665C29.9454 15.1304 29.3527 13.5096 30.2947 12.2212C31.4585 10.5913 34.1843 10.4491 35.2787 12.2229C35.5462 12.6338 35.7152 13.1108 35.8171 13.6044C35.9 13.9654 36.4384 13.8564 36.3711 13.4904Z" fill="#0C2718"/>
<path d="M21.4791 18.0994C21.566 18.0994 21.6495 18.0596 21.7038 17.9884C25.193 20.7253 29.2667 19.7994 29.8665 15.7588C30.016 15.8037 29.8583 15.5336 29.9033 15.3846C29.9483 15.2356 29.8634 15.0784 29.7139 15.0335C28.1968 18.1813 24.687 19.5012 21.6489 17.1892C21.2042 15.3761 19.8502 13.8953 18.0702 13.3291C16.3737 12.7892 14.6466 13.236 13.4512 14.5235C13.345 14.6378 13.3521 14.8162 13.4667 14.9218C13.5814 15.0273 13.76 15.0205 13.8662 14.9062C14.9243 13.7666 16.3938 13.3879 17.8984 13.8659C19.6606 14.4264 20.9562 15.9914 21.1991 17.8535C21.2138 17.9667 21.2956 18.0598 21.4063 18.0895C21.4304 18.096 21.455 18.0991 21.4794 18.0991L21.4791 18.0994Z" fill="#0C2718"/>
<path d="M21.2013 17.8708C21.4108 18.8321 21.3689 19.9173 20.8812 20.7961C20.8271 20.8974 20.9763 20.9889 21.042 20.8932C21.6848 19.9932 21.8604 18.8519 21.7567 17.7644C21.6973 17.3682 21.1099 17.4791 21.2013 17.8708Z" fill="#0C2718"/>
<path d="M13.4059 19.9492C13.773 21.0457 14.7488 21.8449 15.8307 22.1845C15.8806 22.2031 15.9358 22.178 15.9544 22.1283C15.9734 22.0784 15.9471 22.0244 15.899 22.0047C15.429 21.7888 14.9891 21.4941 14.6455 21.1089C14.3196 20.7426 14.0584 20.2972 13.9565 19.82C13.8772 19.4336 13.304 19.5662 13.4059 19.9492Z" fill="#0C2718"/>
<path d="M29.6308 12.1372C30.5132 12.1372 31.5087 11.333 31.8149 10.3428C31.9704 9.84022 31.9982 8.72526 30.2955 7.79004L30.1903 8.09948C31.1623 8.6334 31.6053 9.31891 31.3542 10.1308C31.109 10.9233 30.2236 11.9564 29.5625 11.8927C28.9917 11.837 28.6668 10.9715 28.614 10.4737H28.31C28.4557 11.846 29.1579 12.0982 29.495 12.1311C29.5398 12.1356 29.5852 12.1372 29.6308 12.1372Z" fill="#0C2718"/>
<path d="M20.3727 15.5172C20.8364 15.5172 21.2282 15.2336 21.4487 14.7374C21.7828 13.9859 21.7078 12.7037 21.0049 11.9425C20.8993 11.828 20.7201 11.8206 20.6054 11.9262C20.4905 12.0317 20.4832 12.2098 20.5887 12.3244C21.1195 12.899 21.1943 13.9178 20.9316 14.5094C20.841 14.7134 20.6672 14.9508 20.3682 14.9536C20.2114 14.9525 20.0846 15.0778 20.0834 15.2333C20.0823 15.3891 20.208 15.5161 20.364 15.5172H20.3725H20.3727Z" fill="#0C2718"/>
<path d="M15.6364 13.6308C15.7499 13.6308 15.9341 13.7066 15.9774 13.5948C16.0334 13.4495 15.961 13.2863 15.8152 13.2304C15.1539 12.9759 14.8646 12.0632 14.928 11.333C14.9481 11.1025 15.0596 10.3404 15.6513 10.2239C15.8044 10.1937 15.9041 10.0455 15.8738 9.89283C15.8435 9.74014 15.7899 9.70643 15.6364 9.73663C14.9859 9.86476 14.4403 10.4175 14.3647 11.2845C14.2812 12.2424 14.7076 13.2735 15.6364 13.6308C15.6025 13.6308 15.6698 13.6438 15.6364 13.6308Z" fill="#0C2718"/>
<g opacity="0.3">
<path d="M32.633 10.6621C30.9289 11.4049 30.0046 15.8145 33.4967 17.7929C33.4967 17.7929 30.1105 17.6422 29.728 15.1515C29.3456 12.6608 30.0836 10.9632 32.633 10.6621Z" fill="#0C2718"/>
</g>
<g opacity="0.3">
<path d="M29.3847 12.0156C29.3847 12.0156 27.6494 12.8149 28.0941 14.8963L29.4223 15.2463C29.4223 15.2463 29.2553 12.5104 29.9236 12.1421" fill="#0C2718"/>
</g>
<g opacity="0.3">
<path d="M17.0786 13.3164C14.1187 13.5566 14.2016 22.2701 20.3734 21.1344C20.1378 21.4045 19.1782 22.4414 17.66 22.5554C16.0153 22.679 14.3819 21.6695 13.5689 20.0024C13.3447 19.5327 12.9663 18.578 13.0033 17.3246C13.0195 16.7762 13.112 16.2885 13.2329 15.8734C13.5307 14.8523 14.3066 14.0321 15.3161 13.6878C15.7747 13.5312 16.3545 13.394 17.0783 13.3167L17.0786 13.3164Z" fill="#0C2718"/>
</g>
</svg>
