<svg width="381" height="326" viewBox="0 0 381 326" fill="none" xmlns="http://www.w3.org/2000/svg">
<path d="M161.99 52.4866L135.148 31.6011L144.456 62.5792L161.99 52.4866Z" fill="#57CD8C"/>
<path d="M144.453 64.9098C143.448 64.9098 142.518 64.2563 142.216 63.2479L132.907 32.2698C132.614 31.2988 132.985 30.25 133.828 29.6774C134.67 29.1048 135.784 29.139 136.586 29.7645L163.432 50.65C164.449 51.4405 164.63 52.9063 163.837 53.9209C163.045 54.9354 161.575 55.1191 160.558 54.3255L139.495 37.937L146.697 61.9097C147.068 63.1421 146.366 64.443 145.13 64.8133C144.905 64.8787 144.681 64.9129 144.456 64.9129L144.453 64.9098Z" fill="#0C2718"/>
<path d="M213.912 38.4909L194.034 10.9268L194.24 43.2649L213.912 38.4909Z" fill="#57CD8C"/>
<path d="M194.24 45.5954C192.955 45.5954 191.909 44.5622 191.903 43.28L191.697 10.9419C191.691 9.92734 192.343 9.02482 193.31 8.7105C194.274 8.39928 195.339 8.74162 195.931 9.56633L215.809 37.1336C216.561 38.1792 216.324 39.6357 215.275 40.3888C214.227 41.142 212.769 40.9024 212.011 39.8567L196.412 18.2274L196.571 43.252C196.577 44.5404 195.538 45.5892 194.25 45.5986H194.234L194.24 45.5954Z" fill="#0C2718"/>
<path d="M357.728 130.712C365.211 123.029 378.392 113.546 388.596 122.082L385.332 125.419C377.69 117.377 364.88 125.428 357.728 130.712Z" fill="#0C2718"/>
<path d="M357.397 161.725C357.397 161.725 382.617 163.81 386.954 138.384C391.607 111.112 334.212 13.8927 291.38 4.55006C260.241 -2.2406 225.966 45.2287 225.966 45.2287" fill="#57CD8C"/>
<g opacity="0.6">
<path d="M377.693 139.896C380.454 137.499 360.396 55.7251 289.464 16.0797C275.947 8.52346 272.988 21.3641 276.349 23.3061C367.698 76.0348 374.931 142.295 377.693 139.899V139.896Z" fill="white"/>
</g>
<path d="M359.341 165.686C358.539 165.686 357.784 165.655 357.076 165.596C354.932 165.419 353.337 163.542 353.515 161.404C353.693 159.269 355.59 157.682 357.706 157.853C358.586 157.919 379.443 159.247 383.113 137.733C385.191 125.546 372.831 95.7507 353.721 66.8857C332.034 34.1275 308.418 12.2461 290.547 8.34662C262.266 2.17838 229.455 47.049 229.127 47.5003C227.869 49.24 225.429 49.6352 223.691 48.381C221.947 47.1268 221.55 44.6994 222.808 42.9597C224.268 40.9368 258.965 -6.49823 292.217 0.756138C320.769 6.98351 349.29 46.0812 360.231 62.6035C377.49 88.6738 393.635 122.419 390.802 139.037C387.173 160.299 369.782 165.686 359.348 165.686H359.341Z" fill="#0C2718"/>
<path d="M340.506 107.284C349.006 97.1762 364.365 86.9995 377.175 95.8816L374.348 99.5943C363.729 90.6034 349.15 99.4169 340.506 107.284Z" fill="#0C2718"/>
<path d="M314.569 81.033C326.386 71.4788 348.001 56.6122 362.349 68.8708L359.054 72.179C347.867 60.7699 325.341 73.7724 314.569 81.033Z" fill="#0C2718"/>
<path d="M297.89 58.8347C308.222 49.5201 325.49 35.2074 340.416 39.1287L338.84 43.5168C326.127 39.0446 307.941 51.4091 297.893 58.8347H297.89Z" fill="#0C2718"/>
<path d="M274.364 38.5439C284.781 27.3434 301.06 12.5856 317.692 16.2144L316.338 20.6772C301.8 16.2144 284.743 29.304 274.364 38.5439Z" fill="#0C2718"/>
<path d="M73.5901 233.11C61.0801 240.956 47.8462 246.321 34.01 249.673C28.4025 251.033 23.0415 246.773 22.9229 241.028C22.7014 230.515 23.8965 220.516 27.1075 211.276C28.6958 206.679 33.2486 203.785 38.1072 204.155L63.7731 206.1C69.3025 212.365 72.7382 221.172 73.5932 233.107L73.5901 233.11Z" fill="#57CD8C"/>
<g opacity="0.6">
<path d="M67.5458 211.335L43.4214 209.512C38.566 209.141 34.0132 212.036 32.4217 216.632C29.2108 225.872 28.0187 235.871 28.2372 246.384C28.2621 247.442 28.4587 248.444 28.8051 249.366C25.4725 248.121 23.001 244.912 22.9199 241.031C22.6983 230.518 23.8935 220.519 27.1044 211.279C28.6928 206.683 33.2455 203.788 38.1041 204.159L63.77 206.104C65.1617 207.688 66.4286 209.424 67.5458 211.335Z" fill="white"/>
</g>
<path d="M105.865 308.478L86.5401 344.672L121.883 324.695L105.865 308.478Z" fill="#57CD8C"/>
<path d="M77.7216 254.839L52.1368 277.243L84.3901 273.904L77.7216 254.839Z" fill="#57CD8C"/>
<path d="M389.875 245.071C383.434 266.18 372.597 286.086 357.666 303.311C274.845 398.9 127.883 371.999 82.9266 276.002C71.462 251.522 66.6284 222.551 71.1843 189.98C64.391 163.549 71.1437 132.452 96.1886 114.249C101.069 104.421 106.786 95.5051 113.195 87.4976V87.4914C183.924 -0.933544 338.818 20.7238 386.031 140.927C390.637 152.659 393.751 164.747 395.42 176.937C398.556 199.845 396.597 223.109 389.878 245.071H389.875Z" fill="#57CD8C"/>
<g opacity="0.6">
<path d="M73.5808 202.098C73.2251 204.641 72.9474 207.156 72.7071 209.655C72.8101 206.745 73.0129 203.791 73.2719 200.816C73.3749 201.243 73.4716 201.675 73.584 202.098H73.5808Z" fill="white"/>
</g>
<g opacity="0.6">
<path d="M99.3029 115.805C104.183 105.977 109.9 97.061 116.309 89.0535V89.0473C187.038 0.622364 341.935 22.2797 389.145 142.482C393.751 154.215 396.865 166.303 398.534 178.493C398.775 180.242 398.974 181.991 399.152 183.743C397.339 173.458 394.493 163.272 390.559 153.341C359.31 74.4763 281.473 37.9492 211.528 47.0678C212.205 47.7431 212.701 48.5025 212.944 49.3614C214.686 55.4861 204.01 63.8639 189.107 68.0746C174.204 72.2853 160.711 70.7355 158.969 64.6108C158.901 64.365 158.882 64.1098 158.851 63.8577C142.649 72.5903 127.968 84.4942 115.779 99.6378V99.6441C109.332 107.645 103.584 116.558 98.6788 126.383C82.8299 137.814 74.2767 154.352 71.8146 171.631C71.8833 150.711 80.3554 129.573 99.2966 115.808L99.3029 115.805Z" fill="white"/>
</g>
<path d="M332.405 332.007C332.405 332.007 332.153 332.869 331.666 334.435C239.256 397.185 113.735 355.912 79.1071 260.002C83.8346 236.372 106.355 218.888 138.078 219.398C161.226 220.73 176.11 222.849 198.44 233.515C233.084 250.059 262.563 287.6 305.591 318.454C305.591 318.454 314.266 329.219 322.928 324.806L332.405 332.004V332.007Z" fill="#89DCAE"/>
<g opacity="0.3">
<path d="M75.7214 231.676C119.954 327.001 264.538 353.712 346.02 258.795C360.711 241.688 371.371 221.923 377.708 200.963C384.221 179.476 386.177 156.739 383.285 134.316C383.746 135.434 384.215 136.542 384.655 137.674C389.185 149.323 392.25 161.327 393.894 173.433C396.98 196.182 395.052 219.281 388.443 241.087C382.105 262.047 371.442 281.813 356.754 298.92C275.273 393.837 130.689 367.125 86.4558 271.801C80.346 258.633 76.1708 244.147 74.3203 228.505C74.7821 229.566 75.2377 230.634 75.7214 231.676Z" fill="#0C2718"/>
</g>
<path d="M231.795 368.314C205.645 368.314 180.485 362.609 158.919 352.859C94.6845 323.82 60.7899 262.134 70.3323 191.747C62.8089 161.314 72.9254 130.681 96.2354 113.235C109.975 85.9941 131.019 64.1002 157.147 49.8747C181.842 36.4303 210.473 30.0038 239.986 31.2766C272.08 32.6646 303.045 42.9533 329.541 61.0286C357.956 80.414 379.821 108.09 392.774 141.066C414.914 197.439 403.786 261.176 363.732 307.41C326.002 350.958 277.398 368.314 231.798 368.314H231.795ZM232.338 38.8827C175.517 38.8827 127.449 67.9001 102.795 117.529C102.517 118.089 102.105 118.575 101.599 118.945C80.1368 134.543 70.9033 162.655 78.0711 190.568C78.1959 191.056 78.224 191.567 78.1553 192.068C66.9341 272.333 114.181 324.1 162.14 345.782C218.667 371.336 301.101 367.81 357.837 302.327C395.994 258.285 406.604 197.579 385.519 143.898C361.232 82.0603 305.338 41.8827 239.649 39.0414C237.2 38.9356 234.759 38.8827 232.338 38.8827Z" fill="#0C2718"/>
<path d="M77.912 190.088C79.0947 195.289 83.5133 200.33 87.7509 203.838C88.3313 204.286 88.4343 205.126 87.9693 205.696C87.5917 206.159 86.9583 206.296 86.434 206.069C80.0839 203.137 74.3953 199.415 70.6788 192.973C67.6956 187.53 76.33 184.088 77.912 190.085V190.088Z" fill="#0C2718"/>
<path d="M293.793 272.725C292.048 337.187 321.836 329.824 340.853 303.103C344.104 298.531 344.45 292.49 341.829 287.536C339.52 283.173 335.545 277.434 328.704 270.752L293.796 272.728L293.793 272.725Z" fill="#57CD8C"/>
<g opacity="0.3">
<path d="M343.374 292.338C343.929 296.066 343.105 299.935 340.852 303.1C322.654 328.672 294.595 336.505 293.743 280.636C306.315 319.504 328.87 313.192 343.374 292.338Z" fill="#0C2718"/>
</g>
<path d="M295.178 272.762C296.046 286.123 297.49 326.637 319.025 318.374C326.995 315.147 333.744 307.833 338.662 300.728C341.804 295.627 340.422 289.403 337.183 284.663C334.565 280.11 331.257 275.853 327.734 271.739C326.626 270.491 328.399 268.682 329.672 269.766C337.71 276.908 349.534 287.536 346.061 299.53C345.437 301.814 344.089 304.102 342.656 305.907C340.547 308.767 338.234 311.533 335.726 314.079C324.373 326.117 306.215 332.509 296.854 314.428C290.747 301.397 291.324 286.322 292.404 272.691C292.569 271.001 295.11 271.063 295.175 272.766L295.178 272.762Z" fill="#0C2718"/>
<path d="M306.075 277.636C308.4 282.351 309.479 287.479 310.331 292.621C310.59 294.335 310.802 296.063 310.858 297.827C310.883 298.615 310.262 299.274 309.47 299.296C308.88 299.315 308.362 298.972 308.128 298.468C306.683 295.278 305.691 291.958 304.842 288.584C304.003 285.198 303.341 281.8 303.344 278.277C303.354 277.48 304.009 276.845 304.808 276.855C305.36 276.861 305.835 277.178 306.075 277.636Z" fill="#0C2718"/>
<path d="M314.11 273.264C317.012 278.402 319.031 283.848 320.651 289.472C321.172 291.345 321.624 293.243 321.899 295.204C322.008 295.985 321.462 296.707 320.679 296.816C320.095 296.897 319.543 296.614 319.256 296.138C318.232 294.442 317.387 292.683 316.61 290.9C314.322 285.513 312.453 280.014 311.467 274.197C311.202 272.666 313.361 271.919 314.11 273.264Z" fill="#0C2718"/>
<path d="M322.492 272.616C326.146 277.256 328.967 282.475 330.308 288.223C330.458 289.011 329.943 289.773 329.151 289.923C328.636 290.022 328.127 289.832 327.8 289.471C325.812 287.249 324.373 284.713 323.063 282.08C321.802 279.457 320.657 276.777 319.98 273.864C319.799 273.089 320.282 272.317 321.059 272.137C321.605 272.012 322.151 272.215 322.488 272.613L322.492 272.616Z" fill="#0C2718"/>
<path d="M31.9006 253.038C29.2856 253.038 26.7206 252.179 24.5862 250.542C21.6249 248.27 19.8836 244.825 19.8025 241.09C19.5591 229.482 20.9821 219.393 24.1587 210.255C26.2026 204.361 32.0535 200.577 38.3413 201.056L71.6898 203.48C73.406 203.605 74.6979 205.092 74.5731 206.807C74.4483 208.519 72.9692 209.804 71.2373 209.68L37.8794 207.255C34.3658 206.997 31.1704 209.063 30.0502 212.288C27.1232 220.721 25.8094 230.098 26.0403 240.96C26.0778 242.802 26.9359 244.498 28.3901 245.612C29.7912 246.686 31.573 247.066 33.2736 246.655C47.1847 243.284 60.1877 237.841 71.9269 230.478C73.3842 229.563 75.3095 230.002 76.2238 231.455C77.1412 232.909 76.7013 234.829 75.244 235.741C62.9368 243.462 49.3097 249.166 34.7465 252.695C33.8041 252.923 32.8492 253.035 31.9037 253.035L31.9006 253.038Z" fill="#0C2718"/>
<path d="M68.1199 212.667L44.8599 217.749C43.93 217.958 43.5212 216.576 44.4293 216.256L66.8249 208.186C69.9485 207.177 71.3153 211.849 68.1231 212.664L68.1199 212.667Z" fill="#0C2718"/>
<path d="M71.7085 215.088L46.6261 233.042C45.8585 233.612 44.9192 232.451 45.6557 231.826L68.794 211.441C71.256 209.372 74.2923 213.14 71.7085 215.088Z" fill="#0C2718"/>
<path d="M344.02 360.556C343.305 360.556 342.597 360.31 342.023 359.834L319.524 341.077C318.204 339.975 318.026 338.015 319.131 336.698C320.236 335.382 322.198 335.207 323.518 336.306L339.536 349.66L335.666 326.839C335.379 325.146 336.521 323.543 338.219 323.257C339.929 322.974 341.523 324.113 341.81 325.803L347.09 356.93C347.309 358.212 346.7 359.498 345.568 360.145C345.084 360.422 344.55 360.559 344.017 360.559L344.02 360.556Z" fill="#0C2718"/>
<path d="M86.5432 347.777C85.7475 347.777 84.9643 347.475 84.3682 346.897C83.3759 345.932 83.1388 344.429 83.791 343.209L103.116 307.018C103.927 305.502 105.815 304.929 107.332 305.736C108.851 306.542 109.426 308.424 108.617 309.94L94.3288 336.695L120.347 321.99C121.845 321.144 123.749 321.67 124.597 323.163C125.446 324.657 124.919 326.553 123.424 327.399L88.0816 347.373C87.6011 347.643 87.0706 347.777 86.5463 347.777H86.5432Z" fill="#0C2718"/>
<path d="M52.1337 280.35C50.9043 280.35 49.7809 279.628 49.2785 278.486C48.7356 277.247 49.0601 275.8 50.0805 274.907L75.6652 252.503C76.9602 251.37 78.9292 251.497 80.062 252.786C81.1947 254.074 81.0699 256.041 79.7749 257.174L61.5388 273.145L84.0656 270.814C85.7818 270.634 87.3108 271.879 87.4856 273.584C87.6635 275.293 86.4184 276.821 84.7084 276.998L52.4552 280.337C52.3459 280.35 52.2398 280.353 52.1337 280.353V280.35Z" fill="#0C2718"/>
<path d="M335.857 70.4456L335.864 70.4622L335.847 70.4522L335.857 70.4456Z" fill="white"/>
<path d="M247.294 72.5712L237.864 39.9436L227.158 70.4705L247.294 72.5712Z" fill="#57CD8C"/>
<path d="M247.294 74.9033C246.28 74.9033 245.344 74.2373 245.051 73.2165L237.649 47.6162L229.364 71.2372C228.937 72.4541 227.614 73.0952 226.387 72.6688C225.167 72.2425 224.527 70.9136 224.952 69.6998L235.658 39.173C235.992 38.2144 236.85 37.5702 237.93 37.6107C238.947 37.6387 239.83 38.3203 240.111 39.2944L249.544 71.9188C249.903 73.1543 249.185 74.449 247.947 74.8037C247.728 74.866 247.513 74.8971 247.298 74.8971L247.294 74.9033Z" fill="#0C2718"/>
<path d="M309.667 102.283L321.599 70.4834L294.754 88.624L309.667 102.283Z" fill="#57CD8C"/>
<path d="M309.666 104.617C309.395 104.617 309.117 104.571 308.849 104.468C307.638 104.017 307.027 102.672 307.479 101.468L316.844 76.5148L296.071 90.5536C295.003 91.2756 293.546 90.9986 292.822 89.9312C292.098 88.8668 292.379 87.4166 293.446 86.6946L320.292 68.554C321.131 67.9844 322.248 68.0249 323.05 68.6504C323.849 69.2791 324.152 70.3497 323.793 71.2989L311.86 103.099C311.508 104.035 310.618 104.614 309.67 104.614L309.666 104.617Z" fill="#0C2718"/>
<path d="M353.99 147.076L382.795 128.976L350.417 127.199L353.99 147.076Z" fill="#57CD8C"/>
<path d="M353.993 149.406C353.216 149.406 352.458 149.02 352.014 148.317C351.328 147.228 351.652 145.787 352.748 145.102L375.346 130.899L350.292 129.526C349.003 129.455 348.014 128.356 348.086 127.071C348.154 125.785 349.246 124.774 350.548 124.87L382.923 126.644C383.94 126.7 384.801 127.404 385.057 128.387C385.313 129.371 384.901 130.404 384.04 130.945L355.235 149.045C354.848 149.288 354.417 149.403 353.99 149.403L353.993 149.406Z" fill="#0C2718"/>
<g opacity="0.25">
<path d="M365.282 184.316C369.397 183.805 372.053 177.95 371.215 171.238C370.377 164.527 366.361 159.5 362.247 160.011C358.132 160.522 355.476 166.378 356.314 173.089C357.152 179.801 361.167 184.827 365.282 184.316Z" fill="#0C2718"/>
</g>
<g opacity="0.25">
<path d="M350.858 202.874C353.888 202.498 355.844 198.186 355.227 193.243C354.61 188.3 351.653 184.598 348.622 184.975C345.592 185.351 343.636 189.663 344.253 194.606C344.87 199.549 347.827 203.251 350.858 202.874Z" fill="#0C2718"/>
</g>
<g opacity="0.25">
<path d="M341.827 169.7C345.748 168.691 347.586 162.688 345.931 156.292C344.276 149.896 339.756 145.53 335.834 146.539C331.913 147.548 330.075 153.551 331.73 159.947C333.385 166.343 337.905 170.709 341.827 169.7Z" fill="#0C2718"/>
</g>
<path d="M163.522 115.177C159.072 157.032 98.3543 108.448 141.869 84.6001C151.558 94.0423 158.333 104.368 163.522 115.177Z" fill="white"/>
<g opacity="0.6">
<path d="M262.276 166.409C262.373 179.075 257.81 187.328 247.176 189.846L247.201 189.768C243.141 200.53 241.275 213.087 241.428 227.31C228.668 191.069 246.973 147.904 297.993 148.134C282.974 151.663 271.147 157.819 262.279 166.412L262.276 166.409Z" fill="white"/>
</g>
<path d="M300.786 148.794C315.982 142.947 316.781 112.591 302.074 109.694L244.751 133.8C234.741 144.64 237.175 168.096 249.494 168.006C249.494 168.006 267.74 142.415 300.786 148.794Z" fill="white"/>
<path d="M73.0722 148.759C75.397 136.532 82.3306 124.376 93.8857 118.6C111.014 109.671 133.94 115.55 145.115 131.141C156.757 147.272 152.891 169.06 139.382 182.728C138.602 183.59 137.154 182.613 137.657 181.577C143.904 166.844 150.438 148.971 140.053 134.764C127.225 116.791 97.1779 115.223 85.1141 134.783C82.1652 139.314 80.3023 144.573 79.1789 150.017C78.2647 153.997 72.3326 152.793 73.0753 148.756L73.0722 148.759Z" fill="#0C2718"/>
<path d="M237.231 199.587C236.273 199.587 235.352 199.148 234.753 198.364C217.638 175.994 176.41 163.3 148.251 171.733C146.603 172.228 144.865 171.295 144.369 169.651C143.873 168.008 144.809 166.275 146.456 165.78C175.127 157.191 214.792 168.211 235.359 189.55C240.261 169.558 255.186 153.229 274.808 146.986C293.509 141.032 312.547 145.959 325.725 160.156C326.895 161.417 326.817 163.384 325.553 164.548C324.289 165.712 322.32 165.637 321.15 164.376C309.486 151.81 293.287 147.633 276.702 152.905C257.277 159.086 242.994 176.343 240.317 196.876C240.155 198.124 239.253 199.151 238.033 199.478C237.768 199.55 237.496 199.584 237.228 199.584L237.231 199.587Z" fill="#0C2718"/>
<path d="M240.292 197.067C237.983 207.667 238.445 219.633 243.821 229.324C244.417 230.441 242.773 231.449 242.049 230.394C234.962 220.47 233.028 207.884 234.17 195.893C234.825 191.524 241.3 192.747 240.292 197.067Z" fill="#0C2718"/>
<path d="M326.224 219.98C322.177 232.071 311.42 240.884 299.494 244.628C298.945 244.834 298.336 244.557 298.13 244.009C297.921 243.458 298.211 242.864 298.742 242.646C303.922 240.265 308.771 237.016 312.559 232.768C316.151 228.729 319.031 223.818 320.154 218.555C321.028 214.294 327.347 215.757 326.224 219.98Z" fill="#0C2718"/>
<path d="M115.492 88.7454C136.958 69.3444 159.222 88.011 164.605 111.436C166.256 115.821 171.492 117.769 175.957 115.503C176.946 114.946 178.007 116.319 177.24 117.134C171.13 123.825 160.108 119.618 158.024 111.268C155.868 105.386 153.524 99.4916 149.483 94.9323C140.718 85.0015 127.852 84.3573 116.699 90.4322C115.676 91.0141 114.606 89.5203 115.492 88.7454Z" fill="#0C2718"/>
<path d="M149.948 134.702C139.573 134.702 127.868 125.266 124.267 113.649C122.438 107.751 120.347 92.8503 140.368 81.877L143.37 87.3263C131.94 93.591 127.272 102.289 130.224 111.816C133.107 121.115 143.167 129.191 150.94 128.444C157.653 127.79 159.803 120.695 160.424 114.853L166.624 115.51C164.911 131.612 155.509 134.245 151.546 134.631C151.018 134.684 150.488 134.708 149.951 134.708L149.948 134.702Z" fill="#0C2718"/>
<path d="M228.478 124.277C231.517 136.062 242.832 131.939 250.736 127.877C257.439 124.834 264.064 121.386 270.81 118.052C281.127 113.235 291.664 107.284 303.475 106.379C318.529 105.234 325.802 116.279 326.38 129.907C326.448 131.136 324.676 131.441 324.336 130.264C319.533 112.376 310.64 109.469 293.814 115.034C279.788 119.552 266.882 127.445 253.308 133.538C247.557 137.376 234.825 140.121 229.065 132.67C227.152 130.202 226.518 127.258 226.418 124.563C226.397 123.987 226.849 123.505 227.423 123.483C227.926 123.464 228.359 123.807 228.475 124.274L228.478 124.277Z" fill="#0C2718"/>
<path d="M249.426 171.112C244.314 171.112 239.996 167.984 237.565 162.513C233.883 154.225 234.71 140.087 242.458 131.693C243.622 130.43 245.597 130.349 246.861 131.513C248.128 132.677 248.209 134.641 247.045 135.904C241.194 142.24 240.37 153.475 243.266 159.998C244.264 162.248 246.18 164.866 249.476 164.897C251.204 164.884 252.602 166.266 252.615 167.981C252.627 169.699 251.242 171.099 249.522 171.112H249.429H249.426Z" fill="#0C2718"/>
<path d="M300.786 151.903C299.534 151.903 298.355 151.147 297.877 149.914C297.259 148.311 298.058 146.513 299.665 145.896C306.955 143.089 310.144 133.025 309.445 124.974C309.223 122.431 307.994 114.028 301.472 112.743C299.784 112.41 298.686 110.776 299.019 109.092C299.353 107.409 300.988 106.313 302.68 106.646C309.851 108.059 314.822 114.878 315.655 124.438C316.575 135.001 312.147 147.758 301.909 151.697C301.541 151.841 301.163 151.906 300.789 151.906L300.786 151.903Z" fill="#0C2718"/>
<g opacity="0.3">
<path d="M114.278 117.566C133.063 125.758 143.252 174.381 104.757 196.197C104.757 196.197 142.085 194.536 146.3 167.071C150.516 139.607 142.381 120.887 114.278 117.566Z" fill="#0C2718"/>
</g>
<g opacity="0.3">
<path d="M150.085 132.495C150.085 132.495 169.214 141.309 164.312 164.261L149.67 168.12C149.67 168.12 151.511 137.951 144.144 133.89" fill="#0C2718"/>
</g>
<g opacity="0.3">
<path d="M285.739 146.843C318.366 149.491 317.452 245.575 249.42 233.052C252.016 236.03 262.594 247.464 279.329 248.722C297.459 250.085 315.464 238.953 324.426 220.569C326.898 215.391 331.07 204.862 330.661 191.041C330.483 184.995 329.463 179.617 328.13 175.039C324.848 163.779 316.294 154.735 305.167 150.939C300.112 149.211 293.721 147.699 285.742 146.846L285.739 146.843Z" fill="#0C2718"/>
</g>
</svg>
