<svg width="28" height="28" viewBox="0 0 28 28" fill="none" xmlns="http://www.w3.org/2000/svg">
<path d="M2.40544 14.4061C2.30821 14.1441 2.30821 13.856 2.40544 13.5941C3.35243 11.2979 4.95988 9.3346 7.02401 7.9531C9.08814 6.5716 11.516 5.83411 13.9998 5.83411C16.4836 5.83411 18.9114 6.5716 20.9755 7.9531C23.0397 9.3346 24.6471 11.2979 25.5941 13.5941C25.6913 13.856 25.6913 14.1441 25.5941 14.4061C24.6471 16.7022 23.0397 18.6655 20.9755 20.047C18.9114 21.4285 16.4836 22.166 13.9998 22.166C11.516 22.166 9.08814 21.4285 7.02401 20.047C4.95988 18.6655 3.35243 16.7022 2.40544 14.4061Z" stroke="#237648" stroke-width="1.5" stroke-linecap="round" stroke-linejoin="round"/>
<path d="M14 17.5C15.933 17.5 17.5 15.933 17.5 14C17.5 12.067 15.933 10.5 14 10.5C12.067 10.5 10.5 12.067 10.5 14C10.5 15.933 12.067 17.5 14 17.5Z" stroke="#237648" stroke-width="1.5" stroke-linecap="round" stroke-linejoin="round"/>
</svg>
