<svg width="120" height="120" viewBox="0 0 120 120" fill="none" xmlns="http://www.w3.org/2000/svg">
<g clip-path="url(#clip0_2029_31024)">
<path d="M59.8436 97.7266L62.0453 103.357C62.3147 104.046 61.8035 104.789 61.0609 104.789H56.4853C55.7909 104.789 55.2853 104.134 55.4646 103.467L56.6883 98.9035L59.8444 97.7266H59.8436Z" fill="#57CD8C"/>
<g opacity="0.3">
<path d="M59.8436 97.9238L62.0453 103.555C62.3147 104.244 61.8035 104.986 61.0609 104.986H56.4853C55.7909 104.986 55.2853 104.332 55.4646 103.665L56.6883 99.1008L59.8444 97.9238H59.8436Z" fill="#0C2718"/>
</g>
<path d="M61.0603 105.574H56.4847C55.9064 105.574 55.3731 105.312 55.0208 104.856C54.6685 104.401 54.5523 103.821 54.7008 103.265L55.9245 98.7015C55.9901 98.4564 56.171 98.2584 56.4096 98.1688L59.5656 96.9919C59.9693 96.8403 60.4212 97.0414 60.5784 97.4421L62.7801 103.073C63.0005 103.638 62.9271 104.274 62.5834 104.775C62.239 105.275 61.6694 105.574 61.0603 105.574ZM57.345 99.4966L56.2263 103.669C56.1963 103.779 56.2421 103.861 56.2729 103.9C56.303 103.94 56.3701 104.004 56.4855 104.004H61.0611C61.1843 104.004 61.2523 103.932 61.2815 103.888C61.3115 103.844 61.355 103.755 61.3099 103.641L59.391 98.733L57.345 99.4958V99.4966Z" fill="#0C2718"/>
<path d="M41.0101 21.7511L34.2146 16.4785L36.5712 24.299L41.0101 21.7511Z" fill="#57CD8C"/>
<path d="M36.5704 24.8858C36.316 24.8858 36.0806 24.7209 36.004 24.4663L33.6474 16.6458C33.5732 16.4007 33.6672 16.136 33.8805 15.9914C34.0938 15.8468 34.3758 15.8555 34.5788 16.0134L41.3752 21.286C41.6327 21.4855 41.6785 21.8556 41.4779 22.1117C41.2772 22.3678 40.9051 22.4142 40.6476 22.2138L35.3151 18.0765L37.1384 24.1285C37.2324 24.4396 37.0547 24.768 36.7418 24.8615C36.685 24.878 36.6281 24.8866 36.5712 24.8866L36.5704 24.8858Z" fill="#0C2718"/>
<path d="M54.1548 18.2164L49.1226 11.2578L49.1747 19.4216L54.1548 18.2164Z" fill="#57CD8C"/>
<path d="M49.1746 20.0102C48.8491 20.0102 48.5845 19.7494 48.5829 19.4257L48.5308 11.2619C48.5292 11.0058 48.6943 10.7779 48.9392 10.6986C49.1833 10.62 49.4527 10.7065 49.6028 10.9146L54.6351 17.874C54.8255 18.138 54.7654 18.5057 54.5 18.6958C54.2345 18.886 53.8656 18.8255 53.6736 18.5615L49.7245 13.1011L49.7647 19.4186C49.7663 19.7439 49.5033 20.0087 49.177 20.011H49.173L49.1746 20.0102Z" fill="#0C2718"/>
<path d="M99.2107 50.9238L106.454 46.2782L98.2532 45.916L99.2107 50.9238Z" fill="#57CD8C"/>
<path d="M99.2113 51.5118C99.017 51.5118 98.8266 51.4167 98.7136 51.2423C98.5367 50.9689 98.6157 50.6051 98.8906 50.4284L104.574 46.7829L98.2278 46.5024C97.9007 46.4883 97.6487 46.2133 97.6629 45.8888C97.6771 45.5636 97.9536 45.309 98.2799 45.3271L106.481 45.6893C106.738 45.7003 106.959 45.8763 107.026 46.1237C107.093 46.3712 106.992 46.6328 106.776 46.7719L99.5313 51.4183C99.4325 51.4819 99.3211 51.5118 99.2113 51.5118Z" fill="#0C2718"/>
<path d="M90.564 41.4975C92.4584 39.5578 95.7953 37.1638 98.3786 39.3189L97.5523 40.1611C95.6176 38.131 92.3746 40.1635 90.564 41.4975Z" fill="#0C2718"/>
<path d="M90.4803 49.3273C90.4803 49.3273 96.865 49.8537 97.9631 43.4348C99.141 36.5501 84.6106 12.0069 73.7672 9.6483C65.8838 7.93399 57.2065 19.9177 57.2065 19.9177" fill="#57CD8C"/>
<g opacity="0.6">
<path d="M95.6183 43.816C96.3174 43.211 91.2393 22.567 73.282 12.5585C69.8597 10.6509 69.1108 13.8925 69.9616 14.3828C93.0879 27.6942 94.9191 44.4217 95.6183 43.8167V43.816Z" fill="white"/>
</g>
<path d="M90.9724 50.3272C90.7694 50.3272 90.5782 50.3193 90.3988 50.3044C89.8561 50.2596 89.4524 49.7858 89.4974 49.2461C89.5425 48.7071 90.0228 48.3064 90.5584 48.3497C90.7812 48.3662 96.0615 48.7016 96.9905 43.2704C97.5167 40.1937 94.3875 32.6718 89.5496 25.3848C84.0591 17.115 78.0805 11.591 73.5562 10.6066C66.3965 9.04938 58.0897 20.377 58.0067 20.4909C57.6884 20.9301 57.0706 21.0299 56.6306 20.7133C56.189 20.3967 56.0886 19.7838 56.407 19.3447C56.7767 18.834 65.5607 6.85896 73.9788 8.69033C81.2073 10.2624 88.4278 20.1327 91.1975 24.3038C95.567 30.8852 99.6544 39.4041 98.9371 43.5996C98.0183 48.9672 93.6157 50.3272 90.974 50.3272H90.9724Z" fill="#0C2718"/>
<path d="M86.2039 35.5834C88.3558 33.0316 92.2441 30.4625 95.4871 32.7047L94.7713 33.642C92.083 31.3723 88.3921 33.5973 86.2039 35.5834Z" fill="#0C2718"/>
<path d="M79.6375 28.9555C82.6292 26.5435 88.1014 22.7904 91.7338 25.8851L90.8996 26.7203C88.0675 23.8401 82.3645 27.1225 79.6375 28.9555Z" fill="#0C2718"/>
<path d="M75.415 23.3516C78.0307 21.0001 82.4025 17.3869 86.1811 18.3768L85.7821 19.4846C82.5637 18.3556 77.9596 21.477 75.4158 23.3516H75.415Z" fill="#0C2718"/>
<path d="M69.4592 18.2297C72.0962 15.4021 76.2176 11.6765 80.4283 12.5926L80.0854 13.7193C76.4049 12.5926 72.0867 15.8971 69.4592 18.2297Z" fill="#0C2718"/>
<path d="M115.563 74.8679C114.137 76.8556 111.214 77.0536 109.478 75.3165C106.189 72.0269 103.463 67.749 100.181 68.2196L100.594 55.2845L100.639 53.8585C101.148 55.1447 101.735 56.2414 102.453 57.0106C102.608 57.1756 102.768 57.3241 102.935 57.4576L102.944 57.4647C104.513 58.7131 106.67 58.5073 109.869 55.7276L112.835 52.9487C113.462 52.3619 114.443 52.3281 115.089 52.893C116.292 53.9426 117.188 55.2845 117.811 56.8016C120.125 62.4293 118.719 70.4619 115.561 74.8679H115.563Z" fill="#57CD8C"/>
<path d="M112.341 77.4807C111.006 77.4807 109.726 76.9567 108.778 76.0084C107.998 75.2282 107.253 74.3994 106.534 73.598C104.367 71.1844 102.321 68.9052 100.321 69.192C99.7817 69.2698 99.2824 68.8982 99.2042 68.3616C99.126 67.8257 99.5004 67.3284 100.039 67.2506C103.088 66.813 105.476 69.4741 108.005 72.2914C108.707 73.074 109.433 73.8824 110.176 74.6256C110.811 75.2605 111.689 75.5826 112.595 75.5087C113.469 75.438 114.258 74.9965 114.758 74.2988C118.38 69.247 119.842 58.3436 114.44 53.632C114.181 53.4057 113.773 53.4199 113.513 53.6634L110.547 56.4423C107.992 58.6642 105.859 59.5127 103.996 59.0633C101.66 58.4984 100.437 56.0275 99.7208 54.2189C99.521 53.7145 99.7698 53.1457 100.277 52.9469C100.783 52.7481 101.356 52.9956 101.556 53.5C102.427 55.6991 103.378 56.8949 104.462 57.1573C105.643 57.4401 107.24 56.7126 109.221 54.9904L112.16 52.2359C113.17 51.2907 114.709 51.257 115.741 52.1573C122.146 57.7434 120.358 69.8685 116.365 75.438C115.527 76.6079 114.211 77.3464 112.757 77.465C112.617 77.476 112.479 77.4815 112.342 77.4815L112.341 77.4807Z" fill="#0C2718"/>
<path d="M102.202 60.1969C104.763 61.4775 107.878 61.6385 110.639 60.9212C111.606 60.6973 112.523 60.3068 113.434 59.9117C113.727 59.7899 113.931 60.2306 113.641 60.3705C111.841 61.329 109.847 62.0109 107.803 62.1783C105.692 62.3464 103.62 62.1044 101.638 61.2316C101.341 61.0956 101.21 60.746 101.347 60.4506C101.494 60.1269 101.901 60.0099 102.202 60.1969Z" fill="#0C2718"/>
<path d="M101.218 62.2817C105.048 64.0447 109.437 64.7628 113.645 64.326C113.968 64.2828 114.045 64.777 113.715 64.8257C110.454 65.3426 107.095 65.1588 103.89 64.3676C102.811 64.1005 101.772 63.7878 100.705 63.3424C100.403 63.2167 100.262 62.871 100.388 62.5716C100.522 62.2511 100.911 62.1167 101.217 62.2817H101.218Z" fill="#0C2718"/>
<path d="M101.102 64.4921C104.293 66.2724 107.888 67.4054 111.497 68.0158C111.815 68.063 111.757 68.5516 111.43 68.5163C107.656 68.1038 103.951 67.1728 100.518 65.5158C99.8007 65.1348 100.399 64.0749 101.102 64.4921Z" fill="#0C2718"/>
<g opacity="0.3">
<path d="M115.563 74.8685C114.137 76.8562 111.214 77.0542 109.478 75.3171C106.189 72.0276 103.463 67.7496 100.181 68.2203L100.594 55.2852L102.454 57.0113L102.936 57.4583L102.945 57.4654C103.636 72.7464 118.501 72.081 117.81 56.8015H117.812C120.126 62.4292 118.72 70.4617 115.562 74.8677L115.563 74.8685Z" fill="#0C2718"/>
</g>
<path d="M18.6305 67.3491C15.4634 69.3297 12.1131 70.6842 8.61023 71.5303C7.19061 71.8737 5.8334 70.7981 5.80338 69.3478C5.74729 66.6938 6.04986 64.1695 6.86277 61.8369C7.26487 60.6764 8.41747 59.9458 9.64749 60.0393L16.1452 60.5303C17.5451 62.1118 18.4148 64.3353 18.6313 67.3483L18.6305 67.3491Z" fill="#57CD8C"/>
<g opacity="0.6">
<path d="M17.1001 61.851L10.9927 61.3906C9.76344 61.2971 8.61084 62.0278 8.20794 63.1882C7.39504 65.5208 7.09326 68.0452 7.14856 70.6991C7.15488 70.9662 7.20465 71.2192 7.29234 71.4518C6.44863 71.1375 5.82295 70.3275 5.80241 69.3478C5.74632 66.6938 6.04889 64.1695 6.86179 61.8369C7.2639 60.6764 8.4165 59.9458 9.64652 60.0393L16.1442 60.5303C16.4966 60.9302 16.8173 61.3686 17.1001 61.851Z" fill="white"/>
</g>
<path d="M81.3977 94.0039L87.0935 98.739L85.7569 90.8809L81.3977 94.0039Z" fill="#57CD8C"/>
<path d="M63.7944 100.202L66.512 106.329L68.1473 99.4531L63.7944 100.202Z" fill="#57CD8C"/>
<path d="M40.9336 96.8164L41.6051 105.19L45.8655 98.6399L40.9336 96.8164Z" fill="#57CD8C"/>
<path d="M26.8014 86.375L21.9089 95.5122L30.8564 90.4691L26.8014 86.375Z" fill="#57CD8C"/>
<path d="M19.6764 72.834L13.1992 78.4899L21.3646 77.6469L19.6764 72.834Z" fill="#57CD8C"/>
<path d="M98.7026 70.3678C97.0721 75.6969 94.3284 80.722 90.5483 85.0706C69.5811 109.202 32.3756 102.411 20.9941 78.1764C18.0917 71.9964 16.868 64.6827 18.0214 56.46C16.3016 49.7874 18.0111 41.9371 24.3516 37.3418C25.5872 34.8606 27.0344 32.6097 28.6571 30.5882V30.5867C46.5631 8.2637 85.7768 13.7311 97.7294 44.0764C98.8954 47.0384 99.6838 50.0899 100.106 53.1673C100.9 58.9505 100.404 64.8234 98.7034 70.3678H98.7026Z" fill="#57CD8C"/>
<g opacity="0.6">
<path d="M18.6279 59.519C18.5379 60.1609 18.4676 60.7957 18.4067 61.4266C18.4328 60.692 18.4842 59.9464 18.5497 59.1953C18.5758 59.3029 18.6003 59.4122 18.6287 59.519H18.6279Z" fill="white"/>
</g>
<g opacity="0.6">
<path d="M25.14 37.7343C26.3755 35.2532 27.8228 33.0023 29.4454 30.9808V30.9792C47.3514 8.65628 86.5659 14.1237 98.5177 44.469C99.6837 47.431 100.472 50.4825 100.895 53.5599C100.956 54.0014 101.006 54.443 101.051 54.8853C100.592 52.2887 99.8718 49.7172 98.8756 47.2102C90.9646 27.3008 71.259 18.0795 53.5513 20.3815C53.7227 20.552 53.8483 20.7437 53.9099 20.9605C54.3507 22.5067 51.6482 24.6217 47.8752 25.6847C44.1022 26.7477 40.6862 26.3564 40.2454 24.8102C40.228 24.7482 40.2233 24.6837 40.2154 24.6201C36.1138 26.8247 32.3968 29.8298 29.3111 33.6528V33.6544C27.679 35.6743 26.2238 37.9245 24.982 40.4048C20.9696 43.2905 18.8042 47.4655 18.1809 51.8275C18.1983 46.5463 20.3431 41.2101 25.1384 37.7351L25.14 37.7343Z" fill="white"/>
</g>
<path d="M84.1532 92.3158C84.1532 92.3158 84.0892 92.5335 83.966 92.9286C60.5711 108.77 28.7937 98.3505 20.0271 74.138C21.2239 68.1725 26.9253 63.7587 34.9564 63.8875C40.8166 64.2238 44.5848 64.7588 50.238 67.4513C59.0085 71.6278 66.4716 81.1052 77.3648 88.8943C77.3648 88.8943 79.561 91.6119 81.754 90.4978L84.1532 92.315V92.3158Z" fill="#89DCAE"/>
<g opacity="0.3">
<path d="M19.1699 66.9868C30.368 91.0515 66.9716 97.7949 87.5999 73.833C91.3192 69.5143 94.0178 64.5245 95.6223 59.2331C97.271 53.8089 97.7663 48.0689 97.034 42.4082C97.1509 42.6903 97.2694 42.97 97.3808 43.2559C98.5279 46.1967 99.3037 49.2269 99.72 52.2832C100.501 58.0263 100.013 63.8575 98.3399 69.3626C96.7354 74.654 94.036 79.6438 90.3175 83.9625C69.6892 107.924 33.0856 101.181 21.8875 77.1163C20.3407 73.7922 19.2837 70.1349 18.8152 66.1862C18.9321 66.4541 19.0474 66.7236 19.1699 66.9868Z" fill="#0C2718"/>
</g>
<path d="M58.6823 101.481C52.0622 101.481 45.6925 100.041 40.2328 97.5792C23.9708 90.2482 15.3899 74.6757 17.8057 56.9064C15.901 49.2234 18.4622 41.4902 24.3634 37.0858C27.8418 30.2089 33.1695 24.6818 39.7841 21.0905C46.0361 17.6965 53.2843 16.0741 60.7561 16.3954C68.8811 16.7458 76.7202 19.3432 83.4281 23.9063C90.6218 28.8002 96.1572 35.7871 99.4365 44.1119C105.041 58.3434 102.224 74.4337 92.084 86.1054C82.5322 97.0992 70.2273 101.481 58.6831 101.481H58.6823ZM58.8198 18.3156C44.4348 18.3156 32.2657 25.6411 26.024 38.17C25.9537 38.3114 25.8494 38.434 25.7214 38.5274C20.2879 42.4652 17.9503 49.562 19.7649 56.6086C19.7965 56.732 19.8036 56.8608 19.7862 56.9873C16.9454 77.2503 28.9067 90.3189 41.0481 95.7926C55.3588 102.244 76.2281 101.354 90.5917 84.8224C100.252 73.7038 102.938 58.3787 97.5998 44.8269C91.4512 29.2158 77.3009 19.0729 60.6707 18.3556C60.0506 18.3289 59.4328 18.3156 58.8198 18.3156Z" fill="#0C2718"/>
<path d="M19.7245 56.4872C20.0239 57.8001 21.1425 59.0728 22.2153 59.9583C22.3623 60.0714 22.3883 60.2835 22.2706 60.4273C22.175 60.5444 22.0147 60.5789 21.8819 60.5216C20.2743 59.7815 18.8341 58.8418 17.8933 57.2155C17.138 55.8414 19.3239 54.9725 19.7245 56.4864V56.4872Z" fill="#0C2718"/>
<path d="M74.3779 77.3497C73.9363 93.623 81.4776 91.7642 86.2918 85.0185C87.115 83.8644 87.2027 82.3394 86.5391 81.0886C85.9545 79.9871 84.948 78.5384 83.2164 76.8516L74.3787 77.3505L74.3779 77.3497Z" fill="#57CD8C"/>
<g opacity="0.3">
<path d="M86.9301 82.3017C87.0707 83.243 86.8621 84.2195 86.2918 85.0185C81.6845 91.4743 74.5809 93.4518 74.3652 79.3477C77.5481 89.1598 83.2582 87.5664 86.9301 82.3017Z" fill="#0C2718"/>
</g>
<path d="M74.7285 77.3599C74.9482 80.7328 75.3139 90.9605 80.7657 88.8745C82.7833 88.0598 84.4921 86.2135 85.7371 84.4199C86.5326 83.1322 86.1827 81.5608 85.3627 80.3643C84.6999 79.2149 83.8625 78.1401 82.9706 77.1014C82.6901 76.7864 83.1388 76.3299 83.4611 76.6033C85.4962 78.4064 88.4894 81.0894 87.6102 84.1174C87.4522 84.694 87.1109 85.2715 86.7483 85.7272C86.2143 86.4492 85.6289 87.1477 84.9937 87.7903C82.1197 90.8293 77.5228 92.443 75.1528 87.8783C73.6068 84.5888 73.7529 80.783 74.0263 77.3418C74.0681 76.9152 74.7112 76.9309 74.7278 77.3607L74.7285 77.3599Z" fill="#0C2718"/>
<path d="M77.4874 78.5898C78.0759 79.7801 78.3493 81.0748 78.5649 82.3728C78.6305 82.8057 78.6842 83.2417 78.6984 83.6872C78.7048 83.8859 78.5476 84.0525 78.3469 84.058C78.1976 84.0627 78.0664 83.9763 78.0072 83.849C77.6414 83.0437 77.3902 82.2054 77.1753 81.3538C76.9628 80.499 76.7954 79.641 76.7961 78.7517C76.7985 78.5505 76.9644 78.3902 77.1666 78.3926C77.3065 78.3942 77.4266 78.4743 77.4874 78.5898Z" fill="#0C2718"/>
<path d="M79.5215 77.4853C80.2562 78.7824 80.7673 80.1573 81.1773 81.577C81.3093 82.05 81.4238 82.5292 81.4933 83.0242C81.521 83.2214 81.3827 83.4037 81.1844 83.4312C81.0367 83.4516 80.8969 83.3801 80.8242 83.2599C80.5651 82.8317 80.351 82.3878 80.1543 81.9376C79.5752 80.5776 79.102 79.1894 78.8524 77.721C78.7852 77.3344 79.3319 77.1459 79.5215 77.4853Z" fill="#0C2718"/>
<path d="M81.6434 77.3216C82.5684 78.493 83.2826 79.8106 83.6223 81.2617C83.6602 81.4605 83.5299 81.653 83.3292 81.6907C83.1989 81.7158 83.0701 81.6679 82.9871 81.5768C82.4839 81.0158 82.1197 80.3755 81.7879 79.7108C81.4688 79.0485 81.1788 78.372 81.0074 77.6367C80.9616 77.441 81.084 77.2462 81.2807 77.2006C81.419 77.1692 81.5573 77.2203 81.6426 77.3208L81.6434 77.3216Z" fill="#0C2718"/>
<path d="M8.07614 72.3793C7.41413 72.3793 6.76476 72.1624 6.2244 71.7492C5.4747 71.1756 5.03387 70.3059 5.01333 69.3631C4.95171 66.4326 5.31196 63.8855 6.11617 61.5788C6.63362 60.0908 8.11485 59.1354 9.70669 59.2564L18.1493 59.8684C18.5838 59.8999 18.9109 60.2754 18.8793 60.7083C18.8477 61.1404 18.4732 61.4649 18.0348 61.4335L9.58977 60.8214C8.70024 60.7562 7.89129 61.2779 7.60768 62.0918C6.86667 64.221 6.53407 66.5882 6.59253 69.3301C6.60201 69.7952 6.81926 70.2234 7.1874 70.5047C7.5421 70.7757 7.99319 70.8716 8.42374 70.7679C11.9455 69.917 15.2374 68.5429 18.2094 66.684C18.5783 66.453 19.0657 66.5638 19.2972 66.9307C19.5295 67.2976 19.4181 67.7824 19.0492 68.0126C15.9334 69.9618 12.4835 71.4019 8.79661 72.2928C8.55804 72.3502 8.3163 72.3785 8.07693 72.3785L8.07614 72.3793Z" fill="#0C2718"/>
<path d="M17.2456 62.1886L11.357 63.4716C11.1215 63.5243 11.0181 63.1754 11.2479 63.0945L16.9177 61.0573C17.7085 60.8027 18.0545 61.982 17.2464 62.1878L17.2456 62.1886Z" fill="#0C2718"/>
<path d="M18.154 62.7995L11.804 67.332C11.6097 67.4758 11.3719 67.1827 11.5583 67.0248L17.4161 61.8787C18.0394 61.3562 18.8081 62.3077 18.154 62.7995Z" fill="#0C2718"/>
<path d="M87.0937 99.5227C86.9128 99.5227 86.7335 99.4607 86.5881 99.3405L80.8923 94.6053C80.5581 94.3272 80.5131 93.8322 80.7927 93.4999C81.0724 93.1675 81.5693 93.1235 81.9035 93.4009L85.9585 96.7722L84.9789 91.0109C84.9062 90.5835 85.1954 90.1789 85.6251 90.1066C86.058 90.0351 86.4617 90.3227 86.5344 90.7493L87.8711 98.6075C87.9264 98.9311 87.7723 99.2556 87.4856 99.419C87.3631 99.489 87.228 99.5235 87.0929 99.5235L87.0937 99.5227Z" fill="#0C2718"/>
<path d="M66.5111 106.916C66.2789 106.916 66.0656 106.781 65.97 106.565L63.2532 100.438C63.1213 100.14 63.2564 99.7929 63.5558 99.6617C63.856 99.5297 64.2043 99.6656 64.3363 99.9626L66.3421 104.486L67.5721 99.3168C67.6472 99.0002 67.9647 98.803 68.2847 98.88C68.6023 98.9546 68.7997 99.272 68.7239 99.5878L67.0878 106.463C67.0294 106.709 66.8192 106.891 66.5657 106.913C66.5475 106.915 66.5293 106.916 66.5111 106.916V106.916Z" fill="#0C2718"/>
<path d="M41.6051 105.973C41.5411 105.973 41.4763 105.966 41.4123 105.95C41.0845 105.867 40.8459 105.587 40.8182 105.251L40.1467 96.8787C40.1128 96.4466 40.4367 96.0687 40.8704 96.0341C41.3057 95.9972 41.6849 96.3217 41.7196 96.7538L42.2063 102.82L45.2027 98.2135C45.4397 97.8498 45.9287 97.7453 46.2937 97.981C46.6594 98.2167 46.7645 98.7022 46.5283 99.066L42.2679 105.615C42.1201 105.842 41.8689 105.973 41.6051 105.973Z" fill="#0C2718"/>
<path d="M21.9097 96.2975C21.7082 96.2975 21.51 96.2212 21.3591 96.0751C21.1078 95.8316 21.0478 95.4521 21.2129 95.1441L26.1053 86.0077C26.3107 85.6251 26.7887 85.4805 27.1726 85.684C27.5574 85.8875 27.7027 86.3628 27.4981 86.7454L23.8807 93.4997L30.4677 89.7875C30.8469 89.5738 31.3288 89.7066 31.5437 90.0837C31.7585 90.4608 31.625 90.9393 31.2466 91.153L22.2992 96.1953C22.1775 96.2637 22.0432 96.2975 21.9105 96.2975H21.9097Z" fill="#0C2718"/>
<path d="M13.1984 79.274C12.8872 79.274 12.6028 79.0918 12.4756 78.8034C12.3381 78.4907 12.4203 78.1254 12.6786 77.8999L19.1558 72.2439C19.4836 71.958 19.9821 71.9902 20.2689 72.3154C20.5556 72.6407 20.524 73.1372 20.1962 73.4232L15.5795 77.4552L21.2824 76.8668C21.7169 76.8212 22.104 77.1355 22.1483 77.566C22.1933 77.9973 21.8781 78.3831 21.4452 78.4279L13.2798 79.2709C13.2522 79.274 13.2253 79.2748 13.1984 79.2748V79.274Z" fill="#0C2718"/>
<path d="M85.0277 26.2832L85.0297 26.2883L85.0247 26.2852L85.0277 26.2832Z" fill="white"/>
<path d="M62.6061 26.8208L60.2188 18.584L57.5083 26.2905L62.6061 26.8208Z" fill="#57CD8C"/>
<path d="M62.6063 27.4092C62.3495 27.4092 62.1125 27.241 62.0383 26.9833L60.1644 20.5205L58.067 26.4836C57.9588 26.7908 57.6238 26.9527 57.3133 26.8451C57.0044 26.7374 56.8425 26.4019 56.9499 26.0955L59.6604 18.389C59.7449 18.147 59.9622 17.9844 60.2355 17.9946C60.4931 18.0017 60.7166 18.1737 60.7877 18.4196L63.1759 26.6557C63.2667 26.9676 63.085 27.2945 62.7714 27.384C62.7161 27.3997 62.6616 27.4076 62.6071 27.4076L62.6063 27.4092Z" fill="#0C2718"/>
<path d="M78.3965 34.3208L81.4174 26.293L74.6211 30.8726L78.3965 34.3208Z" fill="#57CD8C"/>
<path d="M78.3965 34.9106C78.3277 34.9106 78.2574 34.8988 78.1895 34.8729C77.883 34.759 77.7281 34.4196 77.8427 34.1155L80.2134 27.8161L74.9545 31.3602C74.6843 31.5425 74.3153 31.4726 74.1321 31.2031C73.9488 30.9344 74.0199 30.5683 74.2901 30.386L81.0864 25.8064C81.2989 25.6626 81.5817 25.6728 81.7847 25.8308C81.987 25.9895 82.0636 26.2597 81.9727 26.4994L78.9518 34.5272C78.8625 34.7637 78.6374 34.9098 78.3972 34.9098L78.3965 34.9106Z" fill="#0C2718"/>
<path d="M89.6177 45.6293L96.9101 41.0599L88.7131 40.6113L89.6177 45.6293Z" fill="#57CD8C"/>
<path d="M89.6185 46.2172C89.4217 46.2172 89.2298 46.1198 89.1176 45.9423C88.9438 45.6673 89.026 45.3035 89.3032 45.1307L95.0244 41.5449L88.6815 41.1984C88.3553 41.1804 88.1048 40.903 88.123 40.5786C88.1404 40.2541 88.4169 39.9987 88.7463 40.0231L96.9425 40.4709C97.2 40.4851 97.4181 40.6626 97.4828 40.9109C97.5476 41.1592 97.4433 41.42 97.2253 41.5567L89.9329 46.1261C89.8349 46.1874 89.7259 46.2164 89.6177 46.2164L89.6185 46.2172Z" fill="#0C2718"/>
<g opacity="0.25">
<path d="M92.4764 55.031C93.5181 54.902 94.1905 53.4238 93.9783 51.7295C93.7661 50.0352 92.7496 48.7662 91.7079 48.8953C90.6662 49.0243 89.9938 50.5024 90.206 52.1968C90.4182 53.8911 91.4347 55.16 92.4764 55.031Z" fill="#0C2718"/>
</g>
<g opacity="0.25">
<path d="M88.8247 59.7158C89.5919 59.6208 90.0871 58.5322 89.9309 57.2844C89.7746 56.0365 89.026 55.102 88.2588 55.1971C87.4916 55.2921 86.9963 56.3807 87.1526 57.6285C87.3089 58.8763 88.0575 59.8109 88.8247 59.7158Z" fill="#0C2718"/>
</g>
<g opacity="0.25">
<path d="M86.5384 51.3408C87.5312 51.086 87.9964 49.5705 87.5774 47.9559C87.1585 46.3413 86.014 45.2389 85.0212 45.4937C84.0284 45.7485 83.5633 47.264 83.9822 48.8786C84.4012 50.4932 85.5456 51.5956 86.5384 51.3408Z" fill="#0C2718"/>
</g>
<path d="M41.398 37.5765C40.2715 48.1429 24.8998 35.8779 35.9163 29.8574C38.3692 32.2411 40.0843 34.8479 41.398 37.5765Z" fill="white"/>
<g opacity="0.6">
<path d="M66.3989 50.5101C66.4234 53.7077 65.2684 55.7913 62.5761 56.4269L62.5824 56.4073C61.5546 59.1241 61.0822 62.2942 61.1209 65.8847C57.8906 56.7357 62.5247 45.8386 75.4411 45.8967C71.6389 46.7877 68.6448 48.3417 66.3997 50.5109L66.3989 50.5101Z" fill="white"/>
</g>
<path d="M76.1483 46.0624C79.9956 44.5862 80.1978 36.9229 76.4746 36.1914L61.9624 42.2771C59.4281 45.0136 60.0443 50.9351 63.1632 50.9123C63.1632 50.9123 67.7823 44.4518 76.1483 46.0624Z" fill="white"/>
<path d="M18.4993 46.0543C19.0879 42.9675 20.8432 39.8987 23.7686 38.4405C28.1049 36.1864 33.9089 37.6706 36.7379 41.6067C39.6854 45.6788 38.7066 51.1792 35.2867 54.6298C35.0892 54.8474 34.7226 54.6007 34.8498 54.3391C36.4314 50.6198 38.0856 46.1077 35.4565 42.5212C32.2089 37.984 24.602 37.5881 21.5479 42.5259C20.8014 43.6698 20.3297 44.9976 20.0454 46.3717C19.8139 47.3766 18.3121 47.0725 18.5001 46.0535L18.4993 46.0543Z" fill="#0C2718"/>
<path d="M60.0584 58.8851C59.8159 58.8851 59.5829 58.7743 59.4312 58.5763C55.0981 52.929 44.6607 49.7243 37.5318 51.8534C37.1147 51.9784 36.6746 51.7427 36.549 51.3278C36.4234 50.913 36.6604 50.4754 37.0775 50.3505C44.336 48.182 54.3776 50.9641 59.5845 56.3513C60.8255 51.3043 64.6041 47.1819 69.5715 45.6059C74.306 44.1029 79.1257 45.3466 82.4619 48.9308C82.7581 49.249 82.7384 49.7455 82.4184 50.0393C82.0985 50.3332 81.6 50.3143 81.3037 49.9961C78.3507 46.8236 74.2499 45.7693 70.0511 47.1002C65.1334 48.6605 61.5176 53.017 60.8397 58.2008C60.7987 58.5158 60.5704 58.7751 60.2615 58.8576C60.1943 58.8757 60.1256 58.8843 60.0577 58.8843L60.0584 58.8851Z" fill="#0C2718"/>
<path d="M60.8334 58.2498C60.2489 60.9258 60.3658 63.9466 61.7269 66.3932C61.8778 66.6752 61.4615 66.9298 61.2782 66.6634C59.4841 64.158 58.9943 60.9808 59.2835 57.9536C59.4494 56.8505 61.0886 57.1593 60.8334 58.2498Z" fill="#0C2718"/>
<path d="M82.5883 64.0352C81.5637 67.0875 78.8406 69.3125 75.8213 70.2576C75.6822 70.3095 75.5282 70.2395 75.476 70.1013C75.4231 69.9622 75.4966 69.8121 75.6309 69.7571C76.9423 69.1561 78.1699 68.3359 79.1289 67.2635C80.0382 66.2437 80.7674 65.0039 81.0518 63.6754C81.273 62.5998 82.8727 62.969 82.5883 64.0352Z" fill="#0C2718"/>
<path d="M29.2385 30.903C34.6729 26.0051 40.3095 30.7175 41.6722 36.6312C42.0901 37.7382 43.4157 38.23 44.5462 37.6581C44.7966 37.5174 45.0652 37.8639 44.8709 38.0697C43.3241 39.7589 40.5338 38.6967 40.0061 36.5888C39.4602 35.1039 38.8669 33.6158 37.8439 32.4648C35.6248 29.9578 32.3677 29.7952 29.5442 31.3288C29.2851 31.4757 29.0141 31.0986 29.2385 30.903Z" fill="#0C2718"/>
<path d="M37.9615 42.5057C35.3348 42.5057 32.3715 40.1236 31.4599 37.1907C30.9969 35.7019 30.4676 31.9402 35.5362 29.1699L36.2962 30.5456C33.4025 32.1271 32.2206 34.3231 32.968 36.728C33.6979 39.0755 36.2449 41.1143 38.2127 40.9257C39.912 40.7608 40.4563 38.9695 40.6135 37.4948L42.1832 37.6605C41.7495 41.7256 39.3693 42.3902 38.366 42.4876C38.2325 42.501 38.0982 42.5073 37.9623 42.5073L37.9615 42.5057Z" fill="#0C2718"/>
<path d="M57.8426 39.8729C58.6121 42.8482 61.4766 41.8072 63.4776 40.782C65.1746 40.0136 66.8517 39.1431 68.5597 38.3016C71.1714 37.0854 73.8392 35.5832 76.8293 35.3546C80.6403 35.0655 82.4817 37.8538 82.6279 41.2942C82.6453 41.6045 82.1965 41.6815 82.1104 41.3846C80.8946 36.8686 78.6432 36.1348 74.3835 37.5395C70.8325 38.6803 67.5651 40.6727 64.1286 42.2111C62.6726 43.1798 59.4495 43.8727 57.9911 41.9919C57.5069 41.3688 57.3465 40.6256 57.3212 39.9452C57.3157 39.7999 57.4303 39.6781 57.5756 39.6726C57.7028 39.6679 57.8126 39.7543 57.8418 39.8722L57.8426 39.8729Z" fill="#0C2718"/>
<path d="M63.1457 51.6966C61.8516 51.6966 60.7583 50.907 60.1429 49.5258C59.2107 47.4336 59.42 43.8644 61.3816 41.7454C61.6763 41.4265 62.1763 41.406 62.4963 41.6999C62.817 41.9937 62.8375 42.4895 62.5429 42.8084C61.0616 44.408 60.8531 47.2443 61.5862 48.891C61.839 49.4591 62.3241 50.1198 63.1583 50.1276C63.5959 50.1245 63.9499 50.4733 63.953 50.9062C63.9562 51.3399 63.6054 51.6935 63.1701 51.6966H63.1464H63.1457Z" fill="#0C2718"/>
<path d="M76.1483 46.8483C75.8315 46.8483 75.5329 46.6574 75.412 46.3463C75.2556 45.9417 75.4578 45.4876 75.8647 45.332C77.7101 44.6233 78.5175 42.0825 78.3405 40.05C78.2844 39.4081 77.9732 37.2868 76.3221 36.9624C75.8947 36.8783 75.6166 36.4658 75.7011 36.0408C75.7857 35.6157 76.1996 35.3392 76.6278 35.4233C78.4432 35.7799 79.7017 37.5013 79.9126 39.9149C80.1457 42.5814 79.0246 45.8018 76.4327 46.7965C76.3395 46.8326 76.2439 46.8491 76.1491 46.8491L76.1483 46.8483Z" fill="#0C2718"/>
<g opacity="0.3">
<path d="M28.931 38.1797C33.6868 40.2475 36.2661 52.5227 26.5208 58.0302C26.5208 58.0302 35.9707 57.6106 37.0379 50.6772C38.1052 43.7437 36.0457 39.018 28.931 38.1797Z" fill="#0C2718"/>
</g>
<g opacity="0.3">
<path d="M37.9963 41.9492C37.9963 41.9492 42.839 44.1742 41.5979 49.9684L37.8913 50.9427C37.8913 50.9427 38.3574 43.3265 36.4922 42.3012" fill="#0C2718"/>
</g>
<g opacity="0.3">
<path d="M72.339 45.5703C80.5992 46.2389 80.3677 70.4954 63.1443 67.3339C63.8016 68.0857 66.4796 70.9723 70.7164 71.2897C75.3062 71.6338 79.8645 68.8235 82.1333 64.1826C82.759 62.8753 83.8152 60.2174 83.7118 56.7283C83.6667 55.2017 83.4084 53.8441 83.0711 52.6884C82.24 49.8459 80.0746 47.5627 77.2575 46.6042C75.9777 46.1682 74.3598 45.7864 72.3398 45.5711L72.339 45.5703Z" fill="#0C2718"/>
</g>
</g>
<defs>
<clipPath id="clip0_2029_31024">
<rect width="120" height="103" fill="white" transform="translate(0 8.5)"/>
</clipPath>
</defs>
</svg>
