<svg width="222" height="75" viewBox="0 0 222 75" fill="none" xmlns="http://www.w3.org/2000/svg">
<path fill-rule="evenodd" clip-rule="evenodd" d="M5.78005 8.29377L16.538 3.51179C18.3297 2.71536 20.4353 3.36868 21.459 5.0387L34.4289 26.1964L27.6511 51.4007C27.4404 51.1923 27.25 50.9563 27.0855 50.6936L4.05678 13.9233C2.79833 11.9139 3.61141 9.25774 5.78005 8.29377ZM27.6511 51.4007L25.1441 60.7229C23.9541 65.1482 26.8237 69.6392 31.3452 70.4277L38.6921 71.7089C42.5684 72.3849 46.3434 70.0776 47.5026 66.3237L61.4896 21.0293C62.0796 19.1187 61.544 17.0392 60.1039 15.6496C59.006 14.5901 57.5047 14.053 55.9825 14.1752L42.7488 15.2371C39.4561 15.5013 36.6857 17.8042 35.8293 20.989L34.4289 26.1964L42.8498 39.9333C43.9109 41.6644 43.4647 43.9185 41.8237 45.1164L32.7036 51.7741C31.1225 52.9283 28.981 52.7159 27.6511 51.4007Z" fill="url(#paint0_linear_332_4293)"/>
<path d="M76.0982 44.1316V26.0693H82.5366L85.7164 41.8093H86.1895L89.3693 26.0693H95.8077V44.1316H92.444V28.5722H91.9709L88.8174 44.1316H83.0885L79.935 28.5722H79.4619V44.1316H76.0982Z" fill="url(#paint1_linear_332_4293)"/>
<path d="M105.579 44.4929C104.283 44.4929 103.118 44.2348 102.084 43.7188C101.051 43.2027 100.236 42.4544 99.6402 41.4739C99.0446 40.4933 98.7467 39.315 98.7467 37.9388V37.526C98.7467 36.1498 99.0446 34.9714 99.6402 33.9909C100.236 33.0104 101.051 32.2621 102.084 31.746C103.118 31.2299 104.283 30.9719 105.579 30.9719C106.876 30.9719 108.041 31.2299 109.075 31.746C110.108 32.2621 110.923 33.0104 111.519 33.9909C112.114 34.9714 112.412 36.1498 112.412 37.526V37.9388C112.412 39.315 112.114 40.4933 111.519 41.4739C110.923 42.4544 110.108 43.2027 109.075 43.7188C108.041 44.2348 106.876 44.4929 105.579 44.4929ZM105.579 41.6029C106.596 41.6029 107.436 41.2846 108.102 40.6482C108.768 39.9945 109.101 39.0656 109.101 37.8614V37.6034C109.101 36.3992 108.768 35.4789 108.102 34.8424C107.454 34.1887 106.613 33.8619 105.579 33.8619C104.563 33.8619 103.722 34.1887 103.057 34.8424C102.391 35.4789 102.058 36.3992 102.058 37.6034V37.8614C102.058 39.0656 102.391 39.9945 103.057 40.6482C103.722 41.2846 104.563 41.6029 105.579 41.6029Z" fill="url(#paint2_linear_332_4293)"/>
<path d="M115.468 44.1316V31.3331H118.727V33.0104H119.2C119.41 32.5631 119.805 32.1417 120.383 31.746C120.961 31.3331 121.837 31.1267 123.011 31.1267C124.027 31.1267 124.912 31.3589 125.665 31.8234C126.436 32.2707 127.031 32.8985 127.452 33.7071C127.872 34.4984 128.083 35.4273 128.083 36.4938V44.1316H124.771V36.7519C124.771 35.7885 124.526 35.066 124.036 34.5844C123.563 34.1027 122.879 33.8619 121.986 33.8619C120.97 33.8619 120.181 34.1973 119.621 34.8682C119.06 35.5219 118.78 36.4422 118.78 37.6292V44.1316H115.468Z" fill="url(#paint3_linear_332_4293)"/>
<path d="M137.601 44.4929C136.305 44.4929 135.157 44.2262 134.159 43.693C133.178 43.1425 132.407 42.377 131.846 41.3965C131.303 40.3987 131.031 39.229 131.031 37.8872V37.5776C131.031 36.2358 131.303 35.0746 131.846 34.0941C132.389 33.0964 133.151 32.3309 134.132 31.7976C135.113 31.2471 136.252 30.9719 137.549 30.9719C138.828 30.9719 139.94 31.2557 140.886 31.8234C141.832 32.3739 142.568 33.148 143.094 34.1457C143.619 35.1262 143.882 36.2702 143.882 37.5776V38.6871H134.395C134.43 39.5644 134.763 40.2783 135.394 40.8288C136.024 41.3793 136.795 41.6545 137.706 41.6545C138.635 41.6545 139.318 41.4567 139.756 41.061C140.194 40.6654 140.527 40.2267 140.755 39.745L143.462 41.1384C143.216 41.5857 142.857 42.0759 142.384 42.6092C141.929 43.1253 141.315 43.5725 140.545 43.951C139.774 44.3122 138.793 44.4929 137.601 44.4929ZM134.421 36.2616H140.518C140.448 35.5219 140.142 34.9284 139.598 34.4812C139.073 34.0339 138.381 33.8103 137.522 33.8103C136.629 33.8103 135.919 34.0339 135.394 34.4812C134.868 34.9284 134.544 35.5219 134.421 36.2616Z" fill="url(#paint4_linear_332_4293)"/>
<path d="M148.248 49.2923V46.4539H155.344C155.834 46.4539 156.08 46.1959 156.08 45.6798V42.4544H155.607C155.466 42.7468 155.247 43.0393 154.95 43.3317C154.652 43.6242 154.249 43.865 153.741 44.0542C153.233 44.2434 152.584 44.338 151.796 44.338C150.78 44.338 149.886 44.1144 149.116 43.6672C148.362 43.2027 147.775 42.5662 147.355 41.7577C146.934 40.9492 146.724 40.0203 146.724 38.9709V31.3331H150.035V38.7129C150.035 39.6762 150.272 40.3987 150.745 40.8804C151.235 41.3621 151.927 41.6029 152.821 41.6029C153.837 41.6029 154.625 41.276 155.186 40.6224C155.747 39.9515 156.027 39.0225 156.027 37.8356V31.3331H159.338V46.4023C159.338 47.2796 159.075 47.9763 158.55 48.4924C158.024 49.0257 157.323 49.2923 156.448 49.2923H148.248Z" fill="url(#paint5_linear_332_4293)"/>
<path d="M169.698 44.4929C168.331 44.4929 167.122 44.2176 166.071 43.6672C165.038 43.0995 164.223 42.2738 163.627 41.19C163.049 40.1063 162.76 38.7645 162.76 37.1647V33.0362C162.76 30.6451 163.408 28.8302 164.705 27.5917C166.001 26.3359 167.744 25.708 169.934 25.708C172.107 25.708 173.762 26.2929 174.901 27.4626C176.04 28.6324 176.609 30.1978 176.609 32.1589V32.2879H174.428V32.1072C174.428 31.2471 174.271 30.4816 173.955 29.8107C173.64 29.1399 173.149 28.6152 172.484 28.2367C171.818 27.8411 170.968 27.6433 169.934 27.6433C168.375 27.6433 167.158 28.1163 166.282 29.0624C165.406 29.9914 164.968 31.2987 164.968 32.9846V37.2163C164.968 38.9021 165.406 40.2181 166.282 41.1642C167.158 42.0932 168.384 42.5576 169.961 42.5576C171.502 42.5576 172.632 42.1276 173.351 41.2674C174.087 40.4073 174.454 39.2634 174.454 37.8356V37.3969H168.883V35.5391H176.609V44.1316H174.612V42.1706H174.244C174.052 42.549 173.78 42.9189 173.43 43.2801C173.079 43.6414 172.606 43.9338 172.01 44.1574C171.415 44.3811 170.644 44.4929 169.698 44.4929Z" fill="url(#paint6_linear_332_4293)"/>
<path d="M184.655 44.4929C183.761 44.4929 182.947 44.338 182.211 44.0284C181.475 43.7188 180.897 43.2715 180.477 42.6866C180.056 42.1018 179.846 41.3879 179.846 40.545C179.846 39.6848 180.056 38.9795 180.477 38.4291C180.897 37.8614 181.475 37.4399 182.211 37.1647C182.947 36.8723 183.77 36.7261 184.681 36.7261H189.017V35.7971C189.017 34.9026 188.746 34.1973 188.203 33.6813C187.677 33.1652 186.889 32.9071 185.838 32.9071C184.804 32.9071 183.998 33.1566 183.42 33.6554C182.842 34.1371 182.447 34.7908 182.237 35.6165L180.293 34.9972C180.503 34.2919 180.836 33.6554 181.291 33.0878C181.747 32.5029 182.351 32.0384 183.104 31.6944C183.875 31.3331 184.795 31.1525 185.864 31.1525C187.511 31.1525 188.79 31.574 189.701 32.4169C190.612 33.2426 191.067 34.4123 191.067 35.9261V41.6287C191.067 42.1448 191.312 42.4028 191.803 42.4028H192.986V44.1316H191.172C190.594 44.1316 190.13 43.9768 189.779 43.6672C189.429 43.3403 189.254 42.9103 189.254 42.377V42.248H188.939C188.746 42.5748 188.483 42.9189 188.15 43.2801C187.835 43.6242 187.397 43.908 186.836 44.1316C186.276 44.3724 185.548 44.4929 184.655 44.4929ZM184.892 42.7382C186.118 42.7382 187.108 42.3856 187.861 41.6803C188.632 40.9578 189.017 39.9515 189.017 38.6613V38.3775H184.76C183.937 38.3775 183.253 38.5581 182.71 38.9193C182.185 39.2634 181.922 39.7881 181.922 40.4933C181.922 41.1986 182.193 41.7491 182.737 42.1448C183.297 42.5404 184.016 42.7382 184.892 42.7382Z" fill="url(#paint7_linear_332_4293)"/>
<path d="M199.712 44.1316C198.976 44.1316 198.407 43.9338 198.004 43.5381C197.619 43.1425 197.426 42.6006 197.426 41.9125V33.2942H193.563V31.5138H197.426V27.024H199.502V31.5138H203.707V33.2942H199.502V41.6029C199.502 42.119 199.756 42.377 200.264 42.377H203.129V44.1316H199.712Z" fill="url(#paint8_linear_332_4293)"/>
<path d="M212.494 44.4929C211.198 44.4929 210.059 44.2262 209.078 43.693C208.097 43.1425 207.335 42.377 206.791 41.3965C206.248 40.4159 205.977 39.2806 205.977 37.9904V37.6808C205.977 36.3734 206.248 35.2295 206.791 34.2489C207.335 33.2684 208.088 32.5115 209.052 31.9782C210.015 31.4278 211.119 31.1525 212.363 31.1525C213.572 31.1525 214.64 31.4106 215.569 31.9266C216.497 32.4255 217.224 33.148 217.75 34.0941C218.276 35.0402 218.538 36.1498 218.538 37.4227V38.3517H208.053C208.105 39.7106 208.552 40.7772 209.393 41.5513C210.234 42.3082 211.285 42.6866 212.547 42.6866C213.65 42.6866 214.5 42.4372 215.096 41.9383C215.691 41.4395 216.147 40.846 216.462 40.1579L218.249 41.0094C217.987 41.5427 217.619 42.0759 217.146 42.6092C216.69 43.1425 216.086 43.5897 215.332 43.951C214.596 44.3122 213.65 44.4929 212.494 44.4929ZM208.079 36.6744H216.436C216.366 35.5047 215.954 34.593 215.201 33.9393C214.465 33.2856 213.519 32.9588 212.363 32.9588C211.189 32.9588 210.225 33.2856 209.472 33.9393C208.719 34.593 208.254 35.5047 208.079 36.6744Z" fill="url(#paint9_linear_332_4293)"/>
<defs>
<linearGradient id="paint0_linear_332_4293" x1="4.05517" y1="37.4898" x2="62.3612" y2="37.6784" gradientUnits="userSpaceOnUse">
<stop stop-color="#74F8AF"/>
<stop offset="1" stop-color="#57CD8C"/>
</linearGradient>
<linearGradient id="paint1_linear_332_4293" x1="77.5494" y1="37.4966" x2="220.018" y2="40.775" gradientUnits="userSpaceOnUse">
<stop stop-color="#74F8AF"/>
<stop offset="1" stop-color="#57CD8C"/>
</linearGradient>
<linearGradient id="paint2_linear_332_4293" x1="77.5494" y1="37.4966" x2="220.018" y2="40.775" gradientUnits="userSpaceOnUse">
<stop stop-color="#74F8AF"/>
<stop offset="1" stop-color="#57CD8C"/>
</linearGradient>
<linearGradient id="paint3_linear_332_4293" x1="77.5494" y1="37.4966" x2="220.018" y2="40.775" gradientUnits="userSpaceOnUse">
<stop stop-color="#74F8AF"/>
<stop offset="1" stop-color="#57CD8C"/>
</linearGradient>
<linearGradient id="paint4_linear_332_4293" x1="77.5494" y1="37.4966" x2="220.018" y2="40.775" gradientUnits="userSpaceOnUse">
<stop stop-color="#74F8AF"/>
<stop offset="1" stop-color="#57CD8C"/>
</linearGradient>
<linearGradient id="paint5_linear_332_4293" x1="77.5494" y1="37.4966" x2="220.018" y2="40.775" gradientUnits="userSpaceOnUse">
<stop stop-color="#74F8AF"/>
<stop offset="1" stop-color="#57CD8C"/>
</linearGradient>
<linearGradient id="paint6_linear_332_4293" x1="77.5494" y1="37.4966" x2="220.018" y2="40.775" gradientUnits="userSpaceOnUse">
<stop stop-color="#74F8AF"/>
<stop offset="1" stop-color="#57CD8C"/>
</linearGradient>
<linearGradient id="paint7_linear_332_4293" x1="77.5494" y1="37.4966" x2="220.018" y2="40.775" gradientUnits="userSpaceOnUse">
<stop stop-color="#74F8AF"/>
<stop offset="1" stop-color="#57CD8C"/>
</linearGradient>
<linearGradient id="paint8_linear_332_4293" x1="77.5494" y1="37.4966" x2="220.018" y2="40.775" gradientUnits="userSpaceOnUse">
<stop stop-color="#74F8AF"/>
<stop offset="1" stop-color="#57CD8C"/>
</linearGradient>
<linearGradient id="paint9_linear_332_4293" x1="77.5494" y1="37.4966" x2="220.018" y2="40.775" gradientUnits="userSpaceOnUse">
<stop stop-color="#74F8AF"/>
<stop offset="1" stop-color="#57CD8C"/>
</linearGradient>
</defs>
</svg>
