<svg className="w-[177px] h-[124px]" viewBox="0 0 1777 1244" fill="none" xmlns="http://www.w3.org/2000/svg">
            <g opacity="0.95">
                <path
                    d="M416.029 768.073C402.26 781.841 383.587 789.576 364.115 789.576H197V622.461C197 602.99 204.735 584.316 218.503 570.548L570.548 218.503C584.316 204.735 602.99 197 622.461 197H789.576V394.525L416.029 768.073Z"
                    fill="white"
                />
                <path
                    d="M811.09 768.073C797.322 781.841 778.648 789.576 759.176 789.576H592.061V592.051L965.609 218.503C979.377 204.735 998.051 197 1017.52 197H1184.64V394.525L811.09 768.073Z"
                    fill="white"
                />
                <path
                    d="M1206.13 768.073C1192.36 781.841 1173.68 789.576 1154.21 789.576H987.098V592.051L1360.65 218.503C1374.41 204.735 1393.09 197 1412.56 197H1579.67V364.115C1579.67 383.587 1571.94 402.26 1558.17 416.029L1206.13 768.073Z"
                    fill="white"
                />
                <path
                    d="M1382.16 690.824C1382.16 636.279 1426.38 592.061 1480.92 592.061C1535.47 592.061 1579.68 636.279 1579.68 690.824C1579.68 745.369 1535.47 789.587 1480.92 789.587C1426.38 789.587 1382.16 745.369 1382.16 690.824Z"
                    fill="#28FF37"
                />
                <path
                    d="M349.799 1043.85L250.699 938.206V1043.85H197V870.723H253.234L349.569 974.507V870.723H403.037V1043.85H349.799Z"
                    fill="#28FF37"
                />
                <path
                    d="M533.553 867.93H543.924C629.658 867.93 650.631 916.565 650.631 953.331V960.312C650.631 996.613 629.889 1046.64 543.924 1046.64H533.553C447.82 1046.64 426.847 996.613 426.847 960.312V953.331C426.847 916.565 447.82 867.93 533.553 867.93ZM593.244 958.218V955.193C593.244 936.344 584.487 911.213 538.854 911.213C492.991 911.213 484.234 936.344 484.234 955.193V958.218C484.234 977.067 493.913 1002.9 538.854 1002.9C584.487 1002.9 593.244 977.067 593.244 958.218Z"
                    fill="#28FF37"
                />
                <path
                    d="M827.181 1043.85L728.08 938.206V1043.85H674.381V870.723H730.615L826.95 974.507V870.723H880.419V1043.85H827.181Z"
                    fill="white"
                />
                <path
                    d="M1034.21 975.67L1005.4 910.98L977.287 975.67H1034.21ZM1064.4 1043.85L1051.04 1013.83H960.463L947.326 1043.85H892.244L970.142 870.723H1042.74L1123.17 1043.85H1064.4Z"
                    fill="white"
                />
                <path
                    d="M1134.88 1043.85V870.723H1209.55L1260.03 978.463L1311.65 870.723H1382.63V1043.85H1328.71V933.319L1277.31 1043.85H1239.05L1187.89 933.319V1043.85H1134.88Z"
                    fill="white"
                />
                <path
                    d="M1413.97 870.723H1578.3V910.514H1468.59V935.646H1574.84V976.834H1468.59V1003.59H1579.68V1043.85H1413.97V870.723Z"
                    fill="white"
                />
            </g>
        </svg>