<svg width="90" height="55" viewBox="0 0 90 55" fill="none" xmlns="http://www.w3.org/2000/svg">
<g opacity="0.95">
<path d="M14.1785 36.9674C13.2872 37.8587 12.0784 38.3594 10.8179 38.3594H0V27.5415C0 26.2811 0.500712 25.0722 1.39196 24.181L24.181 1.39196C25.0722 0.500712 26.2811 0 27.5415 0H38.3594V12.7864L14.1785 36.9674Z" fill="white"/>
<path d="M39.752 36.9674C38.8607 37.8587 37.6519 38.3594 36.3914 38.3594H25.5735V25.573L49.7545 1.39196C50.6457 0.500712 51.8546 0 53.1149 0H63.9331V12.7864L39.752 36.9674Z" fill="white"/>
<path d="M65.3243 36.9674C64.4329 37.8587 63.2237 38.3594 61.9633 38.3594H51.1456V25.573L75.3269 1.39196C76.2176 0.500712 77.4268 0 78.6872 0H89.5048V10.8179C89.5048 12.0784 89.0044 13.2872 88.113 14.1785L65.3243 36.9674Z" fill="white"/>
<path d="M76.7192 31.9675C76.7192 28.4366 79.5817 25.5742 83.1123 25.5742C86.6435 25.5742 89.5054 28.4366 89.5054 31.9675C89.5054 35.4984 86.6435 38.3607 83.1123 38.3607C79.5817 38.3607 76.7192 35.4984 76.7192 31.9675Z" fill="#237648"/>
<path d="M9.89118 54.8204L3.47611 47.9817V54.8204H0V43.6133H3.64021L9.87629 50.3316V43.6133H13.3375V54.8204H9.89118Z" fill="#237648"/>
<path d="M21.7861 43.4316H22.4574C28.0073 43.4316 29.3649 46.5799 29.3649 48.9599V49.4118C29.3649 51.7617 28.0222 55.0001 22.4574 55.0001H21.7861C16.2363 55.0001 14.8787 51.7617 14.8787 49.4118V48.9599C14.8787 46.5799 16.2363 43.4316 21.7861 43.4316ZM25.6501 49.2763V49.0805C25.6501 47.8603 25.0832 46.2335 22.1292 46.2335C19.1604 46.2335 18.5935 47.8603 18.5935 49.0805V49.2763C18.5935 50.4964 19.2201 52.1687 22.1292 52.1687C25.0832 52.1687 25.6501 50.4964 25.6501 49.2763Z" fill="#237648"/>
<path d="M40.7938 54.8204L34.3787 47.9817V54.8204H30.9026V43.6133H34.5428L40.7789 50.3316V43.6133H44.2401V54.8204H40.7938Z" fill="white"/>
<path d="M54.1954 50.4068L52.3305 46.2192L50.5106 50.4068H54.1954ZM56.1497 54.8204L55.2849 52.8771H49.4215L48.5711 54.8204H45.0055L50.0481 43.6133H54.7476L59.9541 54.8204H56.1497Z" fill="white"/>
<path d="M60.712 54.8204V43.6133H65.5457L68.8134 50.5876L72.1549 43.6133H76.7497V54.8204H73.2593V47.6653L69.932 54.8204H67.4553L64.1435 47.6653V54.8204H60.712Z" fill="white"/>
<path d="M78.7783 43.6133H89.4159V46.1891H82.3141V47.816H89.192V50.4822H82.3141V52.2142H89.5053V54.8204H78.7783V43.6133Z" fill="white"/>
</g>
</svg>
