<svg width="115" height="71" viewBox="0 0 115 71" fill="none" xmlns="http://www.w3.org/2000/svg">
<g opacity="0.95">
<path d="M18.217 47.4972C17.0719 48.6423 15.5188 49.2856 13.8993 49.2856H0V35.3864C0 33.7669 0.643335 32.2138 1.78844 31.0687L31.0687 1.78844C32.2138 0.643335 33.7669 0 35.3864 0H49.2856V16.4285L18.217 47.4972Z" fill="#40403F"/>
<path d="M51.075 47.4972C49.9299 48.6423 48.3767 49.2856 46.7572 49.2856H32.8579V32.8571L63.9266 1.78844C65.0717 0.643335 66.6249 0 68.2441 0H82.1438V16.4285L51.075 47.4972Z" fill="#40403F"/>
<path d="M83.9312 47.4972C82.7859 48.6423 81.2322 49.2856 79.6129 49.2856H65.7139V32.8571L96.7829 1.78844C97.9273 0.643335 99.481 0 101.1 0H114.999V13.8993C114.999 15.5188 114.356 17.0719 113.211 18.217L83.9312 47.4972Z" fill="#40403F"/>
<path d="M98.5718 41.0722C98.5718 36.5356 102.25 32.8579 106.786 32.8579C111.323 32.8579 115 36.5356 115 41.0722C115 45.6088 111.323 49.2865 106.786 49.2865C102.25 49.2865 98.5718 45.6088 98.5718 41.0722Z" fill="#237648"/>
<path d="M12.7086 70.4341L4.46625 61.6475V70.4341H0V56.0348H4.67709L12.6894 64.6667V56.0348H17.1365V70.4341H12.7086Z" fill="#237648"/>
<path d="M27.9921 55.8025H28.8547C35.9854 55.8025 37.7297 59.8476 37.7297 62.9055V63.4861C37.7297 66.5053 36.0046 70.6661 28.8547 70.6661H27.9921C20.8616 70.6661 19.1172 66.5053 19.1172 63.4861V62.9055C19.1172 59.8476 20.8616 55.8025 27.9921 55.8025ZM32.9567 63.3119V63.0603C32.9567 61.4926 32.2284 59.4024 28.433 59.4024C24.6185 59.4024 23.8902 61.4926 23.8902 63.0603V63.3119C23.8902 64.8796 24.6952 67.0282 28.433 67.0282C32.2284 67.0282 32.9567 64.8796 32.9567 63.3119Z" fill="#237648"/>
<path d="M52.4133 70.4341L44.1708 61.6475V70.4341H39.7046V56.0348H44.3817L52.394 64.6667V56.0348H56.8412V70.4341H52.4133Z" fill="#40403F"/>
<path d="M69.6323 64.7634L67.2361 59.383L64.8979 64.7634H69.6323ZM72.1432 70.4341L71.0321 67.9373H63.4986L62.406 70.4341H57.8247L64.3036 56.0348H70.3417L77.0313 70.4341H72.1432Z" fill="#40403F"/>
<path d="M78.0051 70.4341V56.0348H84.2156L88.4141 64.9957L92.7074 56.0348H98.611V70.4341H94.1263V61.241L89.8513 70.4341H86.6691L82.4141 61.241V70.4341H78.0051Z" fill="#40403F"/>
<path d="M101.218 56.0348H114.885V59.3443H105.76V61.4346H114.597V64.8602H105.76V67.0856H115V70.4341H101.218V56.0348Z" fill="#40403F"/>
</g>
</svg>
