<svg width="30" height="30" viewBox="0 0 30 30" fill="none" xmlns="http://www.w3.org/2000/svg">
<rect width="30" height="30" rx="15" fill="#6F215F"/>
<path d="M5.04206 9.7222C9.2116 10.2257 11.5517 10.1997 15.8181 9.7222C19.0624 9.2926 21.0331 9.25062 24.149 9.61405C24.6478 9.67223 25.0211 10.0978 25.0211 10.6V20.105M7.05024 7.76446C10.9924 8.11856 13.2284 8.14665 17.2757 7.76446C20.9847 7.27059 23.0619 7.25272 26.0926 7.64616C26.5853 7.71012 26.9506 8.13302 26.9506 8.62984V18.0686M18.429 13.2107C19.6103 13.2043 20.2658 13.2173 21.3985 13.3555M4.55287 20.7169C5.71269 20.8143 6.3956 20.8417 7.6903 20.8165M13.452 22.2915C9.04408 22.7663 6.94125 22.6868 3.94427 22.3847C3.4357 22.3335 3.0498 21.9038 3.0498 21.3926V13.012C3.0498 12.4048 3.58677 11.9391 4.18965 12.011C7.57272 12.4147 9.78534 12.3284 13.452 11.863C16.9043 11.4296 18.9455 11.3142 22.0885 11.7393C22.5771 11.8054 22.9372 12.2266 22.9372 12.7196V21.1479C22.9372 21.7532 22.4029 22.2183 21.8018 22.1477C18.7265 21.7865 16.7179 21.814 13.452 22.2915Z" stroke="white" stroke-linecap="round"/>
<path d="M17.0382 18.7877H16.3066V14.4156H17.0382V18.7877ZM16.6852 17.1425C16.6871 16.854 16.7374 16.5979 16.8361 16.374C16.9366 16.15 17.0761 15.9736 17.2545 15.8445C17.4348 15.7155 17.6444 15.651 17.8835 15.651C18.0866 15.651 18.263 15.6899 18.413 15.7677C18.5648 15.8436 18.6824 15.9669 18.7659 16.1377C18.8494 16.3085 18.8911 16.5362 18.8911 16.8208V18.7877H18.1596V16.8151C18.1596 16.6728 18.1388 16.5609 18.097 16.4793C18.0572 16.3958 17.9974 16.336 17.9177 16.2999C17.8399 16.2639 17.7441 16.2459 17.6302 16.2459C17.5088 16.2459 17.4034 16.2686 17.3143 16.3142C17.2251 16.3597 17.1501 16.4233 17.0894 16.5049C17.0306 16.5865 16.986 16.6814 16.9556 16.7895C16.9271 16.8977 16.9129 17.0144 16.9129 17.1396L16.6852 17.1425Z" fill="white"/>
<path d="M14.4735 18.8446C14.1907 18.8446 13.9516 18.7943 13.7562 18.6938C13.5626 18.5913 13.4156 18.4613 13.315 18.3038C13.2163 18.1463 13.167 17.9841 13.167 17.8171H13.8672C13.8748 17.9347 13.908 18.0306 13.9668 18.1046C14.0275 18.1767 14.1034 18.2289 14.1945 18.2611C14.2875 18.2934 14.3843 18.3095 14.4849 18.3095C14.6025 18.3095 14.7012 18.2943 14.7809 18.264C14.8606 18.2317 14.9204 18.189 14.9602 18.1359C15.002 18.0809 15.0228 18.0173 15.0228 17.9452C15.0228 17.8807 15.0057 17.8228 14.9716 17.7715C14.9393 17.7203 14.8758 17.6729 14.7809 17.6292C14.6879 17.5856 14.5503 17.5448 14.3682 17.5068C14.1518 17.4613 13.9611 17.4006 13.796 17.3247C13.631 17.2488 13.501 17.151 13.4061 17.0315C13.3131 16.91 13.2666 16.763 13.2666 16.5903C13.2666 16.4214 13.315 16.2658 13.4118 16.1235C13.5086 15.9812 13.6471 15.8673 13.8274 15.7819C14.0076 15.6946 14.2211 15.651 14.4678 15.651C14.7278 15.651 14.9507 15.6946 15.1367 15.7819C15.3245 15.8673 15.4688 15.984 15.5693 16.132C15.6699 16.2782 15.7202 16.4451 15.7202 16.633H14.9915C14.9915 16.5116 14.9479 16.4072 14.8606 16.3199C14.7733 16.2307 14.6414 16.1861 14.4649 16.1861C14.3587 16.1861 14.2685 16.2032 14.1945 16.2374C14.1205 16.2715 14.0655 16.3171 14.0294 16.374C13.9934 16.429 13.9754 16.4897 13.9754 16.5561C13.9754 16.6207 13.9934 16.6776 14.0294 16.7269C14.0674 16.7744 14.131 16.8171 14.2201 16.855C14.3093 16.8911 14.4336 16.9262 14.593 16.9603C14.8245 17.0078 15.0257 17.0694 15.1965 17.1453C15.3691 17.2194 15.502 17.318 15.5949 17.4414C15.6898 17.5628 15.7373 17.7194 15.7373 17.911C15.7373 18.0913 15.6851 18.2526 15.5807 18.3949C15.4782 18.5353 15.3321 18.6454 15.1424 18.7251C14.9526 18.8048 14.7297 18.8446 14.4735 18.8446Z" fill="white"/>
<path d="M11.886 16.7099C11.886 16.5542 11.8434 16.4309 11.758 16.3398C11.6745 16.2468 11.5454 16.2004 11.3709 16.2004C11.2665 16.2004 11.1754 16.2184 11.0976 16.2544C11.0217 16.2886 10.9629 16.336 10.9211 16.3968C10.8794 16.4575 10.8585 16.5277 10.8585 16.6074H10.1298C10.1298 16.4385 10.182 16.2819 10.2864 16.1377C10.3927 15.9916 10.5416 15.874 10.7333 15.7848C10.9249 15.6956 11.1507 15.651 11.4107 15.651C11.6441 15.651 11.8509 15.6909 12.0312 15.7705C12.2134 15.8483 12.3566 15.966 12.461 16.1235C12.5654 16.281 12.6176 16.4783 12.6176 16.7155V18.0647C12.6176 18.2146 12.628 18.3446 12.6489 18.4547C12.6697 18.5628 12.6992 18.6577 12.7371 18.7393V18.7877H11.9942C11.9582 18.7118 11.9306 18.6141 11.9117 18.4945C11.8946 18.375 11.886 18.2573 11.886 18.1416V16.7099ZM11.9914 17.356H11.5189C11.276 17.356 11.0938 17.4025 10.9724 17.4955C10.8509 17.5865 10.7902 17.708 10.7902 17.8598C10.7902 17.9774 10.83 18.0752 10.9097 18.153C10.9913 18.2308 11.1052 18.2697 11.2513 18.2697C11.3879 18.2697 11.5065 18.2421 11.6071 18.1871C11.7077 18.1321 11.7864 18.0657 11.8434 17.9879C11.9003 17.9082 11.9297 17.8332 11.9316 17.763L12.1565 18.0875C12.1318 18.1634 12.0929 18.245 12.0398 18.3323C11.9866 18.4196 11.9164 18.5021 11.8291 18.5799C11.7437 18.6577 11.6413 18.7213 11.5217 18.7706C11.4022 18.82 11.2636 18.8446 11.1061 18.8446C10.9069 18.8446 10.7276 18.8048 10.5682 18.7251C10.4107 18.6454 10.2864 18.5363 10.1953 18.3978C10.1061 18.2573 10.0615 18.0998 10.0615 17.9253C10.0615 17.5989 10.183 17.3484 10.4259 17.1738C10.6706 16.9973 11.0198 16.9091 11.4733 16.9091H11.9914V17.356Z" fill="white"/>
<path d="M8.39732 18.8446C8.08232 18.8446 7.82045 18.7754 7.61172 18.6368C7.40299 18.4964 7.24738 18.3095 7.14492 18.0761C7.04245 17.8408 6.99121 17.5808 6.99121 17.2962V17.2023C6.99121 16.9157 7.04245 16.6558 7.14492 16.4224C7.24928 16.1871 7.40488 16.0002 7.61172 15.8616C7.82045 15.7212 8.08137 15.651 8.39447 15.651C8.64306 15.651 8.86128 15.7003 9.04914 15.799C9.2389 15.8958 9.38691 16.0324 9.49317 16.2089C9.59944 16.3835 9.65447 16.5894 9.65826 16.8266H8.97229C8.96849 16.7184 8.94287 16.6197 8.89543 16.5305C8.84799 16.4413 8.78063 16.3702 8.69334 16.3171C8.60795 16.2639 8.50453 16.2374 8.38309 16.2374C8.20661 16.2374 8.06999 16.2838 7.97321 16.3768C7.87833 16.4698 7.81191 16.5903 7.77396 16.7383C7.73791 16.8844 7.71988 17.0391 7.71988 17.2023V17.2962C7.71988 17.4594 7.73791 17.615 7.77396 17.763C7.81002 17.9091 7.87643 18.0287 7.97321 18.1217C8.06999 18.2127 8.20851 18.2583 8.38878 18.2583C8.49694 18.2583 8.59372 18.2374 8.67911 18.1957C8.7664 18.152 8.83566 18.0922 8.88689 18.0163C8.94003 17.9404 8.96849 17.8522 8.97229 17.7516H9.65826C9.65447 17.9566 9.59564 18.1416 9.48179 18.3067C9.36793 18.4718 9.21613 18.6027 9.02637 18.6995C8.83851 18.7962 8.62882 18.8446 8.39732 18.8446Z" fill="white"/>
</svg>
