<svg width="30" height="30" viewBox="0 0 30 30" fill="none" xmlns="http://www.w3.org/2000/svg">
<rect width="30" height="30" rx="15" fill="#6F215F"/>
<g clip-path="url(#clip0_5333_58303)">
<path d="M7.06853 18.9132V23.5849C7.06853 23.6954 7.15807 23.7849 7.26853 23.7849H12.5252M7.06853 18.9132H12.5252M7.06853 18.9132C5.3204 17.9709 4.52451 17.3406 3.85357 16.3477C3.74776 16.1911 3.90843 15.9988 4.08764 16.0588C5.43469 16.5098 6.37167 16.4977 7.97431 15.8646M22.892 18.9132V23.5849C22.892 23.6954 22.8024 23.7849 22.692 23.7849H17.39M22.892 18.9132H17.39M22.892 18.9132C24.3544 18.1607 25.1747 17.6075 26.092 16.3712C26.2077 16.2154 26.0479 16.0077 25.8624 16.065C24.4778 16.4923 23.5178 16.4174 21.946 15.8758C21.9249 15.8685 21.9023 15.8646 21.88 15.8646H21.7738M12.5252 18.9132V20.8384M12.5252 18.9132H17.39M12.5252 23.7849V20.8384M12.5252 23.7849H17.39M12.5252 20.8384H17.39M17.39 20.8384V18.9132M17.39 20.8384V23.7849M7.97431 15.8646V13.4014M7.97431 15.8646H12.5252M7.97431 13.4014H12.5252M7.97431 13.4014C6.41086 12.5719 5.8276 11.9668 5.2678 10.9974C5.17872 10.8431 5.32729 10.6627 5.49916 10.7095C7.39167 11.2256 8.64459 11.0848 10.8853 9.79061M21.7738 13.4014V15.8646M21.7738 13.4014H17.39M21.7738 13.4014C23.2315 12.5465 23.9573 11.9742 24.5766 10.9969C24.6725 10.8455 24.5266 10.663 24.3535 10.7093C22.1645 11.2941 20.8955 10.9988 18.8907 9.59467M21.7738 15.8646H17.39M17.39 13.4014V15.8646M17.39 13.4014H12.5252M17.39 15.8646H12.5252M12.5252 15.8646V13.4014M10.8853 9.79061V11.722M10.8853 9.79061V7.46738M9.82168 6.73962C10.1294 6.20035 10.359 6.13054 10.7964 6.40185C10.8527 6.43683 10.8853 6.49945 10.8853 6.5658V7.46738M10.8853 7.46738H18.8907M18.8907 7.46738V6.5582C18.8907 6.49609 18.9193 6.43716 18.9695 6.40055C19.3518 6.12155 19.5712 6.10011 19.8704 6.73962M18.8907 7.46738V9.59467M18.8907 11.722V9.59467" stroke="white" stroke-linecap="round"/>
</g>
<defs>
<clipPath id="clip0_5333_58303">
<rect width="27" height="27" fill="white" transform="translate(1.5 1.5)"/>
</clipPath>
</defs>
</svg>
