<svg width="30" height="30" viewBox="0 0 30 30" fill="none" xmlns="http://www.w3.org/2000/svg">
<rect width="30" height="30" rx="15" fill="#6F215F"/>
<circle cx="8.72379" cy="11.7968" r="5.77653" fill="white" stroke="#6F215F"/>
<circle cx="21.2765" cy="11.7968" r="5.77653" fill="white" stroke="#6F215F"/>
<circle cx="15.0001" cy="19.2725" r="6.36335" fill="white" stroke="#6F215F"/>
<path d="M2.56543 11.7862H4.94257C5.01415 11.7862 5.08027 11.748 5.11595 11.6859L6.05384 10.0548C6.14405 9.89791 6.37965 9.93197 6.42174 10.108L7.34727 13.9784C7.39294 14.1694 7.65775 14.187 7.72839 14.0038L9.04788 10.5814C9.11327 10.4118 9.35268 10.4103 9.42019 10.5791L10.2649 12.6908C10.3278 12.8482 10.5457 12.8608 10.6264 12.7118L11.071 11.891C11.106 11.8264 11.1735 11.7862 11.2469 11.7862H14.8128" stroke="#6F215F" stroke-linecap="round"/>
<path d="M19.0459 11.9593L21.4303 8.16589M19.0459 11.9593L21.4303 15.4276M19.0459 11.9593L21.4303 12.6638M21.4303 8.16589L23.9773 11.9593M21.4303 8.16589V12.6638M23.9773 11.9593L21.4303 15.4276M23.9773 11.9593L21.4303 12.6638M21.4303 15.4276V12.6638" stroke="#6F215F" stroke-linecap="round"/>
<path d="M15.545 19.7489C16.8325 19.7489 16.8082 17.2954 15.545 17.2954C15.3432 17.2954 15.1569 17.2954 14.9863 17.2954M15.545 19.7489H13.626M15.545 19.7489C17.3912 19.7489 17.2941 22.2509 15.545 22.2509C15.3373 22.2509 15.1519 22.2509 14.9863 22.2509M13.626 19.7489V17.4954C13.626 17.385 13.7153 17.2954 13.8258 17.2954C14.0415 17.2954 14.4307 17.2954 14.9863 17.2954M13.626 19.7489V22.0509C13.626 22.1614 13.7151 22.2509 13.8256 22.2509C14.0074 22.2509 14.3496 22.2509 14.9863 22.2509M14.9863 17.2954V16.2509M14.9863 22.2509V23.2955" stroke="#6F215F" stroke-linecap="round"/>
</svg>
