<svg width="30" height="30" viewBox="0 0 30 30" fill="none" xmlns="http://www.w3.org/2000/svg">
<rect width="30" height="30" rx="15" fill="#6F215F"/>
<path d="M8.10065 5.8158H24.0522C24.1626 5.8158 24.2522 5.90534 24.2522 6.0158V13.145M24.2522 13.145H25.0021C25.1126 13.145 25.2021 13.2346 25.2021 13.345V17.424C25.2021 17.5345 25.1126 17.624 25.0021 17.624H24.2522M24.2522 13.145H22.3519M24.2522 17.624V23.6675C24.2522 23.7779 24.1626 23.8675 24.0522 23.8675H22.5519C22.4414 23.8675 22.3519 23.7779 22.3519 23.6675V23.3698M24.2522 17.624H22.3519M22.3519 17.624H18.2086C18.0982 17.624 18.0086 17.5345 18.0086 17.424V13.345C18.0086 13.2346 18.0982 13.145 18.2086 13.145H22.3519M22.3519 17.624V23.3698M22.3519 13.145V8.23264C22.3519 8.12218 22.2623 8.03264 22.1519 8.03264H8.10065M8.10065 24.1842H21.1756C21.8244 24.1375 22.0659 23.9469 22.3519 23.3698M12.2628 11.5615H10.6889C10.6259 11.5615 10.5666 11.5319 10.5289 11.4815L9.2916 9.83185C9.25383 9.78149 9.19455 9.75185 9.1316 9.75185H4.79785M4.79785 11.9582H7.17224C7.24016 11.9582 7.30343 11.9927 7.34027 12.0497L8.66222 14.0975C8.69906 14.1545 8.76233 14.189 8.83025 14.189H11.0368M4.79785 14.189H6.71643M4.79785 16.3351H10.0485M4.79785 18.3682H6.71643M4.79785 20.4578H7.19038C7.24808 20.4578 7.30297 20.4329 7.34095 20.3894L9.17184 18.2954C9.20981 18.2519 9.2647 18.227 9.3224 18.227H11.3192M4.79785 22.4909H8.22306C8.28765 22.4909 8.34826 22.4597 8.3858 22.4072L9.53686 20.7957C9.5744 20.7431 9.63501 20.7119 9.6996 20.7119H12.0251" stroke="white" stroke-linecap="round"/>
<circle cx="20.1378" cy="15.4987" r="0.627095" stroke="white"/>
</svg>
