<svg width="30" height="30" viewBox="0 0 30 30" fill="none" xmlns="http://www.w3.org/2000/svg">
<rect width="30" height="30" rx="15" fill="#6F215F"/>
<path d="M10.8271 14.3384V24.5851M10.8271 14.3384H19.1731M10.8271 14.3384H9.1006M10.8271 14.3384V12.3884M10.8271 24.5851H6.49707C5.94479 24.5851 5.49707 24.1374 5.49707 23.5851V15.0484C5.49707 14.6563 5.81493 14.3384 6.20702 14.3384V14.3384M10.8271 24.5851H12.3971M12.3971 24.5851V20.4697C12.3971 19.2326 12.459 17.7839 13.4952 17.1081C13.8632 16.8681 14.3259 16.7217 14.9588 16.6109C15.512 16.7259 15.9418 16.8566 16.2974 17.0508C17.4861 17.6999 17.6031 19.2975 17.6031 20.6518V24.5851M12.3971 24.5851H17.6031M17.6031 24.5851H19.1731M19.1731 24.5851H23.503C24.0553 24.5851 24.503 24.1374 24.503 23.5851V14.937C24.503 14.6064 24.235 14.3384 23.9045 14.3384V14.3384M19.1731 24.5851V14.3384M19.1731 14.3384H21.0109M19.1731 14.3384V12.3884M6.20702 14.3384V12.3884M6.20702 14.3384H9.1006M6.20702 12.3884H9.1006M6.20702 12.3884C5.85522 10.7961 6.04123 10.0859 7.5927 9.40708M9.1006 12.3884V14.3384M9.1006 12.3884C9.48366 10.4497 8.97521 9.93804 7.5927 9.40708M7.5927 9.40708V7.81146M21.0109 12.246H23.9045M21.0109 12.246C20.6591 10.6537 20.8451 9.94347 22.3966 9.26466M21.0109 12.246V14.3384M23.9045 12.246C24.2875 10.3072 23.7791 9.79562 22.3966 9.26466M23.9045 12.246V14.3384M22.3966 9.26466V7.66904M21.0109 14.3384H23.9045M19.1731 12.3884H10.8271M19.1731 12.3884C20.4233 7.98619 19.5057 6.63657 16.5081 5.16988M10.8271 12.3884C9.77941 8.48694 10.3025 6.89206 13.4123 5.16988M13.4123 5.16988H16.5081M13.4123 5.16988L15.0101 3.77178M16.5081 5.16988L15.0101 3.77178M15.0101 3.77178V1.41504M20.8243 18.5941H22.813C22.813 18.5941 22.813 18.3009 22.813 16.8804C22.813 15.4599 20.8243 15.438 20.8243 16.8804C20.8243 18.3228 20.8243 18.5941 20.8243 18.5941ZM20.8243 20.989C20.8243 22.3439 20.8243 22.8903 20.8243 22.8903H22.813C22.813 22.8903 22.813 22.3877 22.813 20.989C22.813 19.5903 20.8243 19.634 20.8243 20.989ZM7.14154 20.9448C7.14154 22.2997 7.14154 22.8461 7.14154 22.8461H9.13027C9.13027 22.8461 9.13027 22.3434 9.13027 20.9448C9.13027 19.5461 7.14154 19.5898 7.14154 20.9448ZM7.11187 16.8804C7.11187 18.2354 7.11187 18.7817 7.11187 18.7817H9.1006C9.1006 18.7817 9.1006 18.2791 9.1006 16.8804C9.1006 15.4817 7.11187 15.5254 7.11187 16.8804Z" stroke="white" stroke-linecap="round"/>
</svg>
