<svg width="30" height="30" viewBox="0 0 30 30" fill="none" xmlns="http://www.w3.org/2000/svg">
<rect width="30" height="30" rx="15" fill="#6F215F"/>
<path d="M23.9482 14.1104C23.9482 13.8434 23.875 13.6318 23.7285 13.4756C23.5853 13.3161 23.3639 13.2363 23.0645 13.2363C22.8854 13.2363 22.7292 13.2673 22.5957 13.3291C22.4655 13.3877 22.3646 13.4691 22.293 13.5732C22.2214 13.6774 22.1855 13.7979 22.1855 13.9346H20.9355C20.9355 13.6449 21.0251 13.3763 21.2041 13.1289C21.3864 12.8783 21.6419 12.6764 21.9707 12.5234C22.2995 12.3704 22.6868 12.2939 23.1328 12.2939C23.5332 12.2939 23.888 12.3623 24.1973 12.499C24.5098 12.6325 24.7555 12.8343 24.9346 13.1045C25.1136 13.3747 25.2031 13.7132 25.2031 14.1201V16.4346C25.2031 16.6917 25.221 16.9147 25.2568 17.1035C25.2926 17.2891 25.3431 17.4518 25.4082 17.5918V17.6748H24.1338C24.0719 17.5446 24.0247 17.377 23.9922 17.1719C23.9629 16.9668 23.9482 16.765 23.9482 16.5664V14.1104ZM24.1289 15.2188H23.3184C22.9017 15.2188 22.5892 15.2985 22.3809 15.458C22.1725 15.6143 22.0684 15.8226 22.0684 16.083C22.0684 16.2848 22.1367 16.4525 22.2734 16.5859C22.4134 16.7194 22.6087 16.7861 22.8594 16.7861C23.0938 16.7861 23.2972 16.7389 23.4697 16.6445C23.6423 16.5501 23.7773 16.4362 23.875 16.3027C23.9727 16.166 24.0231 16.0374 24.0264 15.917L24.4121 16.4736C24.3698 16.6038 24.3031 16.7438 24.2119 16.8936C24.1208 17.0433 24.0003 17.1849 23.8506 17.3184C23.7041 17.4518 23.5283 17.5609 23.3232 17.6455C23.1182 17.7301 22.8805 17.7725 22.6104 17.7725C22.2686 17.7725 21.9609 17.7041 21.6875 17.5674C21.4173 17.4307 21.2041 17.2435 21.0479 17.0059C20.8949 16.765 20.8184 16.4948 20.8184 16.1953C20.8184 15.6354 21.0267 15.2057 21.4434 14.9062C21.8633 14.6035 22.4622 14.4521 23.2402 14.4521H24.1289V15.2188Z" fill="white"/>
<path d="M17.9961 17.7725C17.6641 17.7725 17.376 17.7106 17.1318 17.5869C16.8877 17.46 16.681 17.2826 16.5117 17.0547C16.3457 16.8268 16.2122 16.5599 16.1113 16.2539C16.0104 15.9447 15.9372 15.6077 15.8916 15.2432V14.9014C15.9502 14.387 16.0609 13.9346 16.2236 13.5439C16.3864 13.1533 16.611 12.8473 16.8975 12.626C17.1872 12.4046 17.5501 12.2939 17.9863 12.2939C18.4323 12.2939 18.8083 12.4062 19.1143 12.6309C19.4202 12.8555 19.6514 13.1696 19.8076 13.5732C19.9671 13.9736 20.0469 14.4424 20.0469 14.9795V15.082C20.0469 15.5964 19.9671 16.057 19.8076 16.4639C19.6514 16.8675 19.4202 17.1865 19.1143 17.4209C18.8115 17.6553 18.4388 17.7725 17.9961 17.7725ZM15.3838 19.7061V12.3916H16.5361L16.6338 13.4072V19.7061H15.3838ZM17.6543 16.7666C17.9277 16.7666 18.1475 16.6901 18.3135 16.5371C18.4827 16.3841 18.6048 16.1807 18.6797 15.9268C18.7578 15.6696 18.7969 15.388 18.7969 15.082V14.9795C18.7969 14.667 18.7578 14.3854 18.6797 14.1348C18.6016 13.8841 18.4779 13.6855 18.3086 13.5391C18.1393 13.3893 17.918 13.3145 17.6445 13.3145C17.4427 13.3145 17.2702 13.347 17.127 13.4121C16.9837 13.4772 16.8633 13.57 16.7656 13.6904C16.6712 13.8076 16.5964 13.9492 16.541 14.1152C16.4889 14.278 16.4531 14.4587 16.4336 14.6572V15.4873C16.4694 15.7249 16.5312 15.9414 16.6191 16.1367C16.707 16.3288 16.834 16.4818 17 16.5957C17.1693 16.7096 17.3874 16.7666 17.6543 16.7666Z" fill="white"/>
<path d="M12.3613 17.7725C11.8307 17.7725 11.3734 17.6602 10.9893 17.4355C10.6084 17.2077 10.3138 16.9001 10.1055 16.5127C9.90039 16.1253 9.79785 15.694 9.79785 15.2188V15.0186C9.79785 14.4717 9.90202 13.9948 10.1104 13.5879C10.3187 13.1777 10.6051 12.8604 10.9697 12.6357C11.3343 12.4079 11.7493 12.2939 12.2148 12.2939C12.7227 12.2939 13.1442 12.4046 13.4795 12.626C13.818 12.8441 14.0719 13.1484 14.2412 13.5391C14.4105 13.9264 14.4951 14.3757 14.4951 14.8867V15.4238H10.3887V14.5352H13.2598V14.4375C13.2533 14.2357 13.2142 14.0485 13.1426 13.876C13.071 13.7035 12.9587 13.5651 12.8057 13.4609C12.6559 13.3535 12.4574 13.2998 12.21 13.2998C11.9528 13.2998 11.738 13.3714 11.5654 13.5146C11.3962 13.6579 11.2676 13.8581 11.1797 14.1152C11.0951 14.3724 11.0527 14.6735 11.0527 15.0186V15.2188C11.0527 15.5117 11.1064 15.7754 11.2139 16.0098C11.3245 16.2441 11.4824 16.4297 11.6875 16.5664C11.8958 16.6999 12.1449 16.7666 12.4346 16.7666C12.7113 16.7666 12.9587 16.7129 13.1768 16.6055C13.3981 16.4948 13.5885 16.3369 13.748 16.1318L14.3975 16.791C14.2314 17.0384 13.9792 17.2646 13.6406 17.4697C13.3053 17.6715 12.8789 17.7725 12.3613 17.7725Z" fill="white"/>
<path d="M6.83398 17.7725C6.34896 17.7725 5.9388 17.6862 5.60352 17.5137C5.27148 17.3379 5.01921 17.1149 4.84668 16.8447C4.67741 16.5745 4.59277 16.2962 4.59277 16.0098H5.79395C5.80697 16.2116 5.86393 16.376 5.96484 16.5029C6.06901 16.6266 6.19922 16.7161 6.35547 16.7715C6.51497 16.8268 6.68099 16.8545 6.85352 16.8545C7.05534 16.8545 7.22461 16.8285 7.36133 16.7764C7.49805 16.721 7.60059 16.6478 7.66895 16.5566C7.74056 16.4622 7.77637 16.3532 7.77637 16.2295C7.77637 16.1188 7.74707 16.0195 7.68848 15.9316C7.63314 15.8438 7.52409 15.7624 7.36133 15.6875C7.20182 15.6126 6.96582 15.5426 6.65332 15.4775C6.28223 15.3994 5.95508 15.2952 5.67188 15.165C5.38867 15.0348 5.16569 14.8672 5.00293 14.6621C4.84342 14.4538 4.76367 14.2015 4.76367 13.9053C4.76367 13.6156 4.84668 13.3486 5.0127 13.1045C5.17871 12.8604 5.41634 12.665 5.72559 12.5186C6.03483 12.3688 6.40104 12.2939 6.82422 12.2939C7.27018 12.2939 7.65267 12.3688 7.97168 12.5186C8.29395 12.665 8.54134 12.8652 8.71387 13.1191C8.88639 13.3698 8.97266 13.6562 8.97266 13.9785H7.72266C7.72266 13.7702 7.64779 13.5911 7.49805 13.4414C7.34831 13.2884 7.12207 13.2119 6.81934 13.2119C6.63704 13.2119 6.48242 13.2412 6.35547 13.2998C6.22852 13.3584 6.13411 13.4365 6.07227 13.5342C6.01042 13.6286 5.97949 13.7327 5.97949 13.8467C5.97949 13.9574 6.01042 14.055 6.07227 14.1396C6.13737 14.221 6.24642 14.2943 6.39941 14.3594C6.55241 14.4212 6.76562 14.4814 7.03906 14.54C7.4362 14.6214 7.78125 14.7272 8.07422 14.8574C8.37044 14.9844 8.59831 15.1536 8.75781 15.3652C8.92057 15.5736 9.00195 15.8421 9.00195 16.1709C9.00195 16.4801 8.91244 16.7568 8.7334 17.001C8.55762 17.2419 8.30697 17.4307 7.98145 17.5674C7.65592 17.7041 7.27344 17.7725 6.83398 17.7725Z" fill="white"/>
</svg>
