<svg width="30" height="30" viewBox="0 0 30 30" fill="none" xmlns="http://www.w3.org/2000/svg">
<rect width="30" height="30" rx="15" fill="#6F215F"/>
<path d="M25.708 14.3921H22.6953V13.4692H25.708V14.3921ZM24.7803 12.1753V17.2388C24.7803 17.3983 24.8031 17.5203 24.8486 17.605C24.8942 17.6864 24.9577 17.7417 25.0391 17.771C25.1237 17.8003 25.223 17.8149 25.3369 17.8149C25.4183 17.8149 25.4964 17.8101 25.5713 17.8003C25.6462 17.7905 25.7048 17.7808 25.7471 17.771V18.7329C25.6462 18.7655 25.5306 18.7931 25.4004 18.8159C25.2702 18.8387 25.1188 18.8501 24.9463 18.8501C24.6696 18.8501 24.4238 18.8013 24.209 18.7036C23.9941 18.6027 23.8265 18.4416 23.7061 18.2202C23.5889 17.9989 23.5303 17.7043 23.5303 17.3364V12.1753H24.7803Z" fill="white"/>
<path d="M20.083 18.7524V12.9761C20.083 12.3869 20.2507 11.936 20.5859 11.6235C20.9245 11.3078 21.3835 11.1499 21.9629 11.1499C22.0833 11.1499 22.2005 11.158 22.3145 11.1743C22.4284 11.1906 22.5407 11.2118 22.6514 11.2378L22.6221 12.2144C22.5602 12.2013 22.4902 12.1916 22.4121 12.1851C22.3372 12.1785 22.2575 12.1753 22.1729 12.1753C21.9092 12.1753 21.7041 12.2453 21.5576 12.3853C21.4111 12.522 21.3379 12.7189 21.3379 12.9761V18.7524H20.083ZM22.4121 14.3921H19.2871V13.4692H22.4121V14.3921Z" fill="white"/>
<path d="M17.7783 11.4331C17.9997 11.4331 18.1738 11.4966 18.3008 11.6235C18.4277 11.7472 18.4912 11.9035 18.4912 12.0923C18.4912 12.2811 18.4277 12.439 18.3008 12.5659C18.1738 12.6896 17.9997 12.7515 17.7783 12.7515C17.557 12.7515 17.3828 12.6896 17.2559 12.5659C17.1322 12.439 17.0703 12.2811 17.0703 12.0923C17.0703 11.9035 17.1322 11.7472 17.2559 11.6235C17.3828 11.4966 17.557 11.4331 17.7783 11.4331ZM18.4082 18.7524H17.1533V13.4692H18.4082V18.7524Z" fill="white"/>
<path d="M12.2998 13.4692H13.0957L12.8809 14.812L11.6748 18.7524H10.9766L11.1035 17.5122L12.2998 13.4692ZM11.3672 17.522L11.4307 18.7524H10.6396L9.2334 13.4692H10.4492L11.3672 17.522ZM15.0781 13.4692H16.2939L14.8877 18.7524H14.0967L14.1895 17.4731L15.0781 13.4692ZM14.4141 17.4731L14.5508 18.7524H13.8477L12.6318 14.812L12.4219 13.4692H13.2275L14.4141 17.4731Z" fill="white"/>
<path d="M6.49414 18.8501C6.00911 18.8501 5.59896 18.7638 5.26367 18.5913C4.93164 18.4155 4.67936 18.1925 4.50684 17.9224C4.33757 17.6522 4.25293 17.3739 4.25293 17.0874H5.4541C5.46712 17.2892 5.52409 17.4536 5.625 17.5806C5.72917 17.7043 5.85938 17.7938 6.01562 17.8491C6.17513 17.9045 6.34115 17.9321 6.51367 17.9321C6.71549 17.9321 6.88477 17.9061 7.02148 17.854C7.1582 17.7987 7.26074 17.7254 7.3291 17.6343C7.40072 17.5399 7.43652 17.4308 7.43652 17.3071C7.43652 17.1965 7.40723 17.0972 7.34863 17.0093C7.29329 16.9214 7.18424 16.84 7.02148 16.7651C6.86198 16.6903 6.62598 16.6203 6.31348 16.5552C5.94238 16.4771 5.61523 16.3729 5.33203 16.2427C5.04883 16.1125 4.82585 15.9448 4.66309 15.7397C4.50358 15.5314 4.42383 15.2791 4.42383 14.9829C4.42383 14.6932 4.50684 14.4263 4.67285 14.1821C4.83887 13.938 5.0765 13.7427 5.38574 13.5962C5.69499 13.4465 6.0612 13.3716 6.48438 13.3716C6.93034 13.3716 7.31283 13.4465 7.63184 13.5962C7.9541 13.7427 8.2015 13.9429 8.37402 14.1968C8.54655 14.4474 8.63281 14.7339 8.63281 15.0562H7.38281C7.38281 14.8478 7.30794 14.6688 7.1582 14.519C7.00846 14.366 6.78223 14.2896 6.47949 14.2896C6.2972 14.2896 6.14258 14.3188 6.01562 14.3774C5.88867 14.436 5.79427 14.5142 5.73242 14.6118C5.67057 14.7062 5.63965 14.8104 5.63965 14.9243C5.63965 15.035 5.67057 15.1326 5.73242 15.2173C5.79753 15.2987 5.90658 15.3719 6.05957 15.437C6.21257 15.4989 6.42578 15.5591 6.69922 15.6177C7.09635 15.6991 7.44141 15.8049 7.73438 15.9351C8.0306 16.062 8.25846 16.2313 8.41797 16.4429C8.58073 16.6512 8.66211 16.9198 8.66211 17.2485C8.66211 17.5578 8.57259 17.8345 8.39355 18.0786C8.21777 18.3195 7.96712 18.5083 7.6416 18.645C7.31608 18.7817 6.93359 18.8501 6.49414 18.8501Z" fill="white"/>
</svg>
