<svg width="30" height="30" viewBox="0 0 30 30" fill="none" xmlns="http://www.w3.org/2000/svg">
<rect width="30" height="30" rx="15" fill="#237648"/>
<path d="M8.5 8.62503C8.5 8.90118 8.72386 9.12503 9 9.12503C9.27614 9.12503 9.5 8.90118 9.5 8.62503H8.5ZM9 8.62503H9.5C9.5 6.90519 10.2096 5.64138 11.2655 4.7967C12.334 3.94185 13.7807 3.50001 15.25 3.5C16.7193 3.5 18.166 3.94184 19.2345 4.79669C20.2904 5.64138 21 6.90519 21 8.62503H21.5H22C22 6.59486 21.1471 5.04615 19.8592 4.01583C18.584 2.99567 16.9057 2.5 15.25 2.5C13.5943 2.50001 11.916 2.99567 10.6408 4.01583C9.35287 5.04616 8.5 6.59486 8.5 8.62503H9Z" fill="white"/>
<path d="M20 7.5L21.3586 8.85858C21.4367 8.93668 21.5633 8.93668 21.6414 8.85858L23 7.5" stroke="white" stroke-linecap="round"/>
<g clip-path="url(#clip0_5333_57919)">
<path d="M7.58301 19.25V16.0416" stroke="white" stroke-linecap="round" stroke-linejoin="round"/>
<path d="M8.09708 12.0074C8.22284 11.9463 8.36092 11.9148 8.50073 11.9153C8.64055 11.9158 8.7784 11.9482 8.90375 12.0102L12.509 13.7734C12.7272 13.8802 12.6511 14.2083 12.4082 14.2083H4.59266C4.34975 14.2083 4.27412 13.8802 4.49183 13.7734L8.09708 12.0074Z" stroke="white" stroke-linecap="round" stroke-linejoin="round"/>
<path d="M9.41699 19.25V16.0416" stroke="white" stroke-linecap="round" stroke-linejoin="round"/>
<path d="M11.25 19.25V16.0416" stroke="white" stroke-linecap="round" stroke-linejoin="round"/>
<path d="M4.375 21.0834H12.625" stroke="white" stroke-linecap="round" stroke-linejoin="round"/>
<path d="M5.75 19.25V16.0416" stroke="white" stroke-linecap="round" stroke-linejoin="round"/>
</g>
<circle cx="8.5" cy="21.5" r="3.5" fill="#237648"/>
<g clip-path="url(#clip1_5333_57919)">
<path d="M20.583 19.25V16.0416" stroke="white" stroke-linecap="round" stroke-linejoin="round"/>
<path d="M21.0971 12.0074C21.2228 11.9463 21.3609 11.9148 21.5007 11.9153C21.6405 11.9158 21.7784 11.9482 21.9037 12.0102L25.509 13.7734C25.7272 13.8802 25.6511 14.2083 25.4082 14.2083H17.5927C17.3497 14.2083 17.2741 13.8802 17.4918 13.7734L21.0971 12.0074Z" stroke="white" stroke-linecap="round" stroke-linejoin="round"/>
<path d="M22.417 19.25V16.0416" stroke="white" stroke-linecap="round" stroke-linejoin="round"/>
<path d="M24.25 19.25V16.0416" stroke="white" stroke-linecap="round" stroke-linejoin="round"/>
<path d="M17.375 21.0834H25.625" stroke="white" stroke-linecap="round" stroke-linejoin="round"/>
<path d="M18.75 19.25V16.0416" stroke="white" stroke-linecap="round" stroke-linejoin="round"/>
</g>
<circle cx="21.5" cy="21.5" r="3.5" fill="#237648"/>
<path d="M7.63478 19.5H8.08372V23.5H7.63478V19.5ZM7.85661 19.9571V19.5H8.66471C8.90415 19.5 9.12422 19.5381 9.32492 19.6143C9.52915 19.6905 9.69288 19.8143 9.81612 19.9857C9.93936 20.1571 10.001 20.3857 10.001 20.6714C10.001 20.9533 9.93936 21.1819 9.81612 21.3571C9.69288 21.5286 9.52915 21.6524 9.32492 21.7286C9.12422 21.8048 8.90415 21.8429 8.66471 21.8429H7.85661V21.3857H8.66471C8.85133 21.3857 9.01154 21.361 9.14534 21.3114C9.28267 21.2581 9.3883 21.18 9.46224 21.0771C9.53971 20.9705 9.57844 20.8352 9.57844 20.6714C9.57844 20.5076 9.53971 20.3743 9.46224 20.2714C9.3883 20.1648 9.28267 20.0867 9.14534 20.0371C9.01154 19.9838 8.85133 19.9571 8.66471 19.9571H7.85661ZM8.0045 22.9V22.4714H9.06084V22.9H8.0045ZM7.00098 21.8429V21.4143H8.05731V21.8429H7.00098ZM7.00098 22.9V22.4714H8.05731V22.9H7.00098Z" fill="white"/>
<path d="M20.6348 19.5H21.0837V23.5H20.6348V19.5ZM20.8566 19.9571V19.5H21.6647C21.9041 19.5 22.1242 19.5381 22.3249 19.6143C22.5291 19.6905 22.6929 19.8143 22.8161 19.9857C22.9394 20.1571 23.001 20.3857 23.001 20.6714C23.001 20.9533 22.9394 21.1819 22.8161 21.3571C22.6929 21.5286 22.5291 21.6524 22.3249 21.7286C22.1242 21.8048 21.9041 21.8429 21.6647 21.8429H20.8566V21.3857H21.6647C21.8513 21.3857 22.0115 21.361 22.1453 21.3114C22.2827 21.2581 22.3883 21.18 22.4622 21.0771C22.5397 20.9705 22.5784 20.8352 22.5784 20.6714C22.5784 20.5076 22.5397 20.3743 22.4622 20.2714C22.3883 20.1648 22.2827 20.0867 22.1453 20.0371C22.0115 19.9838 21.8513 19.9571 21.6647 19.9571H20.8566ZM21.0045 22.9V22.4714H22.0608V22.9H21.0045ZM20.001 21.8429V21.4143H21.0573V21.8429H20.001ZM20.001 22.9V22.4714H21.0573V22.9H20.001Z" fill="white"/>
<defs>
<clipPath id="clip0_5333_57919">
<rect width="11" height="11" fill="white" transform="translate(3 11)"/>
</clipPath>
<clipPath id="clip1_5333_57919">
<rect width="11" height="11" fill="white" transform="translate(16 11)"/>
</clipPath>
</defs>
</svg>
