<svg width="30" height="30" viewBox="0 0 30 30" fill="none" xmlns="http://www.w3.org/2000/svg">
<rect width="30" height="30" rx="15" fill="#237648"/>
<path d="M12 13H4C3.44772 13 3 13.5117 3 14.1429V19.8571C3 20.4883 3.44772 21 4 21H12C12.5523 21 13 20.4883 13 19.8571V14.1429C13 13.5117 12.5523 13 12 13Z" stroke="white" stroke-linecap="round" stroke-linejoin="round"/>
<path d="M3 15H13" stroke="white" stroke-linecap="round" stroke-linejoin="round"/>
<path d="M22.5 22C25.5376 22 28 19.5376 28 16.5C28 13.4624 25.5376 11 22.5 11C19.4624 11 17 13.4624 17 16.5C17 19.5376 19.4624 22 22.5 22Z" fill="white"/>
<path d="M28 18H25.9174C25.6741 18 25.4408 18.1289 25.2687 18.3583C25.0967 18.5877 25 18.8988 25 19.2232V22" stroke="#237648" stroke-linecap="round" stroke-linejoin="round"/>
<path d="M20 11V11.9584C20 12.4178 20.1784 12.8584 20.4961 13.1832C20.8137 13.508 21.2445 13.6905 21.6937 13.6905C21.9932 13.6905 22.2804 13.8122 22.4921 14.0287C22.7039 14.2453 22.8229 14.539 22.8229 14.8453C22.8229 15.4804 23.331 16 23.952 16C24.2515 16 24.5387 15.8783 24.7504 15.6618C24.9622 15.4452 25.0812 15.1515 25.0812 14.8453C25.0812 14.2102 25.5893 13.6905 26.2103 13.6905H28" stroke="#237648" stroke-linecap="round" stroke-linejoin="round"/>
<path d="M21 22V19.8356C21 19.545 20.9058 19.2662 20.7382 19.0607C20.5706 18.8552 20.3432 18.7397 20.1061 18.7397C19.8691 18.7397 19.6417 18.6243 19.4741 18.4187C19.3065 18.2132 19.2123 17.9345 19.2123 17.6438V17.0959C19.2123 16.8052 19.1181 16.5265 18.9505 16.321C18.7829 16.1155 18.5555 16 18.3184 16H17" stroke="#237648" stroke-linecap="round" stroke-linejoin="round"/>
<path d="M8.5 8.62503C8.5 8.90118 8.72386 9.12503 9 9.12503C9.27614 9.12503 9.5 8.90118 9.5 8.62503H8.5ZM9 8.62503H9.5C9.5 6.90519 10.2096 5.64138 11.2655 4.7967C12.334 3.94185 13.7807 3.50001 15.25 3.5C16.7193 3.5 18.166 3.94184 19.2345 4.79669C20.2904 5.64138 21 6.90519 21 8.62503H21.5H22C22 6.59486 21.1471 5.04615 19.8592 4.01583C18.584 2.99567 16.9057 2.5 15.25 2.5C13.5943 2.50001 11.916 2.99567 10.6408 4.01583C9.35287 5.04616 8.5 6.59486 8.5 8.62503H9Z" fill="white"/>
<path d="M20 7.5L21.3586 8.85858C21.4367 8.93668 21.5633 8.93668 21.6414 8.85858L23 7.5" stroke="white" stroke-linecap="round"/>
</svg>
