<svg width="30" height="30" viewBox="0 0 30 30" fill="none" xmlns="http://www.w3.org/2000/svg">
<rect width="30" height="30" rx="15" fill="#237648"/>
<path d="M16.125 12.5H5.125C4.36561 12.5 3.75 13.2195 3.75 14.1071V22.1429C3.75 23.0305 4.36561 23.75 5.125 23.75H16.125C16.8844 23.75 17.5 23.0305 17.5 22.1429V14.1071C17.5 13.2195 16.8844 12.5 16.125 12.5Z" stroke="white" stroke-linecap="round" stroke-linejoin="round"/>
<path d="M12.5 12.4375V7.85714C12.5 6.96954 13.1156 6.25 13.875 6.25H24.875C25.6344 6.25 26.25 6.96954 26.25 7.85714V15.8929C26.25 16.7805 25.6344 17.5 24.875 17.5H18.3173" stroke="white" stroke-linecap="round" stroke-linejoin="round"/>
<path d="M3.75 16.25H17.5" stroke="white" stroke-linecap="round" stroke-linejoin="round"/>
<path d="M12.5 10H26.25" stroke="white" stroke-linecap="round" stroke-linejoin="round"/>
<path d="M9.54225 17.5H10.1034V22.5H9.54225V17.5ZM9.81954 18.0714V17.5H10.8297C11.129 17.5 11.404 17.5476 11.6549 17.6429C11.9102 17.7381 12.1149 17.8929 12.2689 18.1071C12.423 18.3214 12.5 18.6071 12.5 18.9643C12.5 19.3167 12.423 19.6024 12.2689 19.8214C12.1149 20.0357 11.9102 20.1905 11.6549 20.2857C11.404 20.381 11.129 20.4286 10.8297 20.4286H9.81954V19.8571H10.8297C11.0629 19.8571 11.2632 19.8262 11.4305 19.7643C11.6021 19.6976 11.7342 19.6 11.8266 19.4714C11.9234 19.3381 11.9718 19.169 11.9718 18.9643C11.9718 18.7595 11.9234 18.5929 11.8266 18.4643C11.7342 18.331 11.6021 18.2333 11.4305 18.1714C11.2632 18.1048 11.0629 18.0714 10.8297 18.0714H9.81954ZM10.0044 21.75V21.2143H11.3248V21.75H10.0044ZM8.75 20.4286V19.8929H10.0704V20.4286H8.75ZM8.75 21.75V21.2143H10.0704V21.75H8.75Z" fill="white"/>
<path d="M18.2923 11.25H18.8534V16.25H18.2923V11.25ZM18.5695 11.8214V11.25H19.5797C19.879 11.25 20.154 11.2976 20.4049 11.3929C20.6602 11.4881 20.8649 11.6429 21.0189 11.8571C21.173 12.0714 21.25 12.3571 21.25 12.7143C21.25 13.0667 21.173 13.3524 21.0189 13.5714C20.8649 13.7857 20.6602 13.9405 20.4049 14.0357C20.154 14.131 19.879 14.1786 19.5797 14.1786H18.5695V13.6071H19.5797C19.8129 13.6071 20.0132 13.5762 20.1805 13.5143C20.3521 13.4476 20.4842 13.35 20.5766 13.2214C20.6734 13.0881 20.7218 12.919 20.7218 12.7143C20.7218 12.5095 20.6734 12.3429 20.5766 12.2143C20.4842 12.081 20.3521 11.9833 20.1805 11.9214C20.0132 11.8548 19.8129 11.8214 19.5797 11.8214H18.5695ZM18.7544 15.5V14.9643H20.0748V15.5H18.7544ZM17.5 14.1786V13.6429H18.8204V14.1786H17.5ZM17.5 15.5V14.9643H18.8204V15.5H17.5Z" fill="white"/>
</svg>
