<svg width="30" height="30" viewBox="0 0 30 30" fill="none" xmlns="http://www.w3.org/2000/svg">
<rect width="30" height="30" rx="15" fill="#008C99"/>
<path d="M26.1791 19.057H24.6912L21.1747 13.4173V19.057H19.6924V10.943H21.1747L24.7023 16.5938V10.943H26.1791V19.057Z" fill="white"/>
<path d="M18.1985 18.0149C18.0796 18.1672 17.8976 18.3325 17.6524 18.5109C17.4071 18.6892 17.0821 18.8434 16.6771 18.9734C16.2722 19.1034 15.7687 19.1685 15.1669 19.1685C14.4833 19.1685 13.8796 19.0161 13.3557 18.7115C12.8319 18.4068 12.4232 17.9629 12.1297 17.3796C11.8362 16.7963 11.6895 16.0923 11.6895 15.2675V14.7325C11.6895 13.9077 11.8251 13.2037 12.0963 12.6204C12.3712 12.0371 12.7594 11.5932 13.261 11.2885C13.7625 10.9839 14.357 10.8315 15.0443 10.8315C15.7242 10.8315 16.2852 10.943 16.7273 11.1659C17.1694 11.3888 17.5093 11.699 17.7471 12.0966C17.9849 12.4904 18.1335 12.9436 18.1929 13.4563H16.7384C16.6975 13.174 16.614 12.9269 16.4876 12.7152C16.365 12.4997 16.1886 12.3306 15.9582 12.208C15.7316 12.0854 15.4381 12.0241 15.0777 12.0241C14.6616 12.0241 14.3124 12.13 14.03 12.3418C13.7514 12.5498 13.5415 12.8545 13.4003 13.2557C13.2628 13.657 13.1941 14.1455 13.1941 14.7214V15.2675C13.1941 15.8508 13.274 16.343 13.4337 16.7443C13.5935 17.1455 13.8257 17.452 14.1303 17.6638C14.435 17.8719 14.8028 17.9759 15.2338 17.9759C15.5384 17.9759 15.7873 17.9517 15.9805 17.9034C16.1737 17.8514 16.3279 17.7901 16.4431 17.7195C16.5619 17.6452 16.6511 17.5765 16.7105 17.5133V15.9752H15.0833V14.8607H18.1985V18.0149Z" fill="white"/>
<path d="M10.308 19.057H8.82009L5.30365 13.4173V19.057H3.82129V10.943H5.30365L8.83124 16.5938V10.943H10.308V19.057Z" fill="white"/>
</svg>
