<svg width="30" height="30" viewBox="0 0 30 30" fill="none" xmlns="http://www.w3.org/2000/svg">
<rect width="30" height="30" rx="15" fill="#008C99"/>
<ellipse cx="23.5523" cy="13.9757" rx="3.647" ry="3.5624" fill="white"/>
<path d="M26.9678 9.81478C24.4028 8.15613 22.9831 8.22979 20.486 9.81478V9.42052C20.486 8.91053 20.6704 8.40775 21.0534 8.07097C21.3914 7.77369 21.7221 7.55289 22.1078 7.38736C23.1275 6.94973 24.3284 6.92647 25.3539 7.35044C25.8586 7.55911 26.2488 7.87418 26.6289 8.36112C26.8653 8.66399 26.9678 9.04685 26.9678 9.43105V9.81478Z" fill="white"/>
<path d="M14.3555 19.5203V18.727C15.5361 19.8831 16.4337 20.4665 18.0228 20.8609C18.8086 21.0559 19.6289 21.1109 20.4276 20.9784C22.0135 20.7153 22.978 20.0704 24.3208 18.727V19.5193C24.3208 19.8329 24.2502 20.1446 24.0961 20.4177C23.2577 21.9027 22.3194 22.5677 20.3855 22.8649C19.6124 22.9837 18.8202 22.9799 18.0503 22.8417C16.1691 22.504 15.3443 21.799 14.5779 20.4178C14.426 20.1442 14.3555 19.8333 14.3555 19.5203Z" fill="white"/>
<path d="M4.58172 9.16923V10.6677H7.07027C7.13936 11.0293 7.1547 11.2482 7.07027 11.6855C7.01537 12.0266 6.8937 12.1578 6.42 12.2227H4.72364V15.7568C5.60726 16.063 6.19296 15.9555 7.2399 15.7568C7.19138 16.9266 6.9637 17.2976 6.109 17.4814H4.72364C3.96819 17.3511 3.55919 17.1222 3.29295 16.7683C2.77992 16.0864 2.80078 15.1539 2.80078 14.3006V11.8298C2.80078 10.9037 2.92097 9.82734 3.71009 9.34251C3.96678 9.1848 4.23602 9.14683 4.58172 9.16923Z" fill="white"/>
<circle cx="9.44448" cy="9.33877" r="1.07436" fill="white"/>
<path d="M8.4834 14.563V11.7821C8.4834 11.2755 8.86928 10.796 9.36889 10.8801C9.83397 10.9583 10.1169 11.2343 10.2924 11.8832C10.3126 11.9581 10.3211 12.0358 10.3211 12.1133V15.4018C10.3211 15.4687 10.3271 15.5358 10.3428 15.6009C10.4386 15.9973 10.5748 16.0978 10.8865 16.1244C11.4159 16.1244 11.9485 16.61 11.6615 17.0547C11.5921 17.1624 11.4983 17.2536 11.3728 17.3372C11.2446 17.4226 11.0891 17.4532 10.935 17.4532H10.1309C10.0693 17.4532 10.0078 17.4479 9.94753 17.4353C9.56665 17.3557 9.29414 17.241 9.08714 17.0659C8.4105 16.4936 8.4834 15.4492 8.4834 14.563Z" fill="white"/>
<path d="M15.1938 12.53C16.2076 12.0521 16.9578 12.0267 18.0014 12.3429C18.4735 12.4859 19.0042 12.2403 18.8802 11.7628C18.8686 11.7182 18.8498 11.6641 18.8292 11.6228C18.4349 10.8343 17.7432 10.6218 16.3747 10.6603C15.6574 10.6804 14.9342 10.7935 14.2865 11.1024C13.8632 11.3043 13.5496 11.5337 13.2863 11.8279C12.6395 12.5505 12.3811 13.5365 12.416 14.5056C12.4395 15.1568 12.6406 15.8204 13.0123 16.3557C13.4478 16.9827 13.9493 17.3393 14.7479 17.6065C15.2546 17.776 15.793 17.8208 16.3274 17.8208H16.8238C17.9864 17.706 18.5684 17.5153 19.0529 16.7043C19.1346 16.5676 19.1704 16.4089 19.1704 16.2497V15.1571C19.1704 14.9235 19.0919 14.6943 18.9308 14.5252C18.9166 14.5103 18.9023 14.4955 18.8877 14.4805C18.7278 14.3165 18.5053 14.2302 18.2763 14.2302C17.7864 14.2302 17.3892 14.6273 17.3892 15.1172V15.3127C17.3892 15.7857 17.0591 16.2096 16.5884 16.256C16.0068 16.3132 15.6141 16.2361 15.1644 16.0099C15.0264 15.9405 14.9116 15.8314 14.8301 15.7001C14.0978 14.5204 14.212 13.8519 14.8166 12.8691C14.907 12.7222 15.0378 12.6036 15.1938 12.53Z" fill="white"/>
<ellipse cx="23.5508" cy="14.0276" rx="1.63384" ry="1.97145" fill="#008C99"/>
</svg>
