<svg width="30" height="30" viewBox="0 0 30 30" fill="none" xmlns="http://www.w3.org/2000/svg">
<rect width="30" height="30" rx="15" fill="#008C99"/>
<path d="M10.941 8.97845L10.6715 11.1152L8.34315 9.15111C7.68486 8.55339 7.35135 8.60541 6.80481 9.22367C6.42073 9.7527 6.0491 10.275 5.98025 10.9251C5.85999 12.0606 6.83195 13.0269 7.62891 13.8445L9.01847 15.27C9.62014 15.8041 9.87642 16.1509 9.84498 17.0571L9.59931 19.0452C9.5493 21.0726 9.78237 22.1075 10.9843 23.6468C11.9663 24.9933 12.5557 25.722 15.4519 25.7913C17.522 25.7805 18.6169 25.5607 20.0982 23.6468C21.3845 21.975 21.6208 20.9522 21.5725 19.0452L20.2168 9.5055C19.9009 7.28271 19.6818 4.71092 17.8745 3.37901C17.2034 2.88449 16.4066 2.71426 15.3178 2.69373C14.083 2.82743 13.2805 3.1305 12.6792 3.69829C11.3048 4.99614 11.1775 7.10295 10.941 8.97845Z" fill="white"/>
<ellipse cx="15.5218" cy="17.7002" rx="3.12828" ry="5.308" fill="#008C99"/>
<path d="M12.6797 22.8837C12.965 22.9118 13.2449 22.9826 13.5107 23.0927C13.8652 23.2395 14.1877 23.4542 14.459 23.7255L14.6514 23.9384C14.8332 24.16 14.9817 24.4078 15.0918 24.6737C15.2385 25.028 15.3144 25.4075 15.3145 25.7909V26.2909H10.9229C10.5258 26.2909 10.1443 26.1256 9.89258 25.8407C9.62963 25.5431 9.51277 25.1122 9.69434 24.6737L9.81641 24.4139C9.95159 24.1611 10.1236 23.929 10.3271 23.7255L10.54 23.5331C10.7617 23.3512 11.0095 23.2028 11.2754 23.0927L11.5449 22.996C11.8193 22.9127 12.1048 22.87 12.3926 22.87L12.6797 22.8837Z" fill="#008C99" stroke="white"/>
<path d="M19.0596 22.8835C19.3449 22.9117 19.6248 22.9824 19.8906 23.0925C20.2451 23.2393 20.5676 23.4541 20.8389 23.7253L21.0312 23.9382C21.2131 24.1599 21.3616 24.4077 21.4717 24.6736L21.5264 24.8376C21.6219 25.2179 21.5035 25.5802 21.2734 25.8406C21.0217 26.1255 20.6402 26.2908 20.2432 26.2908H15.8516V25.7908L15.8652 25.5046C15.8934 25.2193 15.9641 24.9394 16.0742 24.6736C16.221 24.3191 16.4358 23.9966 16.707 23.7253L16.9199 23.533C17.1416 23.3511 17.3894 23.2027 17.6553 23.0925L17.9248 22.9958C18.1992 22.9126 18.4847 22.8699 18.7725 22.8699L19.0596 22.8835Z" fill="#008C99" stroke="white"/>
<ellipse cx="16.9629" cy="6.56998" rx="0.581052" ry="0.6138" fill="#008C99"/>
<ellipse cx="14.0811" cy="6.56998" rx="0.581052" ry="0.6138" fill="#008C99"/>
<path d="M17.8386 8.68993C16.0395 10.0837 15.0519 10.0996 13.293 8.68993C14.0241 8.57499 14.4258 8.46219 15.1142 8.08286C15.4439 7.96814 15.6288 7.9553 15.9582 8.08286C16.6696 8.42343 17.07 8.55541 17.8386 8.68993Z" fill="#008C99"/>
</svg>
