<svg width="30" height="30" viewBox="0 0 30 30" fill="none" xmlns="http://www.w3.org/2000/svg">
<rect width="30" height="30" rx="15" fill="#008C99"/>
<path d="M19.0379 16.8726L19.449 15.7762H23.6975L24.1086 16.8726H19.0379ZM21.5459 12.3226L19.9287 16.1326L19.819 16.3792L18.3938 19.7506H17.0918L21.5459 9.67761L25.9999 19.7506H24.6979L23.3001 16.4615L23.1904 16.1874L21.5459 12.3226Z" fill="white"/>
<path d="M11.5342 10.1572H12.6991V18.6542H16.4679V19.7506H11.5342V10.1572Z" fill="white"/>
<path d="M4.64412 19.7506V18.6542H9.48191V19.7506H4.64412ZM4.64412 11.2536V10.1572H9.48191V11.2536H4.64412ZM4.64412 15.0909V13.9946H9.20782V15.0909H4.64412ZM4 10.1572H5.16491V19.7506H4V10.1572Z" fill="white"/>
</svg>
