<svg width="30" height="30" viewBox="0 0 30 30" fill="none" xmlns="http://www.w3.org/2000/svg">
<g clip-path="url(#clip0_5333_58044)">
<rect width="30" height="30" rx="15" fill="#008C99"/>
<path d="M6.46339 9.50442C3.2886 10.9753 1.80579 11.3623 -0.30492 11.5295C2.98464 10.1682 4.69578 9.24628 7.48331 7.09045C7.89379 10.1848 8.18375 11.9827 8.91113 15.4547C4.0339 16.9857 1.8954 17.411 -2.00293 17.2907C1.72329 16.6677 3.8219 16.1611 7.48331 14.7406C7.12099 12.8381 6.91813 11.7027 6.46339 9.50442Z" fill="white"/>
<path d="M8.63913 17.8005C3.65343 18.3447 1.13475 18.4555 -2.00293 17.8005C2.1102 17.7961 4.37257 17.462 8.43512 16.4065L8.63913 17.8005Z" fill="white"/>
<path d="M8.43512 19.6366C4.03539 19.823 1.72109 19.6794 -1.73114 18.4126C2.63169 18.9426 4.80906 18.8388 8.43512 18.2086V19.6366Z" fill="white"/>
<path d="M27.226 12.8265H28.119L26.551 17.2341H25.9485L26.0999 16.3805L27.226 12.8265ZM26.1877 16.3805L26.3451 17.2341H25.7427L24.1807 12.8265H25.0676L26.1877 16.3805Z" fill="white"/>
<path d="M23.8786 15.1423C23.8786 15.5883 23.8009 15.9728 23.6455 16.2957C23.4922 16.6166 23.2772 16.8638 23.0007 17.0374C22.7263 17.2089 22.4064 17.2947 22.0411 17.2947C21.6799 17.2947 21.359 17.2089 21.0785 17.0374C20.8 16.8638 20.582 16.6166 20.4246 16.2957C20.2672 15.9728 20.1885 15.5883 20.1885 15.1423V14.9214C20.1885 14.4753 20.2662 14.0919 20.4216 13.771C20.579 13.4481 20.7969 13.1999 21.0754 13.0263C21.3539 12.8528 21.6738 12.766 22.0351 12.766C22.4003 12.766 22.7212 12.8528 22.9977 13.0263C23.2742 13.1999 23.4901 13.4481 23.6455 13.771C23.8009 14.0919 23.8786 14.4753 23.8786 14.9214V15.1423ZM23.0673 14.9153C23.0673 14.5924 23.026 14.322 22.9432 14.104C22.8625 13.884 22.7454 13.7175 22.5921 13.6045C22.4387 13.4915 22.253 13.435 22.0351 13.435C21.8191 13.435 21.6335 13.4915 21.4781 13.6045C21.3247 13.7175 21.2066 13.884 21.1239 14.104C21.0432 14.322 21.0028 14.5924 21.0028 14.9153V15.1423C21.0028 15.4632 21.0442 15.7347 21.1269 15.9567C21.2096 16.1766 21.3287 16.3441 21.4841 16.4592C21.6395 16.5722 21.8252 16.6287 22.0411 16.6287C22.2591 16.6287 22.4447 16.5722 22.5981 16.4592C22.7515 16.3441 22.8675 16.1766 22.9462 15.9567C23.027 15.7347 23.0673 15.4632 23.0673 15.1423V14.9153Z" fill="white"/>
<path d="M19.4919 15.0818C19.4919 15.5278 19.4142 15.9122 19.2588 16.2351C19.1054 16.556 18.8905 16.8033 18.614 16.9768C18.3396 17.1484 18.0197 17.2341 17.6544 17.2341C17.2932 17.2341 16.9723 17.1484 16.6918 16.9768C16.4133 16.8033 16.1953 16.556 16.0379 16.2351C15.8805 15.9122 15.8018 15.5278 15.8018 15.0818V14.8608C15.8018 14.4148 15.8795 14.0314 16.0349 13.7105C16.1923 13.3876 16.4102 13.1393 16.6887 12.9658C16.9672 12.7922 17.2871 12.7054 17.6483 12.7054C18.0136 12.7054 18.3345 12.7922 18.611 12.9658C18.8875 13.1393 19.1034 13.3876 19.2588 13.7105C19.4142 14.0314 19.4919 14.4148 19.4919 14.8608V15.0818ZM18.6806 14.8548C18.6806 14.5318 18.6392 14.2614 18.5565 14.0435C18.4758 13.8235 18.3587 13.657 18.2053 13.544C18.052 13.431 17.8663 13.3745 17.6483 13.3745C17.4324 13.3745 17.2467 13.431 17.0913 13.544C16.938 13.657 16.8199 13.8235 16.7372 14.0435C16.6564 14.2614 16.6161 14.5318 16.6161 14.8548V15.0818C16.6161 15.4027 16.6574 15.6741 16.7402 15.8961C16.8229 16.1161 16.942 16.2836 17.0974 16.3986C17.2528 16.5116 17.4385 16.5681 17.6544 16.5681C17.8724 16.5681 18.058 16.5116 18.2114 16.3986C18.3648 16.2836 18.4808 16.1161 18.5595 15.8961C18.6403 15.6741 18.6806 15.4027 18.6806 15.0818V14.8548Z" fill="white"/>
<path d="M11.5943 12.8568L12.8264 16.1837L14.0524 12.8568H14.7638L13.1079 17.2644H12.5418L10.8829 12.8568H11.5943ZM11.231 12.8568L11.3521 15.8931V17.2644H10.5469V12.8568H11.231ZM15.1058 12.8568V17.2644H14.2976V15.8931L14.4187 12.8568H15.1058Z" fill="white"/>
</g>
<defs>
<clipPath id="clip0_5333_58044">
<rect width="30" height="30" rx="15" fill="white"/>
</clipPath>
</defs>
</svg>
