<svg width="30" height="30" viewBox="0 0 30 30" fill="none" xmlns="http://www.w3.org/2000/svg">
<rect width="30" height="30" rx="15" fill="#008C99"/>
<path d="M9.05566 10.2195V11.0632L9.45801 10.2195H23.4619L23.6494 10.9802L23.6523 10.9949L23.6602 10.9675L23.8555 10.2195H28.0352L25.5693 19.7673H21.8975L21.624 18.6746L21.3213 19.7673H17.3857L18.7979 14.1414H18.2949L17.2363 18.1238H13.0586L14.0889 14.1414H13.498L12.1279 19.7673H1.96484L4.29004 10.2195H9.05566ZM5.0752 11.2195L3.2373 18.7673H5.27051L6.60742 14.0886V18.7673H8.05566L10.3672 14.0886L9.30957 18.7673H11.3428L13.1807 11.2195H10.0889L8.05566 15.4812V11.2195H5.0752ZM20.5615 11.2195L18.667 18.7673H20.5615L21.6758 14.7566L22.6777 18.7673H24.7949L26.7441 11.2195H24.6279L23.625 15.0632L22.6777 11.2195H20.5615ZM13.7373 11.2195L13.1807 13.1414H15.3809L14.3506 17.1238H16.4668L17.5254 13.1414H19.4746L19.9766 11.2195H13.7373Z" fill="white"/>
<path d="M12.9992 18.5609H17.1385L16.8592 19.7806H12.6797L12.9992 18.5609Z" fill="white"/>
</svg>
