<svg width="30" height="30" viewBox="0 0 30 30" fill="none" xmlns="http://www.w3.org/2000/svg">
<rect width="30" height="30" rx="15" fill="#008C99"/>
<circle cx="14.9997" cy="14.9999" r="10.569" fill="white"/>
<path d="M20.2605 15.0001C20.2605 18.0185 17.8137 20.4654 14.7953 20.4654C11.7769 20.4654 9.33008 18.0185 9.33008 15.0001C9.33008 11.9818 11.7769 9.53491 14.7953 9.53491C17.8137 9.53491 20.2605 11.9818 20.2605 15.0001Z" fill="#008C99"/>
<path d="M9.33954 13.6907C9.57113 9.61026 13.3712 6.39804 17.3931 5.67136C18.1726 5.53052 18.9701 5.45681 19.8169 5.40686C17.5662 6.47743 15.9095 7.49672 15.86 9.80135L9.33003 15.1969C9.31335 14.6493 9.31331 14.153 9.33954 13.6907Z" fill="#008C99"/>
</svg>
