<svg width="30" height="30" viewBox="0 0 30 30" fill="none" xmlns="http://www.w3.org/2000/svg">
<rect width="30" height="30" rx="15" fill="#008C99"/>
<mask id="path-2-inside-1_5333_58109" fill="white">
<path d="M12.7209 9.95801C13.4601 9.95801 14.0763 10.4827 14.219 11.1797C14.2393 11.279 14.2502 11.3819 14.2502 11.4873V18.5117C14.2502 19.3564 13.5647 20.042 12.7199 20.042C11.8754 20.0418 11.1906 19.3563 11.1906 18.5117V14.9873L5.34201 20.8848C4.74719 21.4844 3.77865 21.4882 3.17892 20.8936C2.57922 20.2987 2.57529 19.3302 3.17013 18.7305L8.83615 13.0176H5.6965C4.85195 13.0176 4.16745 12.3328 4.1672 11.4883C4.1672 10.6436 4.8518 9.95803 5.6965 9.95801H12.7209Z"/>
</mask>
<path d="M14.219 11.1797L15.1987 10.9793L15.1987 10.9792L14.219 11.1797ZM14.2502 11.4873H15.2502V11.487L14.2502 11.4873ZM12.7199 20.042L12.7197 21.042H12.7199V20.042ZM11.1906 14.9873H12.1906V12.5588L10.4806 14.2831L11.1906 14.9873ZM5.34201 20.8848L6.05196 21.589L6.05205 21.5889L5.34201 20.8848ZM3.17892 20.8936L2.47468 21.6035L2.47481 21.6036L3.17892 20.8936ZM3.17013 18.7305L3.88013 19.4347L3.88015 19.4347L3.17013 18.7305ZM8.83615 13.0176L9.54616 13.7218L11.2364 12.0176H8.83615V13.0176ZM5.6965 13.0176L5.69647 14.0176H5.6965V13.0176ZM4.1672 11.4883H3.1672L3.1672 11.4886L4.1672 11.4883ZM5.6965 9.95801V8.95801H5.69647L5.6965 9.95801ZM12.7209 9.95801V10.958C12.9749 10.958 13.1898 11.1386 13.2393 11.3802L14.219 11.1797L15.1987 10.9792C14.9629 9.82685 13.9452 8.95801 12.7209 8.95801V9.95801ZM14.219 11.1797L13.2392 11.38C13.2465 11.4153 13.2502 11.4512 13.2502 11.4876L14.2502 11.4873L15.2502 11.487C15.2502 11.3127 15.2321 11.1428 15.1987 10.9793L14.219 11.1797ZM14.2502 11.4873H13.2502V18.5117H14.2502H15.2502V11.4873H14.2502ZM14.2502 18.5117H13.2502C13.2502 18.8042 13.0124 19.042 12.7199 19.042V20.042V21.042C14.1169 21.042 15.2502 19.9087 15.2502 18.5117H14.2502ZM12.7199 20.042L12.7202 19.042C12.4283 19.0419 12.1906 18.8046 12.1906 18.5117H11.1906H10.1906C10.1906 19.908 11.3225 21.0416 12.7197 21.042L12.7199 20.042ZM11.1906 18.5117H12.1906V14.9873H11.1906H10.1906V18.5117H11.1906ZM11.1906 14.9873L10.4806 14.2831L4.63197 20.1806L5.34201 20.8848L6.05205 21.5889L11.9007 15.6915L11.1906 14.9873ZM5.34201 20.8848L4.63205 20.1805C4.42626 20.388 4.09078 20.3895 3.88304 20.1835L3.17892 20.8936L2.47481 21.6036C3.46653 22.587 5.06812 22.5808 6.05196 21.589L5.34201 20.8848ZM3.17892 20.8936L3.88316 20.1836C3.67556 19.9777 3.67419 19.6423 3.88013 19.4347L3.17013 18.7305L2.46014 18.0263C1.4764 19.0181 1.48288 20.6197 2.47468 21.6035L3.17892 20.8936ZM3.17013 18.7305L3.88015 19.4347L9.54616 13.7218L8.83615 13.0176L8.12614 12.3134L2.46012 18.0263L3.17013 18.7305ZM8.83615 13.0176V12.0176H5.6965V13.0176V14.0176H8.83615V13.0176ZM5.6965 13.0176L5.69653 12.0176C5.4045 12.0176 5.16729 11.7807 5.1672 11.488L4.1672 11.4883L3.1672 11.4886C3.16761 12.8849 4.2994 14.0175 5.69647 14.0176L5.6965 13.0176ZM4.1672 11.4883H5.1672C5.1672 11.1951 5.40489 10.958 5.69653 10.958L5.6965 9.95801L5.69647 8.95801C4.29871 8.95805 3.1672 10.0921 3.1672 11.4883H4.1672ZM5.6965 9.95801V10.958H12.7209V9.95801V8.95801H5.6965V9.95801Z" fill="white" mask="url(#path-2-inside-1_5333_58109)"/>
<mask id="path-4-inside-2_5333_58109" fill="white">
<path d="M24.6582 9.11517C25.253 8.51557 26.2215 8.51185 26.8213 9.10638C27.421 9.70127 27.425 10.6697 26.8301 11.2695L21.1641 16.9824H24.3037C25.1484 16.9824 25.833 17.6679 25.833 18.5126C25.8328 19.3571 25.1483 20.0419 24.3037 20.0419H17.2793C16.4348 20.0418 15.7502 19.3571 15.75 18.5126C15.75 18.5059 15.7509 18.4988 15.751 18.4921V11.4882C15.751 10.6435 16.4356 9.95795 17.2803 9.95795C18.1249 9.95806 18.8096 10.6436 18.8096 11.4882V15.0117L24.6582 9.11517Z"/>
</mask>
<path d="M24.6582 9.11517L23.9482 8.41093L23.9482 8.41095L24.6582 9.11517ZM26.8213 9.10638L27.5255 8.39642L27.5253 8.3962L26.8213 9.10638ZM26.8301 11.2695L26.1201 10.5652L26.1201 10.5653L26.8301 11.2695ZM21.1641 16.9824L20.454 16.2782L18.7638 17.9824H21.1641V16.9824ZM25.833 18.5126L26.833 18.5129V18.5126H25.833ZM17.2793 20.0419L17.2792 21.0419H17.2793V20.0419ZM15.75 18.5126H14.75L14.75 18.5129L15.75 18.5126ZM15.751 18.4921L16.751 18.505V18.4921H15.751ZM17.2803 9.95795L17.2804 8.95795H17.2803V9.95795ZM18.8096 15.0117H17.8096V17.4398L19.5196 15.7159L18.8096 15.0117ZM24.6582 9.11517L25.3682 9.81941C25.5738 9.6121 25.9094 9.61048 26.1173 9.81657L26.8213 9.10638L27.5253 8.3962C26.5337 7.41321 24.9321 7.41904 23.9482 8.41093L24.6582 9.11517ZM26.8213 9.10638L26.117 9.81634C26.3247 10.0223 26.326 10.3576 26.1201 10.5652L26.8301 11.2695L27.54 11.9737C28.5239 10.9819 28.5173 9.38022 27.5255 8.39642L26.8213 9.10638ZM26.8301 11.2695L26.1201 10.5653L20.454 16.2782L21.1641 16.9824L21.8741 17.6865L27.5401 11.9737L26.8301 11.2695ZM21.1641 16.9824V17.9824H24.3037V16.9824V15.9824H21.1641V16.9824ZM24.3037 16.9824V17.9824C24.5953 17.9824 24.833 18.2194 24.833 18.5126H25.833H26.833C26.833 17.1165 25.7015 15.9824 24.3037 15.9824V16.9824ZM25.833 18.5126L24.833 18.5123C24.8329 18.8051 24.5957 19.0419 24.3037 19.0419V20.0419V21.0419C25.7009 21.0419 26.8326 19.9092 26.833 18.5129L25.833 18.5126ZM24.3037 20.0419V19.0419H17.2793V20.0419V21.0419H24.3037V20.0419ZM17.2793 20.0419L17.2794 19.0419C16.9873 19.0419 16.7501 18.8049 16.75 18.5123L15.75 18.5126L14.75 18.5129C14.7504 19.9093 15.8824 21.0417 17.2792 21.0419L17.2793 20.0419ZM15.75 18.5126H16.75C16.75 18.5325 16.7494 18.5482 16.7489 18.557C16.7487 18.5615 16.7485 18.5651 16.7484 18.5671C16.7482 18.569 16.7481 18.5703 16.7482 18.5698C16.7482 18.5697 16.7482 18.5696 16.7482 18.5693C16.7482 18.5691 16.7483 18.5687 16.7483 18.5684C16.7483 18.5676 16.7484 18.5664 16.7485 18.5651C16.7487 18.5624 16.7489 18.5581 16.7492 18.5529C16.7498 18.543 16.7506 18.5259 16.7509 18.505L15.751 18.4921L14.7511 18.4793C14.7513 18.4617 14.752 18.448 14.7523 18.4415C14.7525 18.438 14.7527 18.4354 14.7528 18.4345C14.7528 18.4339 14.7529 18.433 14.7527 18.435C14.7526 18.4367 14.7519 18.4465 14.7514 18.4581C14.7508 18.4703 14.75 18.4894 14.75 18.5126H15.75ZM15.751 18.4921H16.751V11.4882H15.751H14.751V18.4921H15.751ZM15.751 11.4882H16.751C16.751 11.195 16.9887 10.9579 17.2803 10.9579V9.95795V8.95795C15.8824 8.95795 14.751 10.092 14.751 11.4882H15.751ZM17.2803 9.95795L17.2801 10.9579C17.5719 10.958 17.8096 11.1952 17.8096 11.4882H18.8096H19.8096C19.8096 10.092 18.6779 8.95813 17.2804 8.95795L17.2803 9.95795ZM18.8096 11.4882H17.8096V15.0117H18.8096H19.8096V11.4882H18.8096ZM18.8096 15.0117L19.5196 15.7159L25.3682 9.81939L24.6582 9.11517L23.9482 8.41095L18.0996 14.3074L18.8096 15.0117Z" fill="white" mask="url(#path-4-inside-2_5333_58109)"/>
</svg>
