<svg width="30" height="30" viewBox="0 0 30 30" fill="none" xmlns="http://www.w3.org/2000/svg">
<rect width="30" height="30" rx="15" fill="#008C99"/>
<circle cx="15.0002" cy="14.9999" r="12.6203" fill="white"/>
<path d="M21.2814 15.0003C21.2814 18.6045 18.3596 21.5262 14.7554 21.5262C11.1513 21.5262 8.22949 18.6045 8.22949 15.0003C8.22949 11.3961 11.1513 8.47437 14.7554 8.47437C18.3596 8.47437 21.2814 11.3961 21.2814 15.0003Z" fill="#008C99"/>
<path d="M8.36989 12.2518C9.0517 8.2221 12.7446 5.16978 16.6943 4.11898C17.9996 3.7717 19.3164 3.62985 20.752 3.54517C18.0644 4.82351 16.0862 6.04063 16.0271 8.79255L8.22976 15.2352C8.19486 14.0897 8.22096 13.1321 8.36989 12.2518Z" fill="#008C99"/>
<path d="M16.6051 16.5964H15.8467V13.4034H16.5608L16.6051 14.0556V16.5964ZM16.2362 14.8907C16.2362 14.5917 16.2834 14.3261 16.3779 14.0939C16.4743 13.8618 16.6169 13.6788 16.8058 13.545C16.9946 13.4113 17.2288 13.3444 17.5081 13.3444C17.7973 13.3444 18.0344 13.4319 18.2193 13.607C18.4043 13.7821 18.4967 14.0693 18.4967 14.4687V16.5964H17.7413V14.5425C17.7413 14.3949 17.7186 14.2789 17.6734 14.1943C17.6301 14.1097 17.5671 14.0497 17.4845 14.0143C17.4019 13.9788 17.3045 13.9611 17.1924 13.9611C17.0665 13.9611 16.9582 13.9847 16.8677 14.032C16.7792 14.0792 16.7064 14.1451 16.6494 14.2297C16.5923 14.3143 16.55 14.4126 16.5225 14.5248C16.4969 14.6369 16.4841 14.7579 16.4841 14.8878L16.2362 14.8907ZM18.1072 14.7963C18.1072 14.5307 18.1544 14.2877 18.2488 14.0674C18.3433 13.847 18.483 13.6719 18.6679 13.5421C18.8528 13.4103 19.081 13.3444 19.3525 13.3444C19.567 13.3444 19.7519 13.3847 19.9073 13.4654C20.0628 13.544 20.1818 13.6709 20.2644 13.846C20.349 14.0211 20.3913 14.2523 20.3913 14.5395V16.5964H19.6329V14.5366C19.6329 14.3831 19.6103 14.2651 19.565 14.1825C19.5217 14.0998 19.4588 14.0428 19.3762 14.0113C19.2955 13.9779 19.2001 13.9611 19.0899 13.9611C18.9817 13.9611 18.8873 13.9808 18.8066 14.0202C18.7279 14.0595 18.661 14.1146 18.6059 14.1854C18.5528 14.2543 18.5125 14.3359 18.4849 14.4304C18.4574 14.5228 18.4436 14.6232 18.4436 14.7314L18.1072 14.7963Z" fill="white"/>
<path d="M12.2852 14.9704C12.2852 14.6596 12.3442 14.3822 12.4622 14.1382C12.5803 13.8942 12.7495 13.7014 12.9698 13.5598C13.1921 13.4162 13.4597 13.3444 13.7725 13.3444C14.0892 13.3444 14.3598 13.4162 14.584 13.5598C14.8083 13.7014 14.9785 13.8942 15.0946 14.1382C15.2126 14.3822 15.2716 14.6596 15.2716 14.9704V15.0324C15.2716 15.3412 15.2126 15.6186 15.0946 15.8646C14.9785 16.1085 14.8083 16.3013 14.584 16.443C14.3617 16.5846 14.0932 16.6555 13.7784 16.6555C13.4636 16.6555 13.1951 16.5846 12.9728 16.443C12.7504 16.3013 12.5803 16.1085 12.4622 15.8646C12.3442 15.6186 12.2852 15.3412 12.2852 15.0324V14.9704ZM13.0406 15.0324C13.0406 15.2173 13.0662 15.3875 13.1174 15.5429C13.1685 15.6964 13.2482 15.8193 13.3564 15.9118C13.4646 16.0023 13.6053 16.0475 13.7784 16.0475C13.9515 16.0475 14.0922 16.0023 14.2004 15.9118C14.3086 15.8193 14.3873 15.6964 14.4365 15.5429C14.4876 15.3875 14.5132 15.2173 14.5132 15.0324V14.9704C14.5132 14.7874 14.4876 14.6192 14.4365 14.4658C14.3873 14.3103 14.3076 14.1864 14.1974 14.0939C14.0892 13.9995 13.9476 13.9523 13.7725 13.9523C13.6013 13.9523 13.4616 13.9995 13.3534 14.0939C13.2452 14.1864 13.1656 14.3103 13.1144 14.4658C13.0652 14.6192 13.0406 14.7874 13.0406 14.9704V15.0324Z" fill="white"/>
<path d="M10.5779 16.6556C10.2514 16.6556 9.97986 16.5838 9.76345 16.4401C9.54704 16.2946 9.38571 16.1008 9.27947 15.8588C9.17324 15.6148 9.12012 15.3453 9.12012 15.0502V14.9528C9.12012 14.6557 9.17324 14.3862 9.27947 14.1442C9.38768 13.9003 9.54901 13.7065 9.76345 13.5629C9.97986 13.4173 10.2504 13.3445 10.575 13.3445C10.8327 13.3445 11.059 13.3956 11.2537 13.4979C11.4505 13.5983 11.6039 13.7399 11.7141 13.9229C11.8243 14.1039 11.8813 14.3173 11.8853 14.5633H11.1741C11.1701 14.4511 11.1436 14.3488 11.0944 14.2564C11.0452 14.1639 10.9754 14.0901 10.8849 14.035C10.7963 13.9799 10.6891 13.9524 10.5632 13.9524C10.3802 13.9524 10.2386 14.0006 10.1382 14.097C10.0399 14.1934 9.97101 14.3183 9.93166 14.4718C9.89428 14.6233 9.87559 14.7836 9.87559 14.9528V15.0502C9.87559 15.2194 9.89428 15.3807 9.93166 15.5342C9.96904 15.6857 10.0379 15.8096 10.1382 15.906C10.2386 16.0004 10.3822 16.0477 10.5691 16.0477C10.6812 16.0477 10.7816 16.026 10.8701 15.9827C10.9606 15.9375 11.0324 15.8755 11.0855 15.7968C11.1406 15.7181 11.1701 15.6266 11.1741 15.5224H11.8853C11.8813 15.7348 11.8203 15.9267 11.7023 16.0978C11.5843 16.269 11.4269 16.4047 11.2301 16.5051C11.0354 16.6054 10.818 16.6556 10.5779 16.6556Z" fill="white"/>
</svg>
