<svg width="30" height="30" viewBox="0 0 30 30" fill="none" xmlns="http://www.w3.org/2000/svg">
<rect width="30" height="30" rx="15" fill="#008C99"/>
<path d="M19.4647 14.8511C19.4647 15.5787 19.6264 16.221 19.9498 16.778C20.2822 17.335 20.7134 17.7707 21.2434 18.0851C21.7735 18.3995 22.3484 18.5567 22.9683 18.5567C23.4174 18.5567 23.8262 18.4984 24.1945 18.3816C24.5718 18.2648 24.9132 18.1031 25.2186 17.8965C25.5241 17.6809 25.7846 17.4338 26.0002 17.1553V18.6645C25.6049 19.0149 25.1737 19.2754 24.7066 19.4461C24.2394 19.6168 23.66 19.7021 22.9683 19.7021C22.3125 19.7021 21.6971 19.5853 21.1222 19.3518C20.5562 19.1092 20.0576 18.7723 19.6264 18.3411C19.1952 17.901 18.8583 17.3844 18.6158 16.7915C18.3732 16.1986 18.252 15.5518 18.252 14.8511C18.252 14.1504 18.3732 13.5035 18.6158 12.9106C18.8583 12.3177 19.1952 11.8057 19.6264 11.3745C20.0576 10.9343 20.5562 10.5974 21.1222 10.3638C21.6971 10.1213 22.3125 10 22.9683 10C23.66 10 24.2394 10.0853 24.7066 10.256C25.1737 10.4267 25.6049 10.6872 26.0002 11.0376V12.5468C25.7846 12.2683 25.5241 12.0258 25.2186 11.8191C24.9132 11.6035 24.5718 11.4374 24.1945 11.3206C23.8262 11.2038 23.4174 11.1454 22.9683 11.1454C22.3484 11.1454 21.7735 11.3026 21.2434 11.617C20.7134 11.9314 20.2822 12.3671 19.9498 12.9241C19.6264 13.4721 19.4647 14.1144 19.4647 14.8511Z" fill="white"/>
<path d="M11.4082 10.1348H12.5536V19.5674H11.4082V10.1348ZM12.0415 11.2128V10.1348H13.9685C14.5794 10.1348 15.1229 10.2516 15.599 10.4851C16.0841 10.7097 16.4659 11.0331 16.7444 11.4553C17.0318 11.8776 17.1756 12.3806 17.1756 12.9646C17.1756 13.5395 17.0318 14.0426 16.7444 14.4738C16.4659 14.896 16.0841 15.2239 15.599 15.4575C15.1229 15.6821 14.5794 15.7943 13.9685 15.7943H12.0415V14.7163H13.9685C14.5794 14.7163 15.0735 14.5681 15.4508 14.2716C15.837 13.9752 16.0302 13.5395 16.0302 12.9646C16.0302 12.3806 15.837 11.9449 15.4508 11.6575C15.0735 11.361 14.5794 11.2128 13.9685 11.2128H12.0415Z" fill="white"/>
<path d="M4.63333 19.5674V18.4894H9.39007V19.5674H4.63333ZM4.63333 11.2128V10.1348H9.39007V11.2128H4.63333ZM4.63333 14.9858V13.9078H9.12057V14.9858H4.63333ZM4 10.1348H5.14539V19.5674H4V10.1348Z" fill="white"/>
</svg>
