<svg width="30" height="30" viewBox="0 0 30 30" fill="none" xmlns="http://www.w3.org/2000/svg">
<g clip-path="url(#clip0_5333_58220)">
<rect width="30" height="30" rx="15" fill="#008C99"/>
<path d="M10.135 11.835C9.2721 13.2565 8.86785 14.2492 8.68234 15.8252C8.62591 16.3046 8.7017 16.7961 8.95163 17.2091C10.8793 20.3939 16.0802 21.8771 19.4665 19.7445C19.9173 19.4606 20.2247 19.0022 20.3779 18.492C20.8564 16.8987 20.8647 15.7854 20.6196 13.9843C19.9106 11.1376 18.6702 9.40411 16.6728 8.52987C16.3626 8.39411 16.0232 8.33834 15.685 8.35395C13.2579 8.466 12.2947 9.4151 10.4768 11.3834C10.3486 11.5222 10.2331 11.6734 10.135 11.835Z" fill="white"/>
<path d="M25.8345 13.8866C25.9193 12.6248 25.7488 11.3589 25.3332 10.1645C24.9177 8.97011 24.2657 7.87174 23.4161 6.93502C22.5665 5.99831 21.5367 5.24248 20.3884 4.7127C19.2401 4.18292 17.9968 3.89007 16.7328 3.85164C15.4688 3.8132 14.21 4.02999 13.0316 4.48903C11.8532 4.94807 10.7795 5.63994 9.87457 6.52331C8.96964 7.40668 8.25206 8.46341 7.76474 9.63036C7.27741 10.7973 7.03034 12.0505 7.03827 13.3151C7.03243 12.3843 8.27201 11.0099 8.96661 10.1645C9.66121 9.31917 10.4712 8.66699 11.1372 8.01679C11.8033 7.36659 12.8747 6.86118 13.742 6.52331C14.6093 6.18544 15.8024 5.93605 16.7328 5.96433C17.6632 5.99262 18.6379 6.06548 19.4831 6.45542C19.8574 6.57735 20.1274 6.70165 20.3888 6.85418C21.2215 7.3401 21.8816 7.98157 22.5849 8.64107C23.3993 9.40477 24.1206 10.3395 24.7025 11.2923C25.2799 12.2379 25.8736 13.3046 25.8345 13.8866Z" fill="white"/>
<path d="M20.7652 8.83466C21.85 9.4847 22.7925 10.3467 23.5366 11.3693C24.2807 12.3918 24.811 13.5539 25.0959 14.786C25.3807 16.0181 25.4143 17.295 25.1945 18.5404C24.9747 19.7858 24.5062 20.974 23.8168 22.0342C23.1274 23.0944 22.2314 24.0048 21.1823 24.7109C20.1331 25.417 18.9524 25.9043 17.7107 26.1438C16.469 26.3833 15.1917 26.37 13.9552 26.1048C12.7187 25.8395 11.5484 25.3277 10.5142 24.5999C11.2754 25.1356 13.1114 24.9013 14.202 24.8129C15.2925 24.7245 16.2901 24.4312 17.2041 24.2549C18.1181 24.0786 19.1443 23.4869 19.9165 22.9671C20.6887 22.4474 21.574 21.6096 22.0814 20.8293C22.5888 20.0489 23.0849 19.2068 23.2467 18.2901C23.36 17.9131 23.4119 17.6205 23.4357 17.3187C23.5115 16.3576 23.3611 15.4495 23.2205 14.4957C23.0576 13.3912 22.7013 12.2655 22.2505 11.2441C21.8031 10.2305 21.2655 9.13449 20.7652 8.83466Z" fill="white"/>
<path d="M8.25824 6.10431C7.17348 6.75435 6.23089 7.6164 5.48681 8.63894C4.74272 9.66148 4.21241 10.8235 3.92755 12.0556C3.6427 13.2878 3.60916 14.5647 3.82892 15.81C4.04869 17.0554 4.51726 18.2437 5.20663 19.3039C5.896 20.3641 6.79202 21.2744 7.84116 21.9805C8.89029 22.6866 10.071 23.174 11.3127 23.4135C12.5545 23.653 13.8317 23.6397 15.0682 23.3744C16.3047 23.1091 17.475 22.5973 18.5092 21.8695C17.748 22.4052 15.912 22.171 14.8215 22.0825C13.7309 21.9941 12.7333 21.7008 11.8193 21.5245C10.9054 21.3483 9.87917 20.7565 9.10696 20.2368C8.33476 19.7171 7.44941 18.8793 6.94201 18.0989C6.4346 17.3186 5.93853 16.4764 5.77677 15.5598C5.66343 15.1827 5.61157 14.8901 5.58777 14.5884C5.51197 13.6273 5.66237 12.7192 5.80297 11.7654C5.96579 10.6608 6.32215 9.53516 6.77295 8.51377C7.22031 7.50016 7.75789 6.40415 8.25824 6.10431Z" fill="white"/>
</g>
<defs>
<clipPath id="clip0_5333_58220">
<rect width="30" height="30" rx="15" fill="white"/>
</clipPath>
</defs>
</svg>
