<svg width="30" height="30" viewBox="0 0 30 30" fill="none" xmlns="http://www.w3.org/2000/svg">
<rect width="30" height="30" rx="15" fill="#008C99"/>
<path d="M19.8714 17.1428L20.2796 16.0544H24.4972L24.9054 17.1428H19.8714ZM22.3612 12.6258L20.7558 16.4081L20.6469 16.653L19.232 19.9999H17.9395L22.3612 10L26.7829 19.9999H25.4904L24.1027 16.7347L23.9938 16.4626L22.3612 12.6258Z" fill="white"/>
<path d="M12.1189 20V18.9115H16.9216V20H12.1189ZM12.1189 11.5646V10.4762H16.9216V11.5646H12.1189ZM12.1189 15.3741V14.2857H16.6495V15.3741H12.1189ZM11.4795 10.4762H12.6359V20H11.4795V10.4762Z" fill="white"/>
<path d="M4.63945 20V18.9115H9.44215V20H4.63945ZM4.63945 11.5646V10.4762H9.44215V11.5646H4.63945ZM4.63945 15.3741V14.2857H9.17004V15.3741H4.63945ZM4 10.4762H5.15646V20H4V10.4762Z" fill="white"/>
</svg>
