<svg width="30" height="30" viewBox="0 0 30 30" fill="none" xmlns="http://www.w3.org/2000/svg">
<rect width="30" height="30" rx="15" fill="#008C99"/>
<path d="M19.0248 17.2082L19.4367 16.1098H23.693L24.1049 17.2082H19.0248ZM21.5374 12.6499L19.9173 16.4668L19.8075 16.7139L18.3795 20.0915H17.0752L21.5374 10L25.9997 20.0915H24.6953L23.2949 16.7963L23.185 16.5217L21.5374 12.6499Z" fill="white"/>
<path d="M11.5488 10.4806H12.7159V20.0916H11.5488V10.4806ZM12.1941 11.579V10.4806H14.1575C14.7799 10.4806 15.3337 10.5996 15.8188 10.8376C16.3131 11.0664 16.7021 11.3959 16.9859 11.8261C17.2788 12.2563 17.4252 12.7689 17.4252 13.3639C17.4252 13.9497 17.2788 14.4623 16.9859 14.9016C16.7021 15.3318 16.3131 15.6659 15.8188 15.9039C15.3337 16.1328 14.7799 16.2472 14.1575 16.2472H12.1941V15.1488H14.1575C14.7799 15.1488 15.2834 14.9977 15.6678 14.6957C16.0614 14.3936 16.2582 13.9497 16.2582 13.3639C16.2582 12.7689 16.0614 12.325 15.6678 12.0321C15.2834 11.73 14.7799 11.579 14.1575 11.579H12.1941Z" fill="white"/>
<path d="M4.64531 20.0916V18.9932H9.49198V20.0916H4.64531ZM4.64531 11.579V10.4806H9.49198V11.579H4.64531ZM4.64531 15.4234V14.325H9.21738V15.4234H4.64531ZM4 10.4806H5.16705V20.0916H4V10.4806Z" fill="white"/>
</svg>
