<svg width="30" height="30" viewBox="0 0 30 30" fill="none" xmlns="http://www.w3.org/2000/svg">
<rect width="30" height="30" rx="15" fill="#008C99"/>
<path d="M11.8861 15.088C10.0113 15.9986 8.77866 16.4409 7.68587 16.0912C6.57539 15.7359 5.99946 14.4619 6.17838 13.3097C6.4727 11.4145 8.05959 9.90881 11.691 7.59907C14.3704 6.2408 15.8979 5.64334 18.8289 5.92187C22.8496 6.30395 24.728 11.5441 23.018 15.2031C22.9876 15.2679 22.9565 15.3336 22.9244 15.4C20.9002 19.1748 19.0658 20.9789 14.0703 23.435C13.0459 23.8939 12.2915 24.168 11.5068 24.1436C10.2897 24.1059 9.25023 23.4135 9.16086 22.1991C9.09395 21.2899 9.60117 20.1534 10.1134 19.3992C10.814 18.3676 11.4108 17.6537 12.3158 17.4267C12.7972 17.3059 13.3088 17.3779 13.7793 17.5359C13.8077 17.5454 13.8355 17.5553 13.8625 17.5656C15.0254 18.0097 13.9236 19.6557 13.0562 20.5486L13.0279 20.5726C11.7492 21.6564 11.6734 23.1321 13.2073 22.4561C14.4136 21.9245 16.3435 20.5522 17.276 19.6204C18.78 18.1175 19.8543 16.9231 20.3941 15.4781C20.7406 14.5505 20.8755 13.2918 20.4222 12.4114C19.4315 10.4869 16.6595 12.3603 14.7801 13.4343L11.8861 15.088Z" fill="white"/>
</svg>
