<svg width="30" height="30" viewBox="0 0 30 30" fill="none" xmlns="http://www.w3.org/2000/svg">
<rect width="30" height="30" rx="15" fill="#008C99"/>
<path d="M18.9096 15.2633C18.9096 16.0528 19.085 16.7497 19.4359 17.354C19.7965 17.9583 20.2644 18.431 20.8394 18.7721C21.4145 19.1133 22.0383 19.2838 22.7108 19.2838C23.1982 19.2838 23.6417 19.2205 24.0413 19.0938C24.4506 18.9671 24.821 18.7916 25.1524 18.5675C25.4838 18.3335 25.7665 18.0655 26.0004 17.7633V19.4008C25.5715 19.7809 25.1037 20.0636 24.5968 20.2488C24.09 20.434 23.4613 20.5266 22.7108 20.5266C21.9993 20.5266 21.3317 20.3999 20.7079 20.1464C20.0938 19.8833 19.5529 19.5178 19.085 19.0499C18.6172 18.5723 18.2517 18.0119 17.9885 17.3686C17.7253 16.7253 17.5938 16.0235 17.5938 15.2633C17.5938 14.503 17.7253 13.8013 17.9885 13.158C18.2517 12.5147 18.6172 11.9591 19.085 11.4913C19.5529 11.0137 20.0938 10.6482 20.7079 10.3947C21.3317 10.1316 21.9993 10 22.7108 10C23.4613 10 24.09 10.0926 24.5968 10.2778C25.1037 10.463 25.5715 10.7456 26.0004 11.1258V12.7632C25.7665 12.4611 25.4838 12.1979 25.1524 11.9737C24.821 11.7398 24.4506 11.5595 24.0413 11.4328C23.6417 11.3061 23.1982 11.2427 22.7108 11.2427C22.0383 11.2427 21.4145 11.4133 20.8394 11.7544C20.2644 12.0956 19.7965 12.5683 19.4359 13.1726C19.085 13.7671 18.9096 14.464 18.9096 15.2633Z" fill="white"/>
<path d="M12.0381 10.1462H13.2808V19.2108H17.3014V20.3804H12.0381V10.1462Z" fill="white"/>
<path d="M4.68715 20.3804V19.2108H9.84809V20.3804H4.68715ZM4.68715 11.3159V10.1462H9.84809V11.3159H4.68715ZM4.68715 15.4095V14.2399H9.55569V15.4095H4.68715ZM4 10.1462H5.24272V20.3804H4V10.1462Z" fill="white"/>
</svg>
