<svg width="30" height="30" viewBox="0 0 30 30" fill="none" xmlns="http://www.w3.org/2000/svg">
<rect width="30" height="30" rx="15" fill="#237648"/>
<path d="M24.466 11.5H25.316V18.85L20.016 13.29V18.5H19.166V11.15L24.466 16.71V11.5Z" fill="white"/>
<path d="M13.2345 16.4L13.5345 15.6H16.6345L16.9345 16.4H13.2345ZM15.0645 13.08L13.8845 15.86L13.8045 16.04L12.7645 18.5H11.8145L15.0645 11.15L18.3145 18.5H17.3645L16.3445 16.1L16.2645 15.9L15.0645 13.08Z" fill="white"/>
<path d="M7.80477 14.8V14.33H8.93477C9.1681 14.33 9.3781 14.29 9.56477 14.21C9.75143 14.13 9.8981 14.0133 10.0048 13.86C10.1114 13.7067 10.1648 13.52 10.1648 13.3C10.1648 12.9667 10.0481 12.71 9.81477 12.53C9.58143 12.3433 9.2881 12.25 8.93477 12.25H7.98477V17.75H9.03477C9.33477 17.75 9.5981 17.6967 9.82477 17.59C10.0581 17.4833 10.2381 17.33 10.3648 17.13C10.4981 16.93 10.5648 16.6867 10.5648 16.4C10.5648 16.1867 10.5281 15.9967 10.4548 15.83C10.3814 15.6633 10.2748 15.5233 10.1348 15.41C10.0014 15.2967 9.84143 15.2133 9.65477 15.16C9.4681 15.1 9.26143 15.07 9.03477 15.07H7.80477V14.6H9.03477C9.37477 14.6 9.6881 14.6367 9.97477 14.71C10.2614 14.7833 10.5114 14.8967 10.7248 15.05C10.9448 15.1967 11.1148 15.3867 11.2348 15.62C11.3548 15.8533 11.4148 16.13 11.4148 16.45C11.4148 16.91 11.3081 17.2933 11.0948 17.6C10.8881 17.9 10.6048 18.1267 10.2448 18.28C9.89143 18.4267 9.4881 18.5 9.03477 18.5H7.13477V11.5H8.93477C9.35477 11.5 9.7181 11.5633 10.0248 11.69C10.3381 11.8167 10.5814 12.01 10.7548 12.27C10.9281 12.5233 11.0148 12.85 11.0148 13.25C11.0148 13.5767 10.9281 13.8567 10.7548 14.09C10.5814 14.3233 10.3381 14.5 10.0248 14.62C9.7181 14.74 9.35477 14.8 8.93477 14.8H7.80477Z" fill="white"/>
<path d="M4.68359 11.5H5.53359V18.5H4.68359V11.5Z" fill="white"/>
</svg>
