<svg width="30" height="30" viewBox="0 0 30 30" fill="none" xmlns="http://www.w3.org/2000/svg">
<rect width="30" height="30" rx="15" fill="#008C99"/>
<path d="M20.71 19.2814V10H23.846C24.5742 10 25.1694 10.1314 25.6316 10.3943C26.0969 10.6541 26.4413 11.0061 26.6649 11.4502C26.8885 11.8943 27.0003 12.3898 27.0003 12.9367C27.0003 13.4835 26.8885 13.9805 26.6649 14.4277C26.4443 14.8748 26.1029 15.2313 25.6407 15.4972C25.1784 15.7601 24.5863 15.8915 23.8642 15.8915H21.6163V14.8945H23.8279C24.3264 14.8945 24.7267 14.8084 25.0289 14.6361C25.331 14.4639 25.55 14.2313 25.686 13.9382C25.825 13.6421 25.8945 13.3083 25.8945 12.9367C25.8945 12.5651 25.825 12.2327 25.686 11.9397C25.55 11.6466 25.3295 11.417 25.0243 11.2508C24.7192 11.0816 24.3143 10.997 23.8098 10.997H21.8339V19.2814H20.71Z" fill="white"/>
<path d="M18.4594 10V19.2814H17.3718L12.3142 11.994H12.2235V19.2814H11.0996V10H12.1873L17.263 17.3054H17.3536V10H18.4594Z" fill="white"/>
<path d="M3 19.2814V10H6.13608C6.86421 10 7.4594 10.1314 7.92166 10.3943C8.38693 10.6541 8.73136 11.0061 8.95493 11.4502C9.17851 11.8943 9.29029 12.3898 9.29029 12.9367C9.29029 13.4835 9.17851 13.9805 8.95493 14.4277C8.73438 14.8748 8.39298 15.2313 7.93072 15.4972C7.46847 15.7601 6.8763 15.8915 6.15421 15.8915H3.90638V14.8945H6.11796C6.61647 14.8945 7.01678 14.8084 7.31891 14.6361C7.62104 14.4639 7.84008 14.2313 7.97604 13.9382C8.11502 13.6421 8.18451 13.3083 8.18451 12.9367C8.18451 12.5651 8.11502 12.2327 7.97604 11.9397C7.84008 11.6466 7.61953 11.417 7.31438 11.2508C7.00923 11.0816 6.60438 10.997 6.09983 10.997H4.12391V19.2814H3Z" fill="white"/>
</svg>
