<svg width="30" height="30" viewBox="0 0 30 30" fill="none" xmlns="http://www.w3.org/2000/svg">
<rect width="30" height="30" rx="15" fill="#237648"/>
<path d="M21.5 22C24.5376 22 27 19.5376 27 16.5C27 13.4624 24.5376 11 21.5 11C18.4624 11 16 13.4624 16 16.5C16 19.5376 18.4624 22 21.5 22Z" fill="white"/>
<path d="M13.326 20.1452L9.47091 22.7856C9.33818 22.8765 9.15789 22.7815 9.15789 22.6206V11.361C9.15789 11.2038 9.33073 11.1081 9.46394 11.1914L13.7219 13.8541C13.8489 13.9335 13.8468 14.1191 13.7181 14.1956L4.30219 19.7923C4.16887 19.8716 4 19.7755 4 19.6204V14.3875C4 14.2307 4.17222 14.1349 4.30545 14.2176L13.3184 19.8103C13.4411 19.8864 13.4451 20.0636 13.326 20.1452Z" stroke="white"/>
<path d="M27 18H24.9174C24.6741 18 24.4408 18.1289 24.2687 18.3583C24.0967 18.5877 24 18.8988 24 19.2232V22" stroke="#237648" stroke-linecap="round" stroke-linejoin="round"/>
<path d="M19 11V11.9584C19 12.4178 19.1784 12.8584 19.4961 13.1832C19.8137 13.508 20.2445 13.6905 20.6937 13.6905C20.9932 13.6905 21.2804 13.8122 21.4921 14.0287C21.7039 14.2453 21.8229 14.539 21.8229 14.8453C21.8229 15.4804 22.331 16 22.952 16C23.2515 16 23.5387 15.8783 23.7504 15.6618C23.9622 15.4452 24.0812 15.1515 24.0812 14.8453C24.0812 14.2102 24.5893 13.6905 25.2103 13.6905H27" stroke="#237648" stroke-linecap="round" stroke-linejoin="round"/>
<path d="M20 22V19.8356C20 19.545 19.9058 19.2662 19.7382 19.0607C19.5706 18.8552 19.3432 18.7397 19.1061 18.7397C18.8691 18.7397 18.6417 18.6243 18.4741 18.4187C18.3065 18.2132 18.2123 17.9345 18.2123 17.6438V17.0959C18.2123 16.8052 18.1181 16.5265 17.9505 16.321C17.7829 16.1155 17.5555 16 17.3184 16H16" stroke="#237648" stroke-linecap="round" stroke-linejoin="round"/>
<path d="M7.5 8.62503C7.5 8.90118 7.72386 9.12503 8 9.12503C8.27614 9.12503 8.5 8.90118 8.5 8.62503H7.5ZM8 8.62503H8.5C8.5 6.90519 9.20963 5.64138 10.2655 4.7967C11.334 3.94185 12.7807 3.50001 14.25 3.5C15.7193 3.5 17.166 3.94184 18.2345 4.79669C19.2904 5.64138 20 6.90519 20 8.62503H20.5H21C21 6.59486 20.1471 5.04615 18.8592 4.01583C17.584 2.99567 15.9057 2.5 14.25 2.5C12.5943 2.50001 10.916 2.99567 9.64078 4.01583C8.35287 5.04616 7.5 6.59486 7.5 8.62503H8Z" fill="white"/>
<path d="M19 7.5L20.3586 8.85858C20.4367 8.93668 20.5633 8.93668 20.6414 8.85858L22 7.5" stroke="white" stroke-linecap="round"/>
</svg>
