<svg width="30" height="30" viewBox="0 0 30 30" fill="none" xmlns="http://www.w3.org/2000/svg">
<rect width="30" height="30" rx="15" fill="#008C99"/>
<path d="M18.9697 20V10H22.3486C23.1331 10 23.7744 10.1416 24.2725 10.4248C24.7738 10.7048 25.1449 11.084 25.3857 11.5625C25.6266 12.041 25.7471 12.5749 25.7471 13.1641C25.7471 13.7533 25.6266 14.2887 25.3857 14.7705C25.1481 15.2523 24.7803 15.6364 24.2822 15.9229C23.7842 16.2061 23.1462 16.3477 22.3682 16.3477H19.9463V15.2734H22.3291C22.8662 15.2734 23.2975 15.1807 23.623 14.9951C23.9486 14.8096 24.1846 14.5589 24.3311 14.2432C24.4808 13.9242 24.5557 13.5645 24.5557 13.1641C24.5557 12.7637 24.4808 12.4056 24.3311 12.0898C24.1846 11.7741 23.9469 11.5267 23.6182 11.3477C23.2894 11.1654 22.8532 11.0742 22.3096 11.0742H20.1807V20H18.9697Z" fill="white"/>
<path d="M7.73438 20L5 10H6.23047L8.32031 18.1445H8.41797L10.5469 10H11.9141L14.043 18.1445H14.1406L16.2305 10H17.4609L14.7266 20H13.4766L11.2695 12.0312H11.1914L8.98438 20H7.73438Z" fill="white"/>
</svg>
