<svg xmlns="http://www.w3.org/2000/svg" width="24" height="24" viewBox="0 0 24 24" fill="none" stroke="currentColor" stroke-width="2" stroke-linecap="round" stroke-linejoin="round" class="lucide lucide-square-terminal"><defs><mask id="mask0_5569_99999" maskUnits="userSpaceOnUse" stroke="none" x="0" y="0" width="25" height="26"><rect width="25" height="26" fill="white"></rect><path d="M16.6519 14.8511L14.647 12.1974L13.6451 11.4308L16.4757 11.2539L19.1589 13.5538V16.5023L19.9255 17.5637L23.3163 20.8661L22.5202 22.7237L20.8985 23.107L16.4757 19.3918L13.1144 18.5368L11.3447 16.6497L11.6987 14.4973L15.2369 16.5023L16.6519 14.8511Z" fill="black"></path></mask><clipPath id="clip0_5569_99999"><rect width="25" height="26" fill="white"></rect></clipPath></defs><g clip-path="url(#clip0_5569_99999)" mask="url(#mask0_5569_99999)"><path d="m7 11 2-2-2-2"></path><path d="M11 13h4"></path><rect width="18" height="18" x="3" y="3" rx="2" ry="2"></rect></g><path d="M15.6895 10.7607L16.0068 10.793C16.7468 10.8948 17.4495 11.1744 18.0557 11.6055L18.3096 11.7988C18.9692 12.3402 19.4659 13.0539 19.7451 13.8604C20.0243 14.6669 20.0746 15.5357 19.8906 16.3691L19.8613 16.5029L23.0537 19.6953C23.3443 19.9859 23.5548 20.3462 23.6641 20.7402L23.7041 20.9121C23.7842 21.3151 23.758 21.7308 23.6299 22.1191L23.5693 22.2842C23.412 22.6638 23.1592 22.9953 22.8369 23.2471L22.6943 23.3496C22.3524 23.578 21.9579 23.713 21.5498 23.7432L21.375 23.75H21.374C21.1401 23.7506 20.9077 23.7169 20.6846 23.6494L20.4648 23.5703C20.2489 23.4808 20.0479 23.3599 19.8682 23.2119L19.6953 23.0547L16.5996 19.958L16.502 19.8613L16.3682 19.8916C15.6389 20.0525 14.8829 20.034 14.165 19.8398L13.8604 19.7461C13.1545 19.5018 12.5201 19.09 12.0098 18.5488L11.7988 18.3096C11.3252 17.7323 10.9996 17.0501 10.8477 16.3223L10.793 16.0068C10.6913 15.267 10.7711 14.5153 11.0225 13.8154L11.1406 13.5186L11.4336 12.8477L14.2969 15.7109C14.4862 15.8919 14.7381 15.9932 15 15.9932C15.229 15.9931 15.4504 15.9158 15.6289 15.7754L15.7031 15.7109L15.707 15.707C15.8944 15.5195 16 15.2651 16 15C16 14.768 15.9192 14.5441 15.7734 14.3662L15.707 14.293L12.8486 11.4336L13.5186 11.1396C14.2024 10.8395 14.9474 10.7104 15.6895 10.7607ZM15.375 11.75C15.3074 11.75 15.2396 11.7521 15.1729 11.7559L14.6152 11.7871L15.0107 12.1816L16.4141 13.5859C16.789 13.961 17 14.4697 17 15C17 15.5286 16.7906 16.0355 16.418 16.4102C16.0361 16.7751 15.5283 16.9785 15 16.9785C14.5376 16.9785 14.0908 16.8228 13.7305 16.5391L13.582 16.4102L12.1816 15.0098L11.7861 14.6152L11.7549 15.1729C11.7511 15.24 11.75 15.3074 11.75 15.375L11.7559 15.5889C11.7808 16.0159 11.8816 16.4351 12.0527 16.8271L12.1436 17.0205C12.4029 17.5302 12.7796 17.9713 13.2422 18.3076C13.6471 18.602 14.1082 18.809 14.5957 18.916L14.8057 18.9561C15.2999 19.0343 15.8044 19.0088 16.2871 18.8828L16.4932 18.8232L16.7832 18.7275L20.4072 22.3516C20.6679 22.6004 21.0146 22.7393 21.375 22.7393C21.6902 22.7392 21.9944 22.6326 22.2402 22.4395L22.3428 22.3516L22.3467 22.3477C22.6044 22.0898 22.749 21.7396 22.749 21.375C22.7489 21.056 22.638 20.7485 22.4375 20.5039L22.3467 20.4033L18.7275 16.7832L18.8223 16.4922L18.8213 16.4912C18.9758 16.0158 19.0311 15.5145 18.9824 15.0186L18.9551 14.8057C18.8768 14.3112 18.6968 13.8392 18.4277 13.4189L18.3076 13.2422C18.0134 12.8374 17.6384 12.4992 17.208 12.2471L17.0205 12.1436C16.5746 11.9166 16.0868 11.785 15.5889 11.7559L15.375 11.75Z" fill="currentColor" stroke="currentColor" stroke-width="0.5"></path></svg>