<svg width="25" height="26" viewBox="0 0 25 26" fill="none" xmlns="http://www.w3.org/2000/svg">
<rect x="1" y="1" width="15.5676" height="24" rx="2" stroke="currentColor" stroke-width="1.5"/>
<rect x="4.44946" y="5.83203" width="8.66864" height="4.4541" rx="1.5" stroke="currentColor"/>
<mask id="path-3-inside-1_5569_10839" fill="white">
<path d="M4.10303 25.0017C4.10303 23.9372 4.966 23.0742 6.03052 23.0742H11.5377C12.6022 23.0742 13.4652 23.9372 13.4652 25.0017H4.10303Z"/>
</mask>
<path d="M6.03052 23.0742V25.0742H11.5377V23.0742V21.0742H6.03052V23.0742ZM13.4652 25.0017V23.0017H4.10303V25.0017V27.0017H13.4652V25.0017ZM11.5377 23.0742V25.0742C11.4976 25.0742 11.4652 25.0418 11.4652 25.0017H13.4652H15.4652C15.4652 22.8326 13.7067 21.0742 11.5377 21.0742V23.0742ZM6.03052 23.0742V21.0742C3.86143 21.0742 2.10303 22.8326 2.10303 25.0017H4.10303H6.10303C6.10303 25.0418 6.07057 25.0742 6.03052 25.0742V23.0742Z" fill="white" mask="url(#path-3-inside-1_5569_10839)"/>
<rect x="4.05054" y="13.8789" width="2.24324" height="2.24324" rx="0.5" stroke="currentColor"/>
<rect x="4.05054" y="17.3945" width="2.24324" height="2.24324" rx="0.5" stroke="currentColor"/>
<rect x="11.2732" y="13.8789" width="2.24324" height="2.24324" rx="0.5" stroke="currentColor"/>
<rect x="11.2732" y="17.3945" width="2.24324" height="2.24324" rx="0.5" stroke="currentColor"/>
<rect x="7.66187" y="13.8789" width="2.24324" height="2.24324" rx="0.5" stroke="currentColor"/>
<rect x="7.32427" y="3.75591" width="2.91892" height="0.324324" rx="0.162162" stroke="currentColor" stroke-width="0.324324"/>
<rect x="7.66187" y="17.3945" width="2.24324" height="2.24324" rx="0.5" stroke="currentColor"/>
<mask id="path-12-inside-2_5569_10839" fill="white">
<path d="M16.1414 2.74609C16.6122 2.74609 16.9939 3.12779 16.9939 3.59863V10.6454C16.9939 11.1163 16.6122 11.498 16.1414 11.498V2.74609Z"/>
</mask>
<path d="M16.9939 3.59863H14.9939V10.6454H16.9939H18.9939V3.59863H16.9939ZM16.1414 11.498H18.1414V2.74609H16.1414H14.1414V11.498H16.1414ZM16.9939 10.6454H14.9939C14.9939 10.0117 15.5076 9.49797 16.1414 9.49797V11.498V13.498C17.7168 13.498 18.9939 12.2208 18.9939 10.6454H16.9939ZM16.1414 2.74609V4.74609C15.5076 4.74609 14.9939 4.23236 14.9939 3.59863H16.9939H18.9939C18.9939 2.02322 17.7168 0.746094 16.1414 0.746094V2.74609Z" fill="currentColor" mask="url(#path-12-inside-2_5569_10839)"/>
<path d="M17.6519 15.8511L15.647 13.1974L14.6451 12.4308L17.4757 12.2539L20.1589 14.5538V17.5023L20.9255 18.5637L24.3163 21.8661L23.5202 23.7237L21.8985 24.107L17.4757 20.3918L14.1144 19.5368L12.3447 17.6497L12.6987 15.4973L16.2369 17.5023L17.6519 15.8511Z" fill="#13232C"/>
<path d="M22.3747 25C22.0299 25.0009 21.6883 24.9334 21.3697 24.8014C21.051 24.6695 20.7617 24.4757 20.5185 24.2313L17.4225 21.1353C16.5439 21.3293 15.6288 21.2762 14.7786 20.9819C13.9283 20.6876 13.1762 20.1637 12.6055 19.4681C12.0348 18.7726 11.6679 17.9325 11.5454 17.0412C11.4229 16.1499 11.5496 15.242 11.9115 14.4183L12.3525 13.4133L15.4695 16.5303C15.6122 16.6668 15.8022 16.743 15.9997 16.743C16.1973 16.743 16.3872 16.6668 16.53 16.5303C16.6706 16.3896 16.7496 16.1989 16.7496 16C16.7496 15.8011 16.6706 15.6104 16.53 15.4698L13.413 12.352L14.418 11.911C15.2418 11.5494 16.1496 11.4228 17.0409 11.5455C17.9322 11.6681 18.7722 12.0351 19.4677 12.6059C20.1632 13.1766 20.6871 13.9287 20.9814 14.7789C21.2757 15.6291 21.3288 16.5442 21.135 17.4228L24.231 20.5188C24.5981 20.8859 24.8482 21.3536 24.9495 21.8629C25.0508 22.3721 24.9988 22.8999 24.8001 23.3796C24.6014 23.8593 24.2649 24.2692 23.8332 24.5577C23.4015 24.8461 22.8939 25.0001 22.3747 25ZM17.8522 19.4433L21.5797 23.1708C21.7939 23.3752 22.0786 23.4893 22.3747 23.4893C22.6708 23.4893 22.9555 23.3752 23.1697 23.1708C23.3806 22.9598 23.4991 22.6737 23.4991 22.3754C23.4991 22.0771 23.3806 21.791 23.1697 21.58L19.443 17.8525L19.584 17.4153C19.7487 16.9089 19.7912 16.3708 19.7079 15.8448C19.6247 15.3189 19.4181 14.8202 19.105 14.3894C18.7919 13.9587 18.3813 13.6083 17.9068 13.3668C17.4322 13.1253 16.9072 12.9996 16.3747 13C16.3117 13 16.2492 13.0018 16.1872 13.0053L17.5912 14.4093C18.013 14.8312 18.25 15.4034 18.25 16C18.25 16.5966 18.013 17.1688 17.5912 17.5908C17.1628 18.0004 16.5928 18.229 16.0001 18.229C15.4073 18.229 14.8374 18.0004 14.409 17.5908L13.005 16.1868C13.0015 16.2493 12.9997 16.312 12.9997 16.375C12.9993 16.9076 13.125 17.4327 13.3665 17.9073C13.6081 18.382 13.9586 18.7927 14.3894 19.1058C14.8202 19.419 15.319 19.6256 15.845 19.7089C16.371 19.7922 16.9093 19.7498 17.4157 19.585L17.8522 19.4433Z" fill="currentColor"/>
</svg>
