<svg width="50" height="50" viewBox="0 0 50 50" fill="none" xmlns="http://www.w3.org/2000/svg">
<path fill-rule="evenodd" clip-rule="evenodd" d="M0.0873334 22.8954C0.029498 23.5893 0 24.2912 0 25C0 29.8926 1.40543 34.4569 3.8346 38.3112C4.9495 36.3347 7.06889 35 9.5 35C13.0899 35 16 37.9101 16 41.5C16 43.7865 14.8194 45.7973 13.0345 46.9559C16.5884 48.8968 20.6654 50 25 50C28.4669 50 31.769 49.2943 34.7704 48.0187C34.284 47.3 34 46.4332 34 45.5C34 43.0147 36.0147 41 38.5 41C40.0873 41 41.4826 41.8218 42.2837 43.0631C43.7554 41.6545 45.0553 40.0678 46.1488 38.3376C44.8597 37.5462 44 36.1235 44 34.5C44 32.0147 46.0147 30 48.5 30C48.8359 30 49.1632 30.0368 49.478 30.1066C49.8202 28.458 50 26.75 50 25C50 18.2385 47.3157 12.1039 42.9547 7.60377C42.6636 9.52643 41.0039 11 39 11C36.7909 11 35 9.20914 35 7C35 5.34213 36.0086 3.91982 37.4457 3.31322C33.7808 1.20548 29.5312 0 25 0C24.662 0 24.3256 0.00670657 23.9909 0.0199932C24.6299 1.02613 25 2.21985 25 3.5C25 7.08985 22.0899 10 18.5 10C14.9572 10 12.0763 7.16558 12.0015 3.6407C7.59277 6.32944 4.08171 10.3448 2.02299 15.132C3.73654 15.584 5 17.1445 5 19C5 21.2091 3.20914 23 1 23C0.686015 23 0.380479 22.9638 0.0873334 22.8954ZM35 20.5C35 18.0147 37.0147 16 39.5 16C41.9853 16 44 18.0147 44 20.5C44 22.9853 41.9853 25 39.5 25C37.0147 25 35 22.9853 35 20.5ZM19 19C15.6863 19 13 21.6863 13 25C13 28.3137 15.6863 31 19 31C22.3137 31 25 28.3137 25 25C25 21.6863 22.3137 19 19 19ZM32 30C30.3431 30 29 31.3431 29 33C29 34.6569 30.3431 36 32 36C33.6569 36 35 34.6569 35 33C35 31.3431 33.6569 30 32 30Z" fill="#D9D9D9"/>
</svg>
