<svg width="27" height="25" viewBox="0 0 27 25" fill="none" xmlns="http://www.w3.org/2000/svg">
<path d="M2.5 19.828C2.50011 19.2976 2.7109 18.789 3.086 18.414L9 12.5C10.1586 14.4052 10.9909 15.2797 13.086 16.414C12.711 16.7891 12.2024 16.9999 11.672 17H11.5C11.2348 17 10.9804 17.1053 10.7929 17.2929C10.6054 17.4804 10.5 17.7348 10.5 18V19C10.5 19.2652 10.3946 19.5195 10.2071 19.7071C10.0196 19.8946 9.76522 20 9.5 20H8.5C8.23478 20 7.98043 20.1053 7.79289 20.2929C7.60536 20.4804 7.5 20.7348 7.5 21V22C7.5 22.2652 7.39464 22.5195 7.20711 22.7071C7.01957 22.8946 6.76522 23 6.5 23H3.5C3.23478 23 2.98043 22.8946 2.79289 22.7071C2.60536 22.5195 2.5 22.2652 2.5 22V19.828Z"  stroke-width="2" stroke-linecap="round" stroke-linejoin="round"/>
<path d="M17 9C17.2761 9 17.5 8.77614 17.5 8.5C17.5 8.22386 17.2761 8 17 8C16.7239 8 16.5 8.22386 16.5 8.5C16.5 8.77614 16.7239 9 17 9Z" fill="#237648"  stroke-width="2" stroke-linecap="round" stroke-linejoin="round"/>
<path d="M8.16666 10C8.16666 11.9891 8.95683 13.8968 10.3634 15.3033C11.7699 16.7098 13.6775 17.5 15.6667 17.5C17.6583 17.5 19.5667 16.7167 21 15.3333L19.75 14.0833C19.2253 14.6389 18.5922 15.0809 17.8899 15.3819C17.1875 15.683 16.4308 15.8366 15.6667 15.8333C10.4667 15.8333 7.86666 9.55 11.5417 5.875C15.2167 2.2 21.5 4.80833 21.5 10H19L22.3333 13.3333H22.4167L25.6667 10H23.1667C23.1667 8.01088 22.3765 6.10322 20.97 4.6967C19.5634 3.29018 17.6558 2.5 15.6667 2.5C13.6775 2.5 11.7699 3.29018 10.3634 4.6967C8.95683 6.10322 8.16666 8.01088 8.16666 10Z" fill="#237648"/>
</svg>
