<svg width="24" height="22" viewBox="0 0 24 22" fill="none" xmlns="http://www.w3.org/2000/svg">
<path d="M10 18.3333L8.75 16.0416L6 16.5" stroke="#6089B7" stroke-linecap="round" stroke-linejoin="round"/>
<path d="M10 3.66663L8.75 5.95829L6 5.49996" stroke="#6089B7" stroke-linecap="round" stroke-linejoin="round"/>
<path d="M14 18.3333L15.25 16.0416L18 16.5" stroke="#6089B7" stroke-linecap="round" stroke-linejoin="round"/>
<path d="M14 3.66663L15.25 5.95829L18 5.49996" stroke="#6089B7" stroke-linecap="round" stroke-linejoin="round"/>
<path d="M17 19.25L14 13.75H10" stroke="#6089B7" stroke-linecap="round" stroke-linejoin="round"/>
<path d="M17 2.75L14 8.25L15.5 11" stroke="#6089B7" stroke-linecap="round" stroke-linejoin="round"/>
<path d="M2 11H8.5L10 8.25" stroke="#6089B7" stroke-linecap="round" stroke-linejoin="round"/>
<path d="M20 9.16663L18.5 11L20 12.8333" stroke="#6089B7" stroke-linecap="round" stroke-linejoin="round"/>
<path d="M22 11H15.5L14 13.75" stroke="#6089B7" stroke-linecap="round" stroke-linejoin="round"/>
<path d="M4 9.16663L5.5 11L4 12.8333" stroke="#6089B7" stroke-linecap="round" stroke-linejoin="round"/>
<path d="M7 19.25L10 13.75L8.5 11" stroke="#6089B7" stroke-linecap="round" stroke-linejoin="round"/>
<path d="M7 2.75L10 8.25H14" stroke="#6089B7" stroke-linecap="round" stroke-linejoin="round"/>
</svg>
