<svg width="24" height="24" viewBox="0 0 24 24" fill="none" xmlns="http://www.w3.org/2000/svg">
<g clip-path="url(#clip0_5460_11271)">
<path d="M15.6897 10.7607L16.0071 10.793C16.7471 10.8948 17.4497 11.1744 18.0559 11.6055L18.3098 11.7988C18.9695 12.3402 19.4662 13.0539 19.7454 13.8604C20.0245 14.6669 20.0748 15.5357 19.8909 16.3691L19.8616 16.5029L23.054 19.6953C23.3445 19.9859 23.555 20.3462 23.6643 20.7402L23.7043 20.9121C23.7844 21.3151 23.7583 21.7308 23.6301 22.1191L23.5696 22.2842C23.4123 22.6638 23.1595 22.9953 22.8372 23.2471L22.6946 23.3496C22.3527 23.578 21.9581 23.713 21.55 23.7432L21.3752 23.75H21.3743C21.1403 23.7506 20.9079 23.7169 20.6848 23.6494L20.4651 23.5703C20.2492 23.4808 20.0482 23.3599 19.8684 23.2119L19.6956 23.0547L16.5999 19.958L16.5022 19.8613L16.3684 19.8916C15.6391 20.0525 14.8832 20.034 14.1653 19.8398L13.8606 19.7461C13.1547 19.5018 12.5203 19.09 12.01 18.5488L11.7991 18.3096C11.3255 17.7323 10.9998 17.0501 10.8479 16.3223L10.7932 16.0068C10.6916 15.267 10.7713 14.5153 11.0227 13.8154L11.1409 13.5186L11.4338 12.8477L14.2971 15.7109C14.4864 15.8919 14.7384 15.9932 15.0002 15.9932C15.2292 15.9931 15.4507 15.9158 15.6292 15.7754L15.7034 15.7109L15.7073 15.707C15.8947 15.5195 16.0002 15.2651 16.0002 15C16.0002 14.768 15.9194 14.5441 15.7737 14.3662L15.7073 14.293L12.8489 11.4336L13.5188 11.1396C14.2027 10.8395 14.9477 10.7104 15.6897 10.7607ZM15.3752 11.75C15.3076 11.75 15.2399 11.7521 15.1731 11.7559L14.6155 11.7871L15.011 12.1816L16.4143 13.5859C16.7892 13.961 17.0002 14.4697 17.0002 15C17.0002 15.5286 16.7908 16.0355 16.4182 16.4102C16.0363 16.7751 15.5285 16.9785 15.0002 16.9785C14.5378 16.9785 14.0911 16.8228 13.7307 16.5391L13.5823 16.4102L12.1819 15.0098L11.7864 14.6152L11.7551 15.1729C11.7514 15.24 11.7502 15.3074 11.7502 15.375L11.7561 15.5889C11.781 16.0159 11.8818 16.4351 12.053 16.8271L12.1438 17.0205C12.4032 17.5302 12.7799 17.9713 13.2424 18.3076C13.6474 18.602 14.1085 18.809 14.5959 18.916L14.8059 18.9561C15.3002 19.0343 15.8046 19.0088 16.2874 18.8828L16.4934 18.8232L16.7834 18.7275L20.4075 22.3516C20.6681 22.6004 21.0149 22.7393 21.3752 22.7393C21.6904 22.7392 21.9947 22.6326 22.2405 22.4395L22.343 22.3516L22.3469 22.3477C22.6047 22.0898 22.7493 21.7396 22.7493 21.375C22.7492 21.056 22.6382 20.7485 22.4377 20.5039L22.3469 20.4033L18.7278 16.7832L18.8225 16.4922L18.8215 16.4912C18.976 16.0158 19.0313 15.5145 18.9827 15.0186L18.9553 14.8057C18.8771 14.3112 18.6971 13.8392 18.428 13.4189L18.3079 13.2422C18.0137 12.8374 17.6387 12.4992 17.2083 12.2471L17.0208 12.1436C16.5748 11.9166 16.0871 11.785 15.5891 11.7559L15.3752 11.75Z" fill="currentColor" stroke="currentColor" stroke-width="0.5"/>
<path d="M14.999 1.75L15.123 1.75684C15.3681 1.78187 15.6006 1.87803 15.791 2.03418L15.8828 2.11719C16.0878 2.32216 16.2139 2.59107 16.2432 2.87695L16.25 3.00098V4H18.749L18.873 4.00684C19.1181 4.03187 19.3506 4.12803 19.541 4.28418L19.6328 4.36719C19.8378 4.57216 19.9639 4.84107 19.9932 5.12695L20 5.25098V8.75H19V5H16.25V7.25H7.75V5H5V21.25H10.25V22.25H5.25098C4.91956 22.249 4.60153 22.1172 4.36719 21.8828C4.16221 21.6778 4.03605 21.4089 4.00684 21.123L4 20.999V5.25098C4.00099 4.91956 4.13284 4.60153 4.36719 4.36719C4.57216 4.16221 4.84107 4.03605 5.12695 4.00684L5.25098 4H7.75V3.00098C7.75087 2.71101 7.85192 2.43128 8.03418 2.20898L8.11719 2.11719C8.32216 1.91221 8.59107 1.78605 8.87695 1.75684L9.00098 1.75H14.999ZM8.75 6.25H15.25V2.75H8.75V6.25Z" fill="currentColor" stroke="currentColor" stroke-width="0.5"/>
</g>
<defs>
<clipPath id="clip0_5460_11271">
<rect width="24" height="24" fill="white"/>
</clipPath>
</defs>
</svg>
