<svg width="392" height="237" viewBox="0 0 392 237" fill="none" xmlns="http://www.w3.org/2000/svg">
<rect x="1.08298" y="93.4811" width="95.7334" height="112.733" rx="8.4997" transform="rotate(-20.2879 1.08298 93.4811)" fill="#237648" stroke="#0C2718" stroke-width="0.894705"/>
<rect x="4.4401" y="92.2401" width="95.7334" height="112.733" rx="8.4997" transform="rotate(-20.2879 4.4401 92.2401)" fill="#57CD8C" stroke="#0C2718" stroke-width="0.894705"/>
<path d="M94.0059 178.809L51.9233 194.45C47.2597 196.184 42.0777 193.779 40.3898 189.099L23.7714 143.021C43.3058 139.249 35.6692 174.231 50.6293 177.744C70.0253 186.15 89.7577 161.227 94.0059 178.809Z" fill="#64A681"/>
<rect x="20.9792" y="104.727" width="29.5253" height="30.42" rx="2.68411" transform="rotate(-20.2879 20.9792 104.727)" fill="#237648"/>
<g filter="url(#filter0_i_4952_40588)">
<rect x="22.9679" y="104.945" width="29.5253" height="29.5253" rx="2.68411" transform="rotate(-20.2879 22.9679 104.945)" fill="#57CD8C"/>
</g>
<rect x="22.3932" y="104.681" width="30.42" height="30.42" rx="3.13147" transform="rotate(-20.2879 22.3932 104.681)" stroke="#0C2718" stroke-width="0.894705"/>
<ellipse cx="80.3815" cy="98.9835" rx="14.7626" ry="15.21" transform="rotate(-20.2879 80.3815 98.9835)" fill="#237648"/>
<g filter="url(#filter1_i_4952_40588)">
<ellipse cx="82.2149" cy="98.7826" rx="14.7626" ry="14.7626" transform="rotate(-20.2879 82.2149 98.7826)" fill="#57CD8C"/>
</g>
<path d="M76.9411 84.5163C84.8202 81.6036 93.5687 85.6297 96.4813 93.5088C99.3939 101.388 95.3679 110.136 87.4888 113.049C79.6097 115.962 70.8613 111.936 67.9486 104.057C65.0359 96.1774 69.062 87.4289 76.9411 84.5163Z" stroke="#0C2718" stroke-width="0.894705"/>
<path d="M49.8545 145.479C50.2773 143.574 52.5268 142.742 54.0869 143.914L74.2678 159.072C75.9669 160.349 75.5796 162.999 73.5865 163.736L47.937 173.218C45.9439 173.955 43.9256 172.193 44.386 170.119L49.8545 145.479Z" fill="#237648"/>
<g filter="url(#filter2_i_4952_40588)">
<path d="M51.8214 145.593C52.259 143.717 54.4716 142.899 56.0241 144.04L75.9407 158.667C77.664 159.932 77.288 162.606 75.2826 163.348L49.7526 172.785C47.7473 173.527 45.7223 171.74 46.208 169.658L51.8214 145.593Z" fill="#57CD8C"/>
</g>
<path d="M51.4395 145.29C52.0568 143.246 54.5346 142.391 56.2893 143.679L76.2058 158.306L76.3869 158.449C78.1866 159.975 77.7041 162.93 75.4377 163.768L49.9075 173.205C47.568 174.07 45.2058 171.985 45.7724 169.556L51.3861 145.492L51.4395 145.29Z" stroke="#0C2718" stroke-width="0.894705"/>
<path d="M91.5681 129.118C91.5335 128.252 92.6273 127.848 93.1644 128.528L98.9095 135.806C99.1497 136.11 99.5584 136.225 99.922 136.091L108.619 132.876C109.432 132.575 110.154 133.491 109.673 134.212L104.527 141.924C104.312 142.247 104.329 142.671 104.569 142.975L110.314 150.253C110.851 150.933 110.204 151.904 109.37 151.669L100.444 149.158C100.071 149.053 99.6727 149.2 99.4575 149.523L94.3113 157.235C93.8302 157.956 92.7077 157.641 92.6731 156.775L92.3029 147.51C92.2874 147.123 92.0243 146.789 91.6512 146.684L82.7255 144.173C81.8912 143.939 81.8446 142.773 82.6576 142.473L91.3545 139.258C91.7181 139.124 91.9537 138.77 91.9383 138.383L91.5681 129.118Z" fill="#237648"/>
<g filter="url(#filter3_i_4952_40588)">
<path d="M92.4075 128.808C92.3729 127.942 93.4667 127.538 94.0037 128.218L99.7488 135.496C99.989 135.8 100.398 135.915 100.761 135.781L109.458 132.566C110.271 132.265 110.994 133.18 110.513 133.901L105.366 141.614C105.151 141.937 105.168 142.361 105.408 142.665L111.154 149.943C111.691 150.623 111.043 151.593 110.209 151.359L101.283 148.848C100.91 148.743 100.512 148.89 100.297 149.212L95.1506 156.925C94.6696 157.646 93.547 157.33 93.5124 156.464L93.1422 147.2C93.1268 146.812 92.8637 146.479 92.4905 146.374L83.5648 143.863C82.7305 143.628 82.684 142.463 83.4969 142.163L92.1938 138.948C92.5574 138.813 92.7931 138.46 92.7776 138.073L92.4075 128.808Z" fill="#57CD8C"/>
</g>
<path d="M91.9604 128.706C92.0104 127.491 93.574 126.953 94.3544 127.941L100.099 135.219L100.149 135.271C100.271 135.383 100.447 135.42 100.606 135.361L109.303 132.146C110.485 131.71 111.539 132.984 110.948 134.048L110.885 134.15L105.739 141.863C105.631 142.024 105.64 142.236 105.76 142.388L111.505 149.666L111.575 149.763C112.227 150.743 111.36 152.043 110.204 151.817L110.088 151.789L101.162 149.278C100.999 149.232 100.826 149.283 100.714 149.404L100.669 149.46L95.5228 157.173C94.8013 158.255 93.1176 157.781 93.0654 156.483L92.6953 147.218L92.6864 147.146C92.6581 147.007 92.5651 146.889 92.4361 146.829L92.3698 146.805L83.4435 144.294C82.1921 143.942 82.1225 142.194 83.3418 141.743L92.039 138.528C92.2207 138.461 92.3379 138.284 92.3302 138.091L91.96 128.826L91.9604 128.706Z" stroke="#0C2718" stroke-width="0.894705"/>
<path d="M222.018 40.5861L208.164 28.648L212.324 45.527L222.018 40.5861Z" fill="#57CD8C"/>
<path d="M212.26 46.778C211.72 46.7508 211.238 46.3747 211.103 45.8254L206.942 28.9464C206.811 28.4173 207.039 27.8645 207.507 27.58C207.975 27.2955 208.573 27.3441 208.987 27.7016L222.842 39.6398C223.367 40.0917 223.425 40.8833 222.971 41.4063C222.518 41.9293 221.724 41.988 221.199 41.5344L210.327 32.1668L213.546 45.2287C213.713 45.9003 213.3 46.5794 212.626 46.7446C212.504 46.7736 212.382 46.7859 212.261 46.7798L212.26 46.778Z" fill="#0C2718"/>
<path d="M250.291 34.484L240.36 19.1505L239.594 36.5123L250.291 34.484Z" fill="#57CD8C"/>
<path d="M239.53 37.7629C238.839 37.728 238.306 37.1451 238.337 36.4567L239.103 19.0949C239.127 18.5502 239.502 18.0835 240.03 17.9411C240.557 17.8002 241.119 18.0128 241.415 18.4715L251.346 33.8067C251.722 34.3884 251.555 35.1636 250.971 35.5394C250.388 35.9151 249.611 35.747 249.232 35.1652L241.439 23.1331L240.846 36.5684C240.814 37.2601 240.227 37.7948 239.535 37.7648L239.526 37.7644L239.53 37.7629Z" fill="#0C2718"/>
<path d="M342.387 108.847L358.257 99.747L340.893 98.0977L342.387 108.847Z" fill="#57CD8C"/>
<path d="M342.325 110.099C341.913 110.078 341.519 109.855 341.298 109.472C340.952 108.872 341.159 108.107 341.761 107.761L354.213 100.62L340.776 99.3433C340.084 99.2781 339.579 98.6665 339.644 97.9782C339.709 97.2882 340.323 96.7767 341.013 96.8501L358.377 98.4993C358.922 98.5503 359.371 98.9481 359.487 99.4815C359.603 100.015 359.36 100.56 358.886 100.833L343.014 109.934C342.798 110.059 342.558 110.11 342.325 110.099Z" fill="#0C2718"/>
<path d="M325.051 87.8836C329.279 83.9627 336.617 79.231 341.868 84.0896L340.024 85.7916C336.136 81.2681 329.037 85.2415 325.051 87.8836Z" fill="#0C2718"/>
<path d="M324.032 104.521C324.032 104.521 337.524 106.325 340.544 92.796C343.783 78.2853 315.585 24.5485 292.829 18.3716C276.284 13.8818 256.583 38.4288 256.583 38.4288" fill="#57CD8C"/>
<g opacity="0.6">
<path d="M335.528 93.3549C337.076 92.1437 328.518 47.71 291.487 24.5066C284.43 20.0842 282.493 26.8956 284.245 28.0291C331.89 58.8087 333.979 94.5677 335.528 93.3565L335.528 93.3549Z" fill="white"/>
</g>
<path d="M324.969 106.698C324.538 106.677 324.133 106.639 323.754 106.589C322.607 106.435 321.802 105.385 321.955 104.242C322.109 103.101 323.171 102.301 324.303 102.45C324.774 102.509 335.943 103.788 338.498 92.3409C339.945 85.8564 334.112 69.5293 324.629 53.5184C313.866 35.348 301.773 22.963 292.278 20.3851C277.252 16.3069 258.408 39.4989 258.22 39.7322C257.497 40.6317 256.176 40.7776 255.276 40.0573C254.373 39.3368 254.226 38.0232 254.949 37.1236C255.788 36.0776 275.714 11.5604 293.381 16.3565C308.551 20.4738 322.813 42.2321 328.242 51.3968C336.807 65.8575 344.566 84.4069 342.593 93.2495C340.067 104.563 330.578 106.982 324.972 106.699L324.969 106.698Z" fill="#0C2718"/>
<path d="M316.434 74.8413C321.275 69.6468 329.802 64.6017 336.442 69.7165L334.823 71.6325C329.362 66.5187 321.291 70.8533 316.434 74.8413Z" fill="#0C2718"/>
<path d="M303.212 60.0488C309.819 55.2417 321.835 47.8493 329.21 54.8181L327.35 56.5042C321.65 50.0772 309.196 56.4443 303.212 60.0488Z" fill="#0C2718"/>
<path d="M294.854 47.6826C300.657 42.9638 310.322 35.7507 318.234 38.2604L317.268 40.5728C310.56 37.8275 300.455 43.97 294.856 47.6827L294.854 47.6826Z" fill="#0C2718"/>
<path d="M282.766 36.154C288.665 30.4252 297.811 22.9465 306.648 25.3455L305.799 27.704C298.11 24.9141 288.592 31.4765 282.766 36.154Z" fill="#0C2718"/>
<path d="M374.515 161.508C371.275 165.581 365.052 165.689 361.555 161.81C354.928 154.463 349.604 145.076 342.59 145.725L344.854 118.269L345.103 115.242C346.046 118.031 347.174 120.426 348.615 122.138C348.926 122.506 349.249 122.838 349.59 123.14L349.607 123.156C352.803 125.979 357.401 125.772 364.489 120.206L371.081 114.616C372.475 113.435 374.561 113.469 375.871 114.739C378.31 117.099 380.067 120.048 381.226 123.341C385.532 135.553 381.687 152.48 374.511 161.508L374.515 161.508Z" fill="#57CD8C"/>
<path d="M367.397 166.716C364.564 166.573 361.905 165.322 359.995 163.204C358.423 161.462 356.932 159.62 355.491 157.839C351.152 152.476 347.057 147.411 342.781 147.806C341.628 147.913 340.609 147.07 340.5 145.921C340.392 144.773 341.24 143.756 342.392 143.648C348.908 143.045 353.69 148.958 358.753 155.219C360.159 156.958 361.613 158.755 363.111 160.414C364.389 161.832 366.218 162.611 368.147 162.551C370.011 162.495 371.733 161.641 372.869 160.211C381.096 149.859 385.37 126.835 374.413 116.239C373.888 115.73 373.021 115.717 372.442 116.207L365.85 121.796C360.19 126.246 355.573 127.821 351.668 126.666C346.772 125.215 344.442 119.831 343.116 115.909C342.746 114.815 343.335 113.632 344.433 113.264C345.529 112.896 346.717 113.483 347.087 114.577C348.698 119.346 350.588 121.99 352.862 122.664C355.336 123.392 358.804 122.016 363.193 118.568L369.725 113.027C371.969 111.125 375.238 111.219 377.333 113.243C390.323 125.806 385.227 151.392 376.156 162.805C374.252 165.202 371.38 166.631 368.281 166.728C367.985 166.736 367.691 166.733 367.399 166.718L367.397 166.716Z" fill="#0C2718"/>
<path d="M347.739 128.885C353.037 131.883 359.629 132.559 365.565 131.33C367.641 130.958 369.629 130.226 371.603 129.483C372.24 129.256 372.625 130.215 371.993 130.481C368.071 132.326 363.767 133.562 359.412 133.698C354.915 133.83 350.544 133.093 346.431 131.025C345.816 130.704 345.575 129.947 345.897 129.333C346.243 128.661 347.121 128.456 347.739 128.885Z" fill="#0C2718"/>
<path d="M345.426 133.211C353.365 137.37 362.601 139.367 371.578 138.89C372.268 138.832 372.377 139.891 371.673 139.96C364.698 140.709 357.588 139.958 350.872 137.932C348.612 137.249 346.439 136.472 344.224 135.411C343.597 135.111 343.334 134.361 343.635 133.739C343.952 133.071 344.793 132.827 345.424 133.211L345.426 133.211Z" fill="#0C2718"/>
<path d="M344.942 137.898C351.522 142.025 359.03 144.819 366.622 146.504C367.292 146.638 367.116 147.671 366.427 147.561C358.462 146.279 350.701 143.903 343.593 140.012C342.112 139.125 343.495 136.936 344.942 137.898Z" fill="#0C2718"/>
<g opacity="0.3">
<path d="M374.514 161.507C371.274 165.58 365.05 165.687 361.554 161.808C354.927 154.462 349.603 145.075 342.589 145.723L344.853 118.268L348.616 122.137L349.59 123.139L349.608 123.155C349.433 155.716 381.049 155.896 381.224 123.337L381.227 123.337C385.533 135.55 381.688 152.476 374.512 161.505L374.514 161.507Z" fill="#0C2718"/>
</g>
<path d="M169.63 135.131C162.696 139.002 155.441 141.522 147.917 142.946C144.868 143.523 142.103 141.091 142.195 138.005C142.362 132.356 143.275 127.022 145.25 122.15C146.228 119.726 148.753 118.296 151.353 118.627L165.088 120.367C167.889 123.88 169.496 128.7 169.631 135.129L169.63 135.131Z" fill="#57CD8C"/>
<g opacity="0.6">
<path d="M166.973 123.28L154.062 121.646C151.464 121.316 148.94 122.745 147.96 125.169C145.984 130.041 145.073 135.376 144.905 141.024C144.89 141.592 144.968 142.136 145.129 142.639C143.373 141.881 142.132 140.092 142.194 138.007C142.36 132.358 143.273 127.024 145.249 122.152C146.226 119.728 148.751 118.298 151.351 118.629L165.086 120.369C165.791 121.257 166.425 122.224 166.973 123.28Z" fill="white"/>
</g>
<path d="M184.924 176.455L173.561 195.356L193.089 185.593L184.924 176.455Z" fill="#57CD8C"/>
<path d="M171.26 146.904L156.908 158.234L174.325 157.317L171.26 146.904Z" fill="#57CD8C"/>
<path d="M339.22 150.134C335.188 161.288 328.826 171.678 320.337 180.518C273.252 229.573 195.031 211.146 173.482 158.403C167.987 144.953 166.176 129.273 169.507 111.915C166.574 97.545 171.045 81.0385 184.993 71.9486C187.882 66.8063 191.195 62.176 194.855 58.0522L194.855 58.0489C235.25 12.51 317.875 28.3381 339.979 94.1338C342.135 100.556 343.48 107.128 344.047 113.716C345.11 126.096 343.427 138.529 339.222 150.134L339.22 150.134Z" fill="#57CD8C"/>
<g opacity="0.6">
<path d="M170.466 118.486C170.206 119.841 169.989 121.183 169.792 122.518C169.926 120.959 170.115 119.379 170.335 117.79C170.379 118.021 170.419 118.256 170.468 118.486L170.466 118.486Z" fill="white"/>
</g>
<g opacity="0.6">
<path d="M186.624 72.8713C189.512 67.7289 192.825 63.0986 196.486 58.9749L196.486 58.9715C236.881 13.4327 319.507 29.2608 341.61 95.0564C343.766 101.479 345.111 108.051 345.678 114.639C345.759 115.584 345.819 116.528 345.867 117.473C345.172 111.904 343.919 106.359 342.075 100.923C327.426 57.7469 286.601 36.0297 248.778 39.0252C249.123 39.406 249.369 39.827 249.476 40.2946C250.246 43.6291 244.284 47.8358 236.163 49.6912C228.042 51.5466 220.836 50.3486 220.066 47.0141C220.036 46.8803 220.033 46.7429 220.023 46.6067C211.083 50.8539 202.872 56.8443 195.914 64.6412L195.914 64.6446C192.233 68.7639 188.904 73.3917 186.002 78.5318C177.178 84.2366 172.134 92.8805 170.343 102.087C170.947 90.8613 176.072 79.7465 186.621 72.8728L186.624 72.8713Z" fill="white"/>
</g>
<path d="M305.989 195.233C305.989 195.233 305.83 195.689 305.526 196.516C254.18 227.686 187.867 202.127 171.865 149.712C175.045 137.157 187.618 128.385 204.646 129.52C217.046 130.863 224.984 132.404 236.691 138.735C254.854 148.554 269.673 169.503 291.952 187.231C291.952 187.231 296.32 193.244 301.093 191.111L305.989 195.231L305.989 195.233Z" fill="#89DCAE"/>
<g opacity="0.3">
<path d="M170.813 134.416C191.991 186.779 268.94 205.039 315.288 156.308C323.644 147.525 329.907 137.206 333.88 126.129C337.961 114.774 339.629 102.623 338.683 90.5103C338.9 91.1225 339.122 91.7299 339.328 92.3498C341.446 98.7248 342.766 105.25 343.322 111.793C344.363 124.086 342.7 136.431 338.558 147.956C334.585 159.033 328.321 169.352 319.966 178.135C273.619 226.866 196.67 208.605 175.492 156.243C172.567 149.01 170.716 141.121 170.147 132.676C170.366 133.258 170.582 133.844 170.813 134.416Z" fill="#0C2718"/>
</g>
<path d="M250.953 211.989C236.905 211.279 223.543 207.535 212.222 201.716C178.501 184.387 161.965 150.36 169 112.841C165.784 96.303 172.049 80.1367 185.045 71.4056C193.165 57.1582 205.064 45.9788 219.486 39.053C233.118 32.5075 248.673 29.8354 264.494 31.3197C281.698 32.9358 298.053 39.2983 311.797 49.7187C326.537 60.8943 337.533 76.3419 343.597 94.3922C353.962 125.249 346.256 159.155 323.484 182.882C302.034 205.231 275.452 213.227 250.955 211.989L250.953 211.989ZM260.178 35.1943C229.653 33.652 203.043 47.9213 188.452 73.8886C188.288 74.1818 188.054 74.4312 187.772 74.6162C175.819 82.4053 170.096 97.2426 173.19 112.418C173.244 112.684 173.245 112.959 173.194 113.226C164.99 156 188.968 185.067 214.144 198.005C243.819 213.255 288.2 213.6 320.455 179.995C342.148 157.392 349.494 125.099 339.623 95.7152C328.252 61.8669 299.314 38.786 264.102 35.478C262.789 35.3547 261.479 35.2601 260.178 35.1943Z" fill="#0C2718"/>
<path d="M173.118 112.155C173.612 114.979 175.849 117.804 178.031 119.802C178.33 120.058 178.363 120.512 178.098 120.805C177.882 121.044 177.538 121.1 177.263 120.964C173.931 119.218 170.976 117.066 169.154 113.507C167.699 110.505 172.431 108.892 173.118 112.154L173.118 112.155Z" fill="#0C2718"/>
<path d="M286.852 162.368C284.167 196.918 300.37 193.775 311.31 179.95C313.181 177.584 313.531 174.351 312.257 171.621C311.135 169.217 309.155 166.029 305.661 162.257L286.854 162.37L286.852 162.368Z" fill="#57CD8C"/>
<g opacity="0.3">
<path d="M312.957 174.238C313.154 176.254 312.607 178.308 311.31 179.946C300.84 193.177 285.554 196.619 286.611 166.611C292.311 187.813 304.599 185.037 312.957 174.238Z" fill="#0C2718"/>
</g>
<path d="M287.596 162.428C287.7 169.622 287.377 191.405 299.17 187.555C303.539 186.039 307.363 182.297 310.198 178.617C312.025 175.965 311.451 172.587 309.839 169.955C308.556 167.44 306.895 165.065 305.113 162.762C304.552 162.062 305.553 161.14 306.208 161.755C310.333 165.807 316.396 171.832 314.205 178.175C313.808 179.384 313.022 180.575 312.203 181.505C310.993 182.983 309.675 184.405 308.259 185.703C301.833 191.856 291.905 194.794 287.366 184.835C284.439 177.676 285.158 169.601 286.108 162.314C286.242 161.411 287.605 161.514 287.594 162.429L287.596 162.428Z" fill="#0C2718"/>
<path d="M293.318 165.338C294.439 167.931 294.88 170.713 295.198 173.496C295.291 174.423 295.358 175.356 295.34 176.304C295.332 176.728 294.981 177.065 294.554 177.055C294.237 177.049 293.968 176.851 293.856 176.574C293.166 174.823 292.723 173.014 292.359 171.18C291.999 169.34 291.736 167.498 291.833 165.608C291.86 165.18 292.229 164.857 292.658 164.884C292.955 164.902 293.201 165.085 293.318 165.338Z" fill="#0C2718"/>
<path d="M297.753 163.207C299.173 166.044 300.11 169.022 300.828 172.084C301.057 173.104 301.248 174.135 301.343 175.195C301.38 175.617 301.067 175.989 300.643 176.027C300.328 176.054 300.039 175.887 299.897 175.624C299.394 174.686 298.987 173.719 298.618 172.741C297.535 169.788 296.68 166.785 296.308 163.637C296.207 162.808 297.387 162.465 297.753 163.207Z" fill="#0C2718"/>
<path d="M302.274 163.09C304.111 165.679 305.485 168.557 306.05 171.679C306.109 172.105 305.812 172.5 305.382 172.559C305.103 172.599 304.834 172.483 304.668 172.28C303.661 171.034 302.957 169.633 302.324 168.185C301.718 166.742 301.175 165.273 300.89 163.691C300.814 163.27 301.095 162.869 301.517 162.794C301.814 162.742 302.102 162.865 302.272 163.088L302.274 163.09Z" fill="#0C2718"/>
<path d="M146.693 144.693C145.288 144.622 143.933 144.091 142.831 143.155C141.301 141.855 140.459 139.959 140.517 137.952C140.701 131.715 141.739 126.339 143.694 121.521C144.951 118.413 148.197 116.541 151.562 116.969L169.412 119.175C170.331 119.288 170.984 120.122 170.871 121.039C170.757 121.954 169.928 122.604 169.001 122.49L151.146 120.283C149.265 120.049 147.493 121.072 146.803 122.772C145.002 127.219 144.042 132.216 143.872 138.051C143.842 139.041 144.257 139.975 145.008 140.612C145.732 141.227 146.678 141.479 147.603 141.304C155.168 139.873 162.301 137.305 168.807 133.671C169.615 133.22 170.637 133.508 171.089 134.312C171.543 135.117 171.254 136.136 170.447 136.586C163.626 140.396 156.15 143.088 148.231 144.586C147.718 144.683 147.202 144.717 146.694 144.691L146.693 144.693Z" fill="#0C2718"/>
<path d="M167.245 124.009L154.611 126.105C154.106 126.192 153.924 125.439 154.42 125.292L166.671 121.569C168.376 121.112 168.984 123.656 167.247 124.007L167.245 124.009Z" fill="#0C2718"/>
<path d="M169.108 125.406L155.146 134.361C154.718 134.646 154.245 133.997 154.658 133.682L167.641 123.369C169.02 122.325 170.549 124.43 169.108 125.406Z" fill="#0C2718"/>
<path d="M311.453 210.872C311.069 210.853 310.696 210.702 310.4 210.431L298.822 199.753C298.143 199.126 298.1 198.069 298.729 197.392C299.359 196.716 300.418 196.675 301.097 197.301L309.34 204.903L307.88 192.549C307.772 191.633 308.429 190.804 309.348 190.696C310.275 190.591 311.1 191.245 311.209 192.16L313.201 209.01C313.284 209.704 312.922 210.377 312.296 210.694C312.029 210.829 311.738 210.888 311.452 210.874L311.453 210.872Z" fill="#0C2718"/>
<path d="M173.479 197.024C173.052 197.002 172.639 196.819 172.335 196.492C171.828 195.948 171.741 195.134 172.124 194.497L183.488 175.598C183.965 174.806 184.994 174.55 185.787 175.024C186.582 175.498 186.839 176.524 186.364 177.315L177.962 191.287L192.339 184.101C193.166 183.688 194.175 184.022 194.59 184.846C195.006 185.671 194.671 186.674 193.845 187.088L174.317 196.849C174.051 196.981 173.762 197.038 173.481 197.024L173.479 197.024Z" fill="#0C2718"/>
<path d="M156.822 159.902C156.161 159.868 155.577 159.45 155.338 158.824C155.08 158.144 155.294 157.376 155.866 156.925L170.219 145.594C170.945 145.022 171.999 145.144 172.573 145.866C173.146 146.588 173.026 147.64 172.3 148.213L162.07 156.29L174.235 155.651C175.162 155.6 175.949 156.31 175.997 157.23C176.046 158.152 175.336 158.938 174.412 158.987L156.995 159.904C156.936 159.907 156.879 159.906 156.822 159.903L156.822 159.902Z" fill="#0C2718"/>
<path d="M314.937 54.9461L314.941 54.9565L314.931 54.9498L314.937 54.9461Z" fill="white"/>
<path d="M267.3 53.6803L263.119 35.9128L256.54 52.0063L267.3 53.6803Z" fill="#57CD8C"/>
<path d="M267.238 54.9327C266.693 54.9052 266.208 54.5223 266.078 53.9665L262.796 40.0256L257.705 52.4784C257.442 53.1199 256.714 53.428 256.066 53.1659C255.423 52.904 255.115 52.1734 255.376 51.5335L261.955 35.44C262.161 34.9346 262.639 34.6121 263.218 34.6631C263.764 34.7058 264.22 35.0955 264.344 35.626L268.527 53.3919C268.686 54.0648 268.266 54.7402 267.591 54.8969C267.472 54.9244 267.355 54.9353 267.239 54.9294L267.238 54.9327Z" fill="#0C2718"/>
<path d="M300.002 71.3203L307.275 54.5769L292.361 63.5845L300.002 71.3203Z" fill="#57CD8C"/>
<path d="M299.939 72.5733C299.793 72.566 299.645 72.5334 299.503 72.471C298.865 72.1959 298.573 71.4577 298.849 70.8236L304.556 57.6852L293.016 64.6561C292.423 65.0147 291.648 64.8265 291.288 64.2339C290.928 63.643 291.118 62.8723 291.711 62.5137L306.625 53.5061C307.091 53.2232 307.69 53.2753 308.104 53.6328C308.516 53.9919 308.65 54.5747 308.431 55.0744L301.158 71.8178C300.943 72.311 300.45 72.5975 299.94 72.5717L299.939 72.5733Z" fill="#0C2718"/>
<path d="M322.599 96.5643L338.564 87.6316L321.218 85.799L322.599 96.5643Z" fill="#57CD8C"/>
<path d="M322.537 97.8158C322.12 97.7947 321.723 97.567 321.504 97.1775C321.165 96.5743 321.378 95.8097 321.985 95.472L334.511 88.4621L321.088 87.0454C320.398 86.972 319.896 86.3555 319.969 85.6676C320.041 84.9797 320.655 84.4665 321.352 84.5536L338.696 86.3844C339.241 86.4421 339.685 86.8429 339.795 87.3777C339.906 87.9125 339.657 88.4558 339.18 88.7231L323.214 97.6558C323 97.7756 322.765 97.8257 322.536 97.8141L322.537 97.8158Z" fill="#0C2718"/>
<g opacity="0.25">
<path d="M327.656 116.859C329.881 116.697 331.466 113.626 331.198 110.001C330.93 106.376 328.909 103.57 326.685 103.732C324.46 103.895 322.875 106.965 323.143 110.59C323.411 114.215 325.432 117.022 327.656 116.859Z" fill="#0C2718"/>
</g>
<g opacity="0.25">
<path d="M319.403 126.426C321.042 126.307 322.209 124.045 322.012 121.376C321.814 118.706 320.326 116.639 318.688 116.759C317.05 116.879 315.882 119.14 316.079 121.809C316.277 124.479 317.765 126.546 319.403 126.426Z" fill="#0C2718"/>
</g>
<g opacity="0.25">
<path d="M315.452 108.378C317.586 107.942 318.736 104.77 318.02 101.293C317.305 97.8152 314.994 95.3489 312.86 95.7841C310.726 96.2194 309.576 99.3913 310.292 102.869C311.008 106.347 313.318 108.813 315.452 108.378Z" fill="#0C2718"/>
</g>
<g opacity="0.6">
<path d="M272.805 104.451C272.513 111.252 269.839 115.558 264.057 116.62L264.073 116.579C261.6 122.245 260.257 128.934 259.953 136.572C254.081 116.774 265.086 94.1039 292.488 95.6124C284.324 97.0988 277.804 100.082 272.806 104.453L272.805 104.451Z" fill="white"/>
</g>
<path d="M171.639 89.8442C173.219 83.3446 177.274 77.0086 183.638 74.2221C193.082 69.8949 205.239 73.6724 210.819 82.344C216.636 91.3172 213.968 102.906 206.341 109.876C205.898 110.317 205.147 109.753 205.445 109.211C209.2 101.473 213.195 92.0577 208.002 84.1508C201.597 74.1566 185.498 72.4992 178.487 82.6696C176.78 85.0216 175.636 87.7939 174.885 90.6847C174.286 92.7963 171.132 91.9888 171.64 89.8426L171.639 89.8442Z" fill="#0C2718"/>
<path d="M305.705 134.94C303.203 141.319 297.185 145.758 290.677 147.443C290.376 147.539 290.057 147.374 289.961 147.074C289.864 146.773 290.036 146.462 290.327 146.359C293.174 145.222 295.867 143.61 298.017 141.433C300.056 139.362 301.737 136.804 302.483 134.01C303.068 131.747 306.423 132.704 305.705 134.94Z" fill="#0C2718"/>
<g opacity="0.3">
<path d="M194.622 74.2201C204.491 79.1262 208.646 105.5 187.375 116.164C187.375 116.164 207.473 116.285 210.482 101.659C213.492 87.0329 209.629 76.7651 194.622 74.2201Z" fill="#0C2718"/>
</g>
<g opacity="0.3">
<path d="M213.454 83.2028C213.454 83.2028 223.491 88.4524 220.235 100.638L212.265 102.312C212.265 102.312 214.072 86.1696 210.224 83.7899" fill="#0C2718"/>
</g>
<g opacity="0.3">
<path d="M285.939 94.5891C303.395 96.8961 300.298 148.441 264.089 139.873C265.403 141.542 270.776 147.965 279.733 149.095C289.435 150.318 299.41 144.832 304.723 135.209C306.191 132.497 308.718 126.959 308.873 119.53C308.942 116.28 308.539 113.366 307.948 110.873C306.489 104.74 302.14 99.6544 296.265 97.3146C293.596 96.2503 290.204 95.2651 285.94 94.5908L285.939 94.5891Z" fill="#0C2718"/>
</g>
<path d="M225.301 67.1948C227.964 75.2717 224.724 83.5985 218.065 85.7933C213.111 86.5411 205.924 81.468 201.188 75.1429C198.526 67.066 201.766 58.7391 208.424 56.5444C215.083 54.3496 222.639 59.118 225.301 67.1948Z" fill="#0C2718"/>
<path d="M221.728 67.9659C223.664 73.8406 221.308 79.8971 216.464 81.4934C212.861 82.0373 207.634 78.3474 204.189 73.7469C202.253 67.8722 204.609 61.8158 209.452 60.2194C214.296 58.623 219.791 62.0913 221.728 67.9659Z" fill="white"/>
<path d="M218.354 78.1164C218.94 79.8951 218.08 81.7772 216.432 82.3203C215.214 82.5271 213.496 81.4545 212.388 80.083C211.801 78.3043 212.662 76.4222 214.309 75.8791C215.957 75.336 217.768 76.3377 218.354 78.1164Z" fill="#0C2718"/>
<path d="M268.682 77.2391C259.034 82.9968 254.7 93.5085 259.002 100.718C263.697 106.935 271.029 102.046 280.329 97.7373C289.879 97.2289 298.167 91.1631 293.941 79.8668C289.638 72.6578 278.33 71.4813 268.682 77.2391Z" fill="#0C2718"/>
<path d="M270.866 79.4786C263.644 83.7885 260.4 91.6569 263.62 97.0532C266.083 100.314 269.515 99.4933 273.743 97.6001C277.642 95.8546 282.015 95.2036 285.802 93.2283C289.715 91.188 291.939 87.2342 289.773 81.4455C286.553 76.0492 278.088 75.1686 270.866 79.4786Z" fill="white"/>
<path d="M262.824 90.3397C260.498 91.7281 259.453 94.2629 260.49 96.0013C262.746 98.9897 269.753 95.4963 269.141 91.802C269.098 91.5402 269.024 91.2639 268.915 90.9733C267.878 89.235 265.151 88.9513 262.824 90.3397Z" fill="#0C2718"/>
<path d="M258.63 123.207C258.115 123.181 257.633 122.921 257.332 122.484C248.744 110.013 226.939 102.081 211.583 105.843C210.684 106.064 209.776 105.516 209.554 104.62C209.332 103.725 209.882 102.82 210.781 102.599C226.416 98.7671 247.426 105.758 257.896 117.77C261.072 107.173 269.533 98.8138 280.243 95.9957C290.451 93.308 300.545 96.4689 307.24 104.447C307.834 105.155 307.739 106.208 307.028 106.799C306.318 107.389 305.262 107.296 304.668 106.587C298.742 99.526 290.153 96.8447 281.1 99.2241C270.497 102.014 262.356 110.888 260.361 121.836C260.24 122.502 259.728 123.028 259.064 123.171C258.919 123.202 258.772 123.213 258.628 123.206L258.63 123.207Z" fill="#0C2718"/>
<path d="M149.745 144.82L139.028 147.863L147.181 134.024L157.552 131.016L149.745 144.82Z" fill="#772B00"/>
<path d="M139.028 147.863L138.642 147.636L138.075 148.599L139.15 148.294L139.028 147.863ZM149.745 144.82L149.867 145.25L150.044 145.2L150.134 145.04L149.745 144.82ZM157.552 131.016L157.942 131.236L157.428 130.586L157.552 131.016ZM147.181 134.024L147.056 133.595L146.885 133.644L146.795 133.797L147.181 134.024ZM139.15 148.294L149.867 145.25L149.623 144.389L138.906 147.433L139.15 148.294ZM150.134 145.04L157.942 131.236L157.163 130.796L149.356 144.599L150.134 145.04ZM157.428 130.586L147.056 133.595L147.305 134.454L157.677 131.446L157.428 130.586ZM146.795 133.797L138.642 147.636L139.413 148.091L147.566 134.251L146.795 133.797Z" fill="#10161A"/>
<path d="M122.169 117.641L116.599 130.426L123.908 144.723L139.022 147.859L147.154 133.978L137.279 117.837L122.169 117.641Z" fill="#E65907" stroke="#10161A" stroke-width="0.894705"/>
<path d="M132.759 114.252L122.123 117.638L137.294 117.839L148.067 114.662L132.759 114.252Z" fill="#E65907" stroke="#10161A" stroke-width="0.894705"/>
<path d="M157.476 131L147.979 114.685L137.312 117.854L147.138 133.991L157.476 131Z" fill="#A44610" stroke="#10161A" stroke-width="0.894705"/>
<defs>
<filter id="filter0_i_4952_40588" x="22.8364" y="94.5765" width="38.1941" height="41.7729" filterUnits="userSpaceOnUse" color-interpolation-filters="sRGB">
<feFlood flood-opacity="0" result="BackgroundImageFix"/>
<feBlend mode="normal" in="SourceGraphic" in2="BackgroundImageFix" result="shape"/>
<feColorMatrix in="SourceAlpha" type="matrix" values="0 0 0 0 0 0 0 0 0 0 0 0 0 0 0 0 0 0 127 0" result="hardAlpha"/>
<feOffset dy="3.57882"/>
<feGaussianBlur stdDeviation="1.78941"/>
<feComposite in2="hardAlpha" operator="arithmetic" k2="-1" k3="1"/>
<feColorMatrix type="matrix" values="0 0 0 0 0 0 0 0 0 0 0 0 0 0 0 0 0 0 0.25 0"/>
<feBlend mode="normal" in2="shape" result="effect1_innerShadow_4952_40588"/>
</filter>
<filter id="filter1_i_4952_40588" x="66.5533" y="83.121" width="31.3232" height="34.902" filterUnits="userSpaceOnUse" color-interpolation-filters="sRGB">
<feFlood flood-opacity="0" result="BackgroundImageFix"/>
<feBlend mode="normal" in="SourceGraphic" in2="BackgroundImageFix" result="shape"/>
<feColorMatrix in="SourceAlpha" type="matrix" values="0 0 0 0 0 0 0 0 0 0 0 0 0 0 0 0 0 0 127 0" result="hardAlpha"/>
<feOffset dy="3.57882"/>
<feGaussianBlur stdDeviation="1.78941"/>
<feComposite in2="hardAlpha" operator="arithmetic" k2="-1" k3="1"/>
<feColorMatrix type="matrix" values="0 0 0 0 0 0 0 0 0 0 0 0 0 0 0 0 0 0 0.25 0"/>
<feBlend mode="normal" in2="shape" result="effect1_innerShadow_4952_40588"/>
</filter>
<filter id="filter2_i_4952_40588" x="45.2394" y="142.621" width="32.6921" height="34.8097" filterUnits="userSpaceOnUse" color-interpolation-filters="sRGB">
<feFlood flood-opacity="0" result="BackgroundImageFix"/>
<feBlend mode="normal" in="SourceGraphic" in2="BackgroundImageFix" result="shape"/>
<feColorMatrix in="SourceAlpha" type="matrix" values="0 0 0 0 0 0 0 0 0 0 0 0 0 0 0 0 0 0 127 0" result="hardAlpha"/>
<feOffset dy="3.57882"/>
<feGaussianBlur stdDeviation="1.78941"/>
<feComposite in2="hardAlpha" operator="arithmetic" k2="-1" k3="1"/>
<feColorMatrix type="matrix" values="0 0 0 0 0 0 0 0 0 0 0 0 0 0 0 0 0 0 0.25 0"/>
<feBlend mode="normal" in2="shape" result="effect1_innerShadow_4952_40588"/>
</filter>
<filter id="filter3_i_4952_40588" x="82.0177" y="126.979" width="30.2309" height="34.8209" filterUnits="userSpaceOnUse" color-interpolation-filters="sRGB">
<feFlood flood-opacity="0" result="BackgroundImageFix"/>
<feBlend mode="normal" in="SourceGraphic" in2="BackgroundImageFix" result="shape"/>
<feColorMatrix in="SourceAlpha" type="matrix" values="0 0 0 0 0 0 0 0 0 0 0 0 0 0 0 0 0 0 127 0" result="hardAlpha"/>
<feOffset dy="3.57882"/>
<feGaussianBlur stdDeviation="1.78941"/>
<feComposite in2="hardAlpha" operator="arithmetic" k2="-1" k3="1"/>
<feColorMatrix type="matrix" values="0 0 0 0 0 0 0 0 0 0 0 0 0 0 0 0 0 0 0.25 0"/>
<feBlend mode="normal" in2="shape" result="effect1_innerShadow_4952_40588"/>
</filter>
</defs>
</svg>
