<svg width="358" height="307" viewBox="0 0 358 307" fill="none" xmlns="http://www.w3.org/2000/svg">
<path d="M291.772 183.166C331.614 210.861 339.282 189.061 330.322 166.059C328.788 162.125 325.13 159.415 320.93 159.022C317.23 158.676 311.977 158.812 304.948 160.363L291.775 183.166L291.772 183.166Z" fill="#57CD8C"/>
<path d="M125.231 40.4946L110.26 19.7539L110.415 44.0868L125.231 40.4946Z" fill="#57CD8C"/>
<path d="M110.415 45.8396C109.447 45.8396 108.66 45.0621 108.655 44.0973L108.5 19.7645C108.495 19.0011 108.987 18.322 109.715 18.0855C110.441 17.8513 111.243 18.1089 111.689 18.7294L126.66 39.4724C127.227 40.2592 127.048 41.3552 126.258 41.9219C125.469 42.4886 124.371 42.3083 123.8 41.5214L112.051 25.2464L112.171 44.0763C112.176 45.0457 111.393 45.8349 110.423 45.8419H110.411L110.415 45.8396Z" fill="#0C2718"/>
<path d="M295.651 126.446L317.2 112.599L292.803 111.52L295.651 126.446Z" fill="#57CD8C"/>
<path d="M295.654 128.2C295.075 128.2 294.509 127.917 294.173 127.397C293.646 126.582 293.882 125.498 294.699 124.971L311.607 114.106L292.728 113.27C291.755 113.227 291.005 112.408 291.047 111.441C291.089 110.471 291.912 109.713 292.883 109.766L317.28 110.846C318.047 110.879 318.702 111.403 318.902 112.141C319.102 112.879 318.801 113.658 318.157 114.073L296.605 127.922C296.312 128.111 295.98 128.2 295.654 128.2Z" fill="#0C2718"/>
<path d="M269.928 98.3557C275.564 92.574 285.491 85.4388 293.176 91.8621L290.718 94.3724C284.962 88.3214 275.314 94.3795 269.928 98.3557Z" fill="#0C2718"/>
<path d="M228.151 112.263C228.151 112.263 244.114 113.581 246.859 97.5033C249.804 80.2586 213.477 18.7831 186.367 12.8755C166.658 8.58149 144.964 38.598 144.964 38.598" fill="#57CD8C"/>
<g opacity="0.6">
<path d="M240.997 98.4588C242.745 96.9436 230.049 45.2348 185.154 20.1657C176.598 15.3876 174.726 23.5072 176.853 24.7351C234.671 58.0774 239.249 99.9761 240.997 98.4608V98.4588Z" fill="white"/>
</g>
<path d="M229.382 114.768C228.874 114.768 228.396 114.748 227.948 114.711C226.591 114.599 225.582 113.412 225.694 112.06C225.807 110.71 227.008 109.706 228.347 109.815C228.904 109.856 242.105 110.696 244.428 97.0922C245.743 89.3859 237.92 70.5451 225.825 52.2928C212.098 31.5786 197.151 17.7423 185.84 15.2765C167.94 11.3761 147.172 39.7494 146.965 40.0347C146.169 41.1348 144.624 41.3847 143.524 40.5916C142.42 39.7986 142.169 38.2636 142.965 37.1635C143.889 35.8844 165.85 5.88955 186.896 10.4767C204.968 14.4145 223.02 39.1373 229.945 49.585C240.869 66.0701 251.088 87.4081 249.294 97.9168C246.997 111.362 235.99 114.768 229.386 114.768H229.382Z" fill="#0C2718"/>
<path d="M217.46 77.8387C222.841 71.4469 232.562 65.0119 240.669 70.6283L238.88 72.976C232.159 67.2907 222.931 72.8638 217.46 77.8387Z" fill="#0C2718"/>
<path d="M201.043 61.2391C208.523 55.1976 222.204 45.7969 231.285 53.5485L229.2 55.6404C222.119 48.426 207.861 56.648 201.043 61.2391Z" fill="#0C2718"/>
<path d="M190.487 47.2034C197.026 41.3135 207.956 32.2631 217.403 34.7426L216.406 37.5174C208.359 34.6895 196.848 42.508 190.489 47.2034H190.487Z" fill="#0C2718"/>
<path d="M175.597 34.3705C182.19 27.288 192.494 17.9562 203.021 20.2508L202.164 23.0728C192.962 20.2508 182.166 28.5278 175.597 34.3705Z" fill="#0C2718"/>
<path d="M55.9252 175.405C46.5031 181.309 36.5358 185.346 26.1149 187.868C21.8915 188.891 17.8538 185.685 17.7645 181.362C17.5976 173.452 18.4978 165.928 20.9161 158.976C22.1124 155.517 25.5414 153.339 29.2007 153.618L48.5314 155.081C52.696 159.795 55.2836 166.422 55.9275 175.403L55.9252 175.405Z" fill="#57CD8C"/>
<g opacity="0.6">
<path d="M51.3732 159.02L33.2036 157.647C29.5466 157.369 26.1176 159.547 24.919 163.005C22.5006 169.958 21.6028 177.482 21.7673 185.392C21.7861 186.188 21.9342 186.942 22.1951 187.636C19.685 186.699 17.8236 184.285 17.7625 181.364C17.5957 173.454 18.4958 165.93 20.9142 158.977C22.1105 155.519 25.5394 153.341 29.1988 153.62L48.5294 155.083C49.5776 156.275 50.5318 157.582 51.3732 159.02Z" fill="white"/>
</g>
<path d="M277.553 222.893L298.471 229.874L286.246 209.504L277.553 222.893Z" fill="#57CD8C"/>
<path d="M80.2337 232.113L65.6787 259.348L92.2974 244.316L80.2337 232.113Z" fill="#57CD8C"/>
<path d="M69.313 95.5298L49.0901 72.1934L78.376 80.9593L69.313 95.5298Z" fill="#57CD8C"/>
<path d="M59.0371 191.754L39.7676 208.612L64.0596 206.099L59.0371 191.754Z" fill="#57CD8C"/>
<path d="M294.14 184.404C289.289 200.288 281.127 215.265 269.881 228.227C207.504 300.153 96.8172 279.911 62.9575 207.678C54.3227 189.258 50.6822 167.459 54.1136 142.951C57.0059 126.213 61.8113 102.988 72.946 85.9671C76.6217 78.5719 80.9273 71.8629 85.7547 65.8376V65.8329C139.025 -0.70245 255.686 15.5936 291.245 106.04C294.714 114.869 297.059 123.964 298.317 133.136C300.679 150.374 299.203 167.878 294.143 184.404H294.14Z" fill="#57CD8C"/>
<g opacity="0.6">
<path d="M55.9183 152.068C55.6504 153.981 55.4412 155.874 55.2603 157.754C55.3378 155.564 55.4906 153.342 55.6857 151.104C55.7632 151.424 55.8361 151.75 55.9207 152.068H55.9183Z" fill="white"/>
</g>
<g opacity="0.6">
<path d="M75.2912 87.137C78.967 79.7418 83.2726 73.0328 88.1 67.0075V67.0029C141.37 0.467464 258.033 16.7635 293.59 107.21C297.059 116.039 299.404 125.134 300.662 134.306C300.843 135.622 300.993 136.938 301.127 138.257C299.762 130.517 297.618 122.853 294.655 115.381C271.12 56.0389 212.495 28.5541 159.815 35.4154C160.325 35.9235 160.699 36.4949 160.882 37.1412C162.193 41.7497 154.153 48.0536 142.928 51.222C131.704 54.3903 121.541 53.2242 120.23 48.6157C120.178 48.4307 120.164 48.2386 120.141 48.049C107.938 54.6198 96.8804 63.5769 87.7004 74.9718V74.9764C82.8449 80.997 78.5157 87.7037 74.8212 95.0965C62.8843 103.698 61.8543 117.999 60 131C60.0517 115.259 61.855 95.8574 76.1209 85.5L75.2912 87.137Z" fill="white"/>
</g>
<path d="M273.623 227.432C273.623 227.432 273.589 228.107 273.508 229.338C216.886 291.527 117.706 283.45 75.4661 219.387C74.7681 201.267 93.8204 190.721 111.5 179.292C134.112 164.674 171.42 165.882 196.705 168.956C214.502 171.12 230.821 179.201 244.967 190.215C255.012 198.035 263.457 207.715 269.841 218.728L270 219.003L273.622 227.43L273.623 227.432Z" fill="#89DCAE"/>
<g opacity="0.3">
<path d="M58.1422 161.44C79.2433 237.659 183.369 275.344 255.619 214.954C268.645 204.07 279.004 190.716 286.299 175.941C293.789 160.797 298.048 144.161 298.666 127.16C298.871 128.047 299.082 128.927 299.269 129.822C301.198 139.028 301.993 148.316 301.721 157.505C301.207 174.773 296.924 191.68 289.323 207.05C282.028 221.825 271.667 235.179 258.643 246.063C186.393 306.452 82.2675 268.768 61.1664 192.549C58.2517 182.02 56.9373 170.752 57.4925 158.913C57.7047 159.758 57.9114 160.606 58.1422 161.44Z" fill="#0C2718"/>
</g>
<path d="M175.08 277.137C155.385 277.137 136.435 272.845 120.193 265.508C71.8132 243.657 46.285 197.242 53.472 144.279C55.4334 121.974 62.4715 98.8793 72.9812 85.2024C83.3293 64.7053 99.1793 48.2313 118.858 37.5272C137.457 27.411 159.021 22.5753 181.249 23.5331C205.421 24.5775 228.743 32.3193 248.699 45.92C270.1 60.5066 286.568 81.3315 296.324 106.144C312.999 148.562 304.618 196.521 274.45 231.31C246.033 264.077 209.426 277.137 175.082 277.137H175.08ZM175.489 29.2563C132.694 29.2563 96.4906 51.0905 77.9214 88.434C77.7123 88.8555 77.402 89.2208 77.0213 89.4995C67.8579 102.145 62.87 123.546 59.3005 143.392C59.3945 143.76 59.4157 144.144 59.364 144.521C50.9126 204.916 86.4974 243.868 122.618 260.183C165.193 279.411 227.279 276.758 270.01 227.486C298.749 194.345 306.74 148.668 290.859 108.275C272.568 61.7454 230.47 31.5137 180.995 29.3757C179.151 29.2961 177.313 29.2563 175.489 29.2563Z" fill="#0C2718"/>
<g opacity="0.3">
<path d="M322.23 158.894C324.929 159.767 327.26 161.616 328.639 164.195C339.783 185.026 335.669 206.577 297.727 188.465C328.133 192.983 331.43 175.655 322.23 158.894Z" fill="#0C2718"/>
</g>
<path d="M292.901 184.862C302.197 188.745 329.988 201.321 331.628 184.029C332.121 177.572 329.451 170.572 326.309 164.878C323.923 161.052 319.265 159.903 314.985 160.503C311.04 160.746 307.063 161.554 303.111 162.555C301.899 162.885 301.273 161.084 302.429 160.587C309.935 157.553 321.057 153.131 327.978 159.486C329.309 160.671 330.399 162.345 331.136 163.915C332.358 166.295 333.449 168.781 334.325 171.325C338.638 183.01 336.867 197.399 321.546 197.667C310.719 197.428 303.326 193.286 294.5 187.998C296.575 187.998 295.597 186.669 294.5 185.534L292.901 184.862Z" fill="#0C2718"/>
<path d="M299.834 179.142C303.79 179.15 307.609 180.137 311.359 181.282C312.602 181.681 313.837 182.116 315.045 182.668C315.584 182.914 315.821 183.554 315.571 184.096C315.386 184.5 314.982 184.735 314.563 184.724C311.93 184.632 309.359 184.191 306.801 183.635C304.238 183.069 301.726 182.379 299.352 181.198C298.818 180.926 298.61 180.271 298.884 179.735C299.073 179.365 299.445 179.151 299.834 179.142Z" fill="#0C2718"/>
<path d="M299.576 172.256C304.011 172.017 308.358 172.476 312.69 173.264C314.128 173.54 315.559 173.869 316.972 174.34C317.535 174.527 317.839 175.137 317.65 175.702C317.509 176.123 317.134 176.401 316.717 176.435C315.231 176.558 313.762 176.541 312.3 176.469C307.903 176.21 303.571 175.632 299.32 174.352C298.2 174.018 298.419 172.312 299.576 172.256Z" fill="#0C2718"/>
<path d="M179.865 186.098C182.295 185.967 184.677 186.219 187.051 186.65C187.838 186.801 188.623 186.982 189.397 187.24C189.706 187.342 189.872 187.677 189.769 187.986C189.691 188.217 189.486 188.369 189.257 188.388C188.443 188.455 187.638 188.446 186.837 188.406C184.428 188.264 182.054 187.948 179.725 187.246C179.11 187.064 179.231 186.128 179.865 186.098Z" fill="#0C2718"/>
<path d="M167.747 184.584C170.178 184.453 172.559 184.705 174.934 185.137C175.721 185.288 176.505 185.468 177.28 185.726C177.588 185.829 177.755 186.163 177.651 186.473C177.574 186.703 177.368 186.855 177.14 186.874C176.326 186.942 175.521 186.932 174.72 186.893C172.311 186.751 169.937 186.434 167.607 185.733C166.993 185.55 167.114 184.615 167.747 184.584Z" fill="#0C2718"/>
<path d="M171.08 179.204C173.314 180.169 175.335 181.455 177.268 182.899C177.906 183.385 178.528 183.896 179.106 184.471C179.337 184.701 179.337 185.074 179.107 185.305C178.935 185.477 178.683 185.522 178.47 185.437C177.71 185.135 176.994 184.768 176.295 184.376C174.201 183.176 172.216 181.835 170.443 180.17C169.974 179.733 170.499 178.949 171.08 179.204Z" fill="#0C2718"/>
<path d="M180.958 187.565C183.192 188.53 185.213 189.816 187.146 191.26C187.784 191.746 188.406 192.257 188.985 192.833C189.215 193.062 189.215 193.436 188.985 193.667C188.813 193.839 188.561 193.883 188.348 193.799C187.589 193.496 186.873 193.129 186.173 192.737C184.079 191.537 182.095 190.197 180.321 188.531C179.853 188.094 180.377 187.31 180.958 187.565Z" fill="#0C2718"/>
<path d="M180.168 186.95C182.402 185.985 184.423 184.699 186.356 183.255C186.994 182.77 187.616 182.259 188.195 181.683C188.425 181.453 188.425 181.08 188.195 180.849C188.023 180.677 187.771 180.632 187.558 180.717C186.799 181.019 186.083 181.386 185.383 181.778C183.289 182.978 181.305 184.319 179.531 185.984C179.063 186.421 179.587 187.205 180.168 186.95Z" fill="#0C2718"/>
<path d="M179.469 184.204C180.128 181.861 180.403 179.482 180.5 177.071C180.525 176.269 180.52 175.465 180.438 174.653C180.405 174.329 180.115 174.094 179.791 174.127C179.549 174.152 179.355 174.319 179.287 174.538C179.043 175.318 178.877 176.105 178.74 176.896C178.352 179.278 178.142 181.663 178.317 184.09C178.361 184.729 179.3 184.816 179.469 184.204Z" fill="#0C2718"/>
<path d="M177.953 197.835C178.613 195.492 178.888 193.113 178.985 190.702C179.01 189.9 179.005 189.096 178.923 188.283C178.89 187.96 178.6 187.724 178.276 187.758C178.034 187.783 177.84 187.95 177.772 188.169C177.528 188.949 177.362 189.736 177.225 190.527C176.837 192.909 176.627 195.294 176.802 197.721C176.846 198.36 177.785 198.447 177.953 197.835Z" fill="#0C2718"/>
<path d="M171.412 193.871C173.39 192.452 175.09 190.765 176.671 188.942C177.191 188.331 177.69 187.7 178.132 187.014C178.309 186.741 178.229 186.376 177.955 186.199C177.75 186.068 177.494 186.078 177.304 186.206C176.627 186.663 176.006 187.174 175.406 187.706C173.615 189.325 171.962 191.058 170.585 193.063C170.22 193.589 170.899 194.244 171.412 193.871Z" fill="#0C2718"/>
<path d="M301.946 166.386C306.297 165.472 310.76 165.315 315.083 166.332C315.664 166.494 316.006 167.097 315.841 167.682C315.736 168.062 315.437 168.342 315.084 168.442C312.921 169.04 310.73 169.162 308.517 169.166C306.326 169.139 304.137 169.015 301.947 168.498C301.364 168.361 301.005 167.776 301.144 167.192C301.243 166.782 301.562 166.481 301.943 166.387L301.946 166.386Z" fill="#0C2718"/>
<path d="M24.5264 190.398C22.5569 190.398 20.6251 189.752 19.0175 188.52C16.7871 186.811 15.4757 184.219 15.4146 181.409C15.2313 172.674 16.303 165.082 18.6955 158.207C20.2349 153.772 24.6416 150.924 29.3773 151.285L54.4942 153.109C55.7869 153.202 56.7598 154.322 56.6658 155.612C56.5718 156.9 55.4578 157.867 54.1535 157.774L29.0295 155.949C26.3831 155.755 23.9765 157.31 23.1328 159.736C20.9282 166.082 19.9388 173.138 20.1127 181.31C20.1409 182.696 20.7872 183.973 21.8824 184.811C22.9377 185.619 24.2797 185.905 25.5605 185.596C36.0379 183.059 45.8313 178.964 54.6728 173.423C55.7704 172.735 57.2205 173.065 57.9091 174.159C58.6001 175.252 58.2687 176.697 57.1711 177.383C47.9018 183.193 37.6384 187.485 26.6698 190.141C25.9601 190.312 25.2409 190.396 24.5288 190.396L24.5264 190.398Z" fill="#0C2718"/>
<path d="M51.8057 160.022L34.2871 163.846C33.5867 164.003 33.2789 162.963 33.9628 162.722L50.8304 156.65C53.183 155.891 54.2124 159.406 51.8081 160.019L51.8057 160.022Z" fill="#0C2718"/>
<path d="M54.5083 161.844L35.6172 175.354C35.039 175.782 34.3316 174.909 34.8862 174.438L52.3132 159.1C54.1675 157.543 56.4543 160.379 54.5083 161.844Z" fill="#0C2718"/>
<path d="M299.322 232.052C298.821 232.248 298.257 232.27 297.723 232.093L276.805 225.112C275.577 224.702 274.916 223.376 275.33 222.151C275.745 220.925 277.074 220.265 278.301 220.674L293.194 225.644L284.231 210.71C283.567 209.602 283.929 208.165 285.042 207.5C286.164 206.832 287.594 207.194 288.258 208.3L300.484 228.67C300.988 229.509 300.913 230.576 300.295 231.34C300.032 231.667 299.695 231.909 299.321 232.055L299.322 232.052Z" fill="#0C2718"/>
<path d="M65.6813 261.684C65.082 261.684 64.4921 261.457 64.0432 261.022C63.2958 260.296 63.1172 259.165 63.6084 258.247L78.1633 231.015C78.7744 229.875 80.1963 229.444 81.3385 230.05C82.4831 230.657 82.9155 232.073 82.3068 233.214L71.5451 253.346L91.1413 242.281C92.2694 241.644 93.7031 242.04 94.3423 243.164C94.9816 244.288 94.5844 245.714 93.4586 246.351L66.8399 261.38C66.478 261.584 66.0785 261.684 65.6836 261.684H65.6813Z" fill="#0C2718"/>
<path d="M47.79 69.4116C47.2056 69.5443 46.6806 69.8964 46.3393 70.4205C45.7711 71.2939 45.8473 72.4364 46.5296 73.2228L66.7519 96.5569C67.6003 97.5338 69.0823 97.6392 70.0619 96.7949C71.0438 95.9501 71.1519 94.4727 70.3058 93.4954L55.3544 76.2455L76.9139 82.6974C78.155 83.0688 79.4654 82.3655 79.84 81.1279C80.2146 79.8902 79.5115 78.5874 78.2727 78.2155L48.9873 69.452C48.5893 69.3334 48.1774 69.3237 47.7923 69.4111L47.79 69.4116Z" fill="#0C2718"/>
<path d="M39.765 210.949C38.839 210.949 37.993 210.406 37.6146 209.547C37.2056 208.615 37.4501 207.526 38.2186 206.854L57.4881 189.996C58.4635 189.143 59.9465 189.239 60.7996 190.209C61.6527 191.178 61.5587 192.658 60.5834 193.511L46.8486 205.528L63.8149 203.774C65.1076 203.639 66.2592 204.575 66.3908 205.858C66.5248 207.144 65.587 208.294 64.2991 208.427L40.0071 210.94C39.9248 210.949 39.8449 210.952 39.765 210.952V210.949Z" fill="#0C2718"/>
<path d="M253.456 53.0078L253.461 53.0209L253.448 53.013L253.456 53.0078Z" fill="white"/>
<path d="M186.753 54.6053L179.651 30.0547L171.587 53.0247L186.753 54.6053Z" fill="#57CD8C"/>
<path d="M220.669 69.6284C219.936 69.4133 219.401 68.7339 219.405 67.9347L219.48 47.8814L208.488 63.179C207.921 63.9669 206.829 64.1492 206.033 63.5813C205.242 63.0147 205.061 61.9195 205.625 61.1332L219.83 41.3631C220.274 40.7419 221.031 40.4587 221.803 40.7169C222.532 40.9529 223.026 41.6323 223.022 42.3951L222.927 67.9507C222.925 68.9188 222.132 69.7014 221.161 69.6948C220.99 69.6934 220.828 69.6702 220.673 69.6246L220.669 69.6284Z" fill="#0C2718"/>
<path d="M233.73 76.9629L242.717 53.0352L222.498 66.6851L233.73 76.9629Z" fill="#57CD8C"/>
<path d="M255.989 161.438C255.785 161.438 255.576 161.403 255.374 161.326C254.462 160.986 254.001 159.974 254.342 159.068L261.395 140.292L245.749 150.856C244.946 151.399 243.848 151.191 243.303 150.387C242.758 149.586 242.969 148.495 243.773 147.952L263.992 134.302C264.624 133.873 265.466 133.904 266.07 134.375C266.671 134.848 266.899 135.653 266.629 136.367L257.642 160.295C257.376 161 256.706 161.436 255.992 161.436L255.989 161.438Z" fill="#0C2718"/>
<path d="M276.191 96.9566L297.886 83.3371L273.5 82L276.191 96.9566Z" fill="#57CD8C"/>
<path d="M129.721 107.31C130.292 107.437 130.913 107.277 131.354 106.833C132.036 106.145 132.033 105.034 131.34 104.352L117.046 90.2234L135.69 93.3129C136.649 93.4711 137.556 92.826 137.713 91.8702C137.873 90.9149 137.235 89.9934 136.263 89.8514L112.171 85.8595C111.414 85.7343 110.666 86.11 110.317 86.7905C109.968 87.471 110.102 88.2972 110.647 88.8358L128.867 106.841C129.112 107.083 129.41 107.238 129.724 107.308L129.721 107.31Z" fill="#0C2718"/>
<path d="M210.775 162.484C207.036 168.738 198.418 170.044 192.845 165.309C182.284 156.345 173.151 144.307 163.537 146.51L161.58 107.986L161.363 103.739C163.19 107.435 165.2 110.548 167.518 112.657C168.018 113.109 168.527 113.511 169.057 113.867L169.084 113.885C174.043 117.209 180.386 116.068 189.189 107.026L197.299 98.0441C199.014 96.1469 201.915 95.8058 203.97 97.3251C207.792 100.148 210.778 103.914 212.999 108.268C221.243 124.417 219.051 148.622 210.77 162.484L210.775 162.484Z" fill="#57CD8C"/>
<path d="M187.864 167.785C185.37 167.991 182.863 166.773 180.88 164.358C179.248 162.371 177.673 160.246 176.149 158.192C171.562 152.007 167.233 146.165 163.561 147.249C162.57 147.543 161.555 146.616 161.289 145.178C161.023 143.742 161.611 142.341 162.6 142.048C168.196 140.394 173.251 147.214 178.604 154.435C180.091 156.441 181.628 158.513 183.183 160.406C184.509 162.023 186.222 162.757 187.897 162.418C189.514 162.092 190.889 160.777 191.667 158.814C197.301 144.606 197.595 114.922 186.452 103.028C185.917 102.456 185.159 102.558 184.726 103.256L179.809 111.222C175.534 117.62 171.74 120.242 168.16 119.316C163.671 118.151 162.037 114.506 160.294 109.73C159.808 108.398 160.145 106.823 161.048 106.208C161.95 105.592 163.075 106.173 163.561 107.504C165.678 113.311 166.52 113.553 168.604 114.094C170.872 114.676 173.693 112.463 177.008 107.504L181.881 99.6081C183.555 96.8985 186.422 96.5693 188.552 98.8423C201.763 112.944 201.135 145.979 194.923 161.644C193.619 164.934 191.326 167.133 188.636 167.678C188.379 167.729 188.122 167.766 187.865 167.787L187.864 167.785Z" fill="#0C2718"/>
<path d="M166.083 122.184C171.671 125.36 178.223 125.074 183.882 122.266C185.869 121.363 187.722 119.979 189.56 118.581C190.154 118.147 190.658 119.407 190.073 119.893C186.47 123.182 182.412 125.697 178.16 126.696C173.768 127.713 169.385 127.503 165.081 125.396C164.436 125.066 164.1 124.059 164.335 123.148C164.587 122.151 165.42 121.703 166.083 122.184Z" fill="#0C2718"/>
<path d="M164.383 128.616C172.714 132.913 182.031 133.97 190.77 131.639C191.439 131.432 191.686 132.881 191.004 133.106C184.263 135.442 177.193 135.721 170.342 134.157C168.037 133.628 165.805 132.954 163.494 131.893C162.84 131.593 162.483 130.601 162.696 129.681C162.92 128.696 163.713 128.202 164.382 128.617L164.383 128.616Z" fill="#0C2718"/>
<path d="M165.195 135.222C174.552 139.773 184.879 142.306 195.116 143.285C196.018 143.351 195.974 144.816 195.054 144.787C184.402 144.435 173.819 142.526 163.815 138.398C161.717 137.432 163.128 134.146 165.195 135.222Z" fill="#0C2718"/>
<g opacity="0.3">
<path d="M194.312 163.846C192.099 169.974 186.61 171.021 182.895 166.133C175.854 156.877 169.639 144.597 163.538 146.51L162 109.826L165.088 112.858L166.111 114.11L166.129 114.13C171.195 159.413 199.194 155.105 194.128 109.827L194.131 109.827C199.898 126.18 199.211 150.261 194.31 163.844L194.312 163.846Z" fill="#0C2718"/>
</g>
<path d="M278.108 98.4368C277.53 98.4368 276.964 98.1534 276.628 97.6335C276.101 96.8186 276.336 95.7344 277.154 95.2075L294.062 84.3419L275.182 83.5059C274.209 83.4638 273.459 82.6442 273.502 81.677C273.544 80.7076 274.367 79.9488 275.337 80.0027L299.735 81.0822C300.501 81.115 301.157 81.6396 301.357 82.3772C301.556 83.1149 301.256 83.8946 300.612 84.3091L279.06 98.1581C278.766 98.3478 278.435 98.4368 278.108 98.4368Z" fill="#0C2718"/>
</svg>
